G04 #@! TF.GenerationSoftware,KiCad,Pcbnew,(5.1.5)-3*
G04 #@! TF.CreationDate,2021-01-08T20:22:34-07:00*
G04 #@! TF.ProjectId,ROM_To_2716,524f4d5f-546f-45f3-9237-31362e6b6963,rev?*
G04 #@! TF.SameCoordinates,Original*
G04 #@! TF.FileFunction,Soldermask,Top*
G04 #@! TF.FilePolarity,Negative*
%FSLAX46Y46*%
G04 Gerber Fmt 4.6, Leading zero omitted, Abs format (unit mm)*
G04 Created by KiCad (PCBNEW (5.1.5)-3) date 2021-01-08 20:22:34*
%MOMM*%
%LPD*%
G04 APERTURE LIST*
%ADD10R,1.924000X1.924000*%
%ADD11C,1.924000*%
G04 APERTURE END LIST*
D10*
X20955000Y-21590000D03*
D11*
X20955000Y-24130000D03*
X20955000Y-26670000D03*
X20955000Y-29210000D03*
X20955000Y-31750000D03*
X20955000Y-34290000D03*
X20955000Y-36830000D03*
X20955000Y-39370000D03*
X20955000Y-41910000D03*
X20955000Y-44450000D03*
X20955000Y-46990000D03*
X20955000Y-49530000D03*
X36195000Y-49530000D03*
X36195000Y-46990000D03*
X36195000Y-44450000D03*
X36195000Y-41910000D03*
X36195000Y-39370000D03*
X36195000Y-36830000D03*
X36195000Y-34290000D03*
X36195000Y-31750000D03*
X36195000Y-29210000D03*
X36195000Y-26670000D03*
X36195000Y-24130000D03*
X36195000Y-21590000D03*
X24765000Y-34290000D03*
X24765000Y-31750000D03*
X24765000Y-29210000D03*
D10*
X24765000Y-26670000D03*
D11*
X24765000Y-36830000D03*
X24765000Y-39370000D03*
X24765000Y-41910000D03*
X24765000Y-44450000D03*
X32385000Y-44450000D03*
X32385000Y-41910000D03*
X32385000Y-39370000D03*
X32385000Y-36830000D03*
X32385000Y-34290000D03*
X32385000Y-31750000D03*
X32385000Y-29210000D03*
X32385000Y-26670000D03*
M02*
