M48
; DRILL file {KiCad (5.1.5)-3} date 1/8/2021 8:22:31 PM
; FORMAT={-:-/ absolute / inch / decimal}
; #@! TF.CreationDate,2021-01-08T20:22:31-07:00
; #@! TF.GenerationSoftware,Kicad,Pcbnew,(5.1.5)-3
; #@! TF.FileFunction,Plated,1,2,PTH
FMAT,2
INCH
T1C0.0400
%
G90
G05
T1
X0.975Y-1.05
X0.975Y-1.15
X0.975Y-1.25
X0.975Y-1.35
X0.975Y-1.45
X0.975Y-1.55
X0.975Y-1.65
X0.975Y-1.75
X1.275Y-1.05
X1.275Y-1.15
X1.275Y-1.25
X1.275Y-1.35
X1.275Y-1.45
X1.275Y-1.55
X1.275Y-1.65
X1.275Y-1.75
X0.825Y-0.85
X0.825Y-0.95
X0.825Y-1.05
X0.825Y-1.15
X0.825Y-1.25
X0.825Y-1.35
X0.825Y-1.45
X0.825Y-1.55
X0.825Y-1.65
X0.825Y-1.75
X0.825Y-1.85
X0.825Y-1.95
X1.425Y-0.85
X1.425Y-0.95
X1.425Y-1.05
X1.425Y-1.15
X1.425Y-1.25
X1.425Y-1.35
X1.425Y-1.45
X1.425Y-1.55
X1.425Y-1.65
X1.425Y-1.75
X1.425Y-1.85
X1.425Y-1.95
T0
M30
