G04 #@! TF.GenerationSoftware,KiCad,Pcbnew,(5.1.5)-3*
G04 #@! TF.CreationDate,2021-01-08T20:22:34-07:00*
G04 #@! TF.ProjectId,ROM_To_2716,524f4d5f-546f-45f3-9237-31362e6b6963,rev?*
G04 #@! TF.SameCoordinates,Original*
G04 #@! TF.FileFunction,Copper,L2,Bot*
G04 #@! TF.FilePolarity,Positive*
%FSLAX46Y46*%
G04 Gerber Fmt 4.6, Leading zero omitted, Abs format (unit mm)*
G04 Created by KiCad (PCBNEW (5.1.5)-3) date 2021-01-08 20:22:34*
%MOMM*%
%LPD*%
G04 APERTURE LIST*
%ADD10R,1.524000X1.524000*%
%ADD11C,1.524000*%
%ADD12C,0.508000*%
%ADD13C,0.254000*%
G04 APERTURE END LIST*
D10*
X20955000Y-21590000D03*
D11*
X20955000Y-24130000D03*
X20955000Y-26670000D03*
X20955000Y-29210000D03*
X20955000Y-31750000D03*
X20955000Y-34290000D03*
X20955000Y-36830000D03*
X20955000Y-39370000D03*
X20955000Y-41910000D03*
X20955000Y-44450000D03*
X20955000Y-46990000D03*
X20955000Y-49530000D03*
X36195000Y-49530000D03*
X36195000Y-46990000D03*
X36195000Y-44450000D03*
X36195000Y-41910000D03*
X36195000Y-39370000D03*
X36195000Y-36830000D03*
X36195000Y-34290000D03*
X36195000Y-31750000D03*
X36195000Y-29210000D03*
X36195000Y-26670000D03*
X36195000Y-24130000D03*
X36195000Y-21590000D03*
X24765000Y-34290000D03*
X24765000Y-31750000D03*
X24765000Y-29210000D03*
D10*
X24765000Y-26670000D03*
D11*
X24765000Y-36830000D03*
X24765000Y-39370000D03*
X24765000Y-41910000D03*
X24765000Y-44450000D03*
X32385000Y-44450000D03*
X32385000Y-41910000D03*
X32385000Y-39370000D03*
X32385000Y-36830000D03*
X32385000Y-34290000D03*
X32385000Y-31750000D03*
X32385000Y-29210000D03*
X32385000Y-26670000D03*
D12*
X20955000Y-36830000D02*
X23495000Y-39370000D01*
X23495000Y-39370000D02*
X24765000Y-39370000D01*
D13*
G36*
X37844730Y-51179730D02*
G01*
X19305270Y-51179730D01*
X19305270Y-50318328D01*
X20256475Y-50318328D01*
X20332316Y-50495083D01*
X20532560Y-50598019D01*
X20749037Y-50659911D01*
X20973429Y-50678382D01*
X21197113Y-50652720D01*
X21411493Y-50583914D01*
X21577684Y-50495083D01*
X21653525Y-50318328D01*
X20955000Y-49619803D01*
X20256475Y-50318328D01*
X19305270Y-50318328D01*
X19305270Y-49548429D01*
X19806618Y-49548429D01*
X19832280Y-49772113D01*
X19901086Y-49986493D01*
X19989917Y-50152684D01*
X20166672Y-50228525D01*
X20865197Y-49530000D01*
X21044803Y-49530000D01*
X21743328Y-50228525D01*
X21920083Y-50152684D01*
X22023019Y-49952440D01*
X22084911Y-49735963D01*
X22103382Y-49511571D01*
X22093192Y-49422743D01*
X35106000Y-49422743D01*
X35106000Y-49637257D01*
X35147850Y-49847650D01*
X35229941Y-50045835D01*
X35349119Y-50224197D01*
X35500803Y-50375881D01*
X35679165Y-50495059D01*
X35877350Y-50577150D01*
X36087743Y-50619000D01*
X36302257Y-50619000D01*
X36512650Y-50577150D01*
X36710835Y-50495059D01*
X36889197Y-50375881D01*
X37040881Y-50224197D01*
X37160059Y-50045835D01*
X37242150Y-49847650D01*
X37284000Y-49637257D01*
X37284000Y-49422743D01*
X37242150Y-49212350D01*
X37160059Y-49014165D01*
X37040881Y-48835803D01*
X36889197Y-48684119D01*
X36710835Y-48564941D01*
X36512650Y-48482850D01*
X36302257Y-48441000D01*
X36087743Y-48441000D01*
X35877350Y-48482850D01*
X35679165Y-48564941D01*
X35500803Y-48684119D01*
X35349119Y-48835803D01*
X35229941Y-49014165D01*
X35147850Y-49212350D01*
X35106000Y-49422743D01*
X22093192Y-49422743D01*
X22077720Y-49287887D01*
X22008914Y-49073507D01*
X21920083Y-48907316D01*
X21743328Y-48831475D01*
X21044803Y-49530000D01*
X20865197Y-49530000D01*
X20166672Y-48831475D01*
X19989917Y-48907316D01*
X19886981Y-49107560D01*
X19825089Y-49324037D01*
X19806618Y-49548429D01*
X19305270Y-49548429D01*
X19305270Y-48741672D01*
X20256475Y-48741672D01*
X20955000Y-49440197D01*
X21653525Y-48741672D01*
X21577684Y-48564917D01*
X21377440Y-48461981D01*
X21160963Y-48400089D01*
X20936571Y-48381618D01*
X20712887Y-48407280D01*
X20498507Y-48476086D01*
X20332316Y-48564917D01*
X20256475Y-48741672D01*
X19305270Y-48741672D01*
X19305270Y-46882743D01*
X19866000Y-46882743D01*
X19866000Y-47097257D01*
X19907850Y-47307650D01*
X19989941Y-47505835D01*
X20109119Y-47684197D01*
X20260803Y-47835881D01*
X20439165Y-47955059D01*
X20637350Y-48037150D01*
X20847743Y-48079000D01*
X21062257Y-48079000D01*
X21272650Y-48037150D01*
X21470835Y-47955059D01*
X21649197Y-47835881D01*
X21800881Y-47684197D01*
X21920059Y-47505835D01*
X22002150Y-47307650D01*
X22044000Y-47097257D01*
X22044000Y-46882743D01*
X35106000Y-46882743D01*
X35106000Y-47097257D01*
X35147850Y-47307650D01*
X35229941Y-47505835D01*
X35349119Y-47684197D01*
X35500803Y-47835881D01*
X35679165Y-47955059D01*
X35877350Y-48037150D01*
X36087743Y-48079000D01*
X36302257Y-48079000D01*
X36512650Y-48037150D01*
X36710835Y-47955059D01*
X36889197Y-47835881D01*
X37040881Y-47684197D01*
X37160059Y-47505835D01*
X37242150Y-47307650D01*
X37284000Y-47097257D01*
X37284000Y-46882743D01*
X37242150Y-46672350D01*
X37160059Y-46474165D01*
X37040881Y-46295803D01*
X36889197Y-46144119D01*
X36710835Y-46024941D01*
X36512650Y-45942850D01*
X36302257Y-45901000D01*
X36087743Y-45901000D01*
X35877350Y-45942850D01*
X35679165Y-46024941D01*
X35500803Y-46144119D01*
X35349119Y-46295803D01*
X35229941Y-46474165D01*
X35147850Y-46672350D01*
X35106000Y-46882743D01*
X22044000Y-46882743D01*
X22002150Y-46672350D01*
X21920059Y-46474165D01*
X21800881Y-46295803D01*
X21649197Y-46144119D01*
X21470835Y-46024941D01*
X21272650Y-45942850D01*
X21062257Y-45901000D01*
X20847743Y-45901000D01*
X20637350Y-45942850D01*
X20439165Y-46024941D01*
X20260803Y-46144119D01*
X20109119Y-46295803D01*
X19989941Y-46474165D01*
X19907850Y-46672350D01*
X19866000Y-46882743D01*
X19305270Y-46882743D01*
X19305270Y-44342743D01*
X19866000Y-44342743D01*
X19866000Y-44557257D01*
X19907850Y-44767650D01*
X19989941Y-44965835D01*
X20109119Y-45144197D01*
X20260803Y-45295881D01*
X20439165Y-45415059D01*
X20637350Y-45497150D01*
X20847743Y-45539000D01*
X21062257Y-45539000D01*
X21272650Y-45497150D01*
X21470835Y-45415059D01*
X21649197Y-45295881D01*
X21706750Y-45238328D01*
X24066475Y-45238328D01*
X24142316Y-45415083D01*
X24342560Y-45518019D01*
X24559037Y-45579911D01*
X24783429Y-45598382D01*
X25007113Y-45572720D01*
X25221493Y-45503914D01*
X25387684Y-45415083D01*
X25463525Y-45238328D01*
X24765000Y-44539803D01*
X24066475Y-45238328D01*
X21706750Y-45238328D01*
X21800881Y-45144197D01*
X21920059Y-44965835D01*
X22002150Y-44767650D01*
X22044000Y-44557257D01*
X22044000Y-44468429D01*
X23616618Y-44468429D01*
X23642280Y-44692113D01*
X23711086Y-44906493D01*
X23799917Y-45072684D01*
X23976672Y-45148525D01*
X24675197Y-44450000D01*
X24854803Y-44450000D01*
X25553328Y-45148525D01*
X25730083Y-45072684D01*
X25833019Y-44872440D01*
X25894911Y-44655963D01*
X25913382Y-44431571D01*
X25903192Y-44342743D01*
X31296000Y-44342743D01*
X31296000Y-44557257D01*
X31337850Y-44767650D01*
X31419941Y-44965835D01*
X31539119Y-45144197D01*
X31690803Y-45295881D01*
X31869165Y-45415059D01*
X32067350Y-45497150D01*
X32277743Y-45539000D01*
X32492257Y-45539000D01*
X32702650Y-45497150D01*
X32900835Y-45415059D01*
X33079197Y-45295881D01*
X33230881Y-45144197D01*
X33350059Y-44965835D01*
X33432150Y-44767650D01*
X33474000Y-44557257D01*
X33474000Y-44342743D01*
X35106000Y-44342743D01*
X35106000Y-44557257D01*
X35147850Y-44767650D01*
X35229941Y-44965835D01*
X35349119Y-45144197D01*
X35500803Y-45295881D01*
X35679165Y-45415059D01*
X35877350Y-45497150D01*
X36087743Y-45539000D01*
X36302257Y-45539000D01*
X36512650Y-45497150D01*
X36710835Y-45415059D01*
X36889197Y-45295881D01*
X37040881Y-45144197D01*
X37160059Y-44965835D01*
X37242150Y-44767650D01*
X37284000Y-44557257D01*
X37284000Y-44342743D01*
X37242150Y-44132350D01*
X37160059Y-43934165D01*
X37040881Y-43755803D01*
X36889197Y-43604119D01*
X36710835Y-43484941D01*
X36512650Y-43402850D01*
X36302257Y-43361000D01*
X36087743Y-43361000D01*
X35877350Y-43402850D01*
X35679165Y-43484941D01*
X35500803Y-43604119D01*
X35349119Y-43755803D01*
X35229941Y-43934165D01*
X35147850Y-44132350D01*
X35106000Y-44342743D01*
X33474000Y-44342743D01*
X33432150Y-44132350D01*
X33350059Y-43934165D01*
X33230881Y-43755803D01*
X33079197Y-43604119D01*
X32900835Y-43484941D01*
X32702650Y-43402850D01*
X32492257Y-43361000D01*
X32277743Y-43361000D01*
X32067350Y-43402850D01*
X31869165Y-43484941D01*
X31690803Y-43604119D01*
X31539119Y-43755803D01*
X31419941Y-43934165D01*
X31337850Y-44132350D01*
X31296000Y-44342743D01*
X25903192Y-44342743D01*
X25887720Y-44207887D01*
X25818914Y-43993507D01*
X25730083Y-43827316D01*
X25553328Y-43751475D01*
X24854803Y-44450000D01*
X24675197Y-44450000D01*
X23976672Y-43751475D01*
X23799917Y-43827316D01*
X23696981Y-44027560D01*
X23635089Y-44244037D01*
X23616618Y-44468429D01*
X22044000Y-44468429D01*
X22044000Y-44342743D01*
X22002150Y-44132350D01*
X21920059Y-43934165D01*
X21800881Y-43755803D01*
X21706750Y-43661672D01*
X24066475Y-43661672D01*
X24765000Y-44360197D01*
X25463525Y-43661672D01*
X25387684Y-43484917D01*
X25187440Y-43381981D01*
X24970963Y-43320089D01*
X24746571Y-43301618D01*
X24522887Y-43327280D01*
X24308507Y-43396086D01*
X24142316Y-43484917D01*
X24066475Y-43661672D01*
X21706750Y-43661672D01*
X21649197Y-43604119D01*
X21470835Y-43484941D01*
X21272650Y-43402850D01*
X21062257Y-43361000D01*
X20847743Y-43361000D01*
X20637350Y-43402850D01*
X20439165Y-43484941D01*
X20260803Y-43604119D01*
X20109119Y-43755803D01*
X19989941Y-43934165D01*
X19907850Y-44132350D01*
X19866000Y-44342743D01*
X19305270Y-44342743D01*
X19305270Y-41802743D01*
X19866000Y-41802743D01*
X19866000Y-42017257D01*
X19907850Y-42227650D01*
X19989941Y-42425835D01*
X20109119Y-42604197D01*
X20260803Y-42755881D01*
X20439165Y-42875059D01*
X20637350Y-42957150D01*
X20847743Y-42999000D01*
X21062257Y-42999000D01*
X21272650Y-42957150D01*
X21470835Y-42875059D01*
X21649197Y-42755881D01*
X21800881Y-42604197D01*
X21920059Y-42425835D01*
X22002150Y-42227650D01*
X22044000Y-42017257D01*
X22044000Y-41802743D01*
X23676000Y-41802743D01*
X23676000Y-42017257D01*
X23717850Y-42227650D01*
X23799941Y-42425835D01*
X23919119Y-42604197D01*
X24070803Y-42755881D01*
X24249165Y-42875059D01*
X24447350Y-42957150D01*
X24657743Y-42999000D01*
X24872257Y-42999000D01*
X25082650Y-42957150D01*
X25280835Y-42875059D01*
X25459197Y-42755881D01*
X25610881Y-42604197D01*
X25730059Y-42425835D01*
X25812150Y-42227650D01*
X25854000Y-42017257D01*
X25854000Y-41802743D01*
X31296000Y-41802743D01*
X31296000Y-42017257D01*
X31337850Y-42227650D01*
X31419941Y-42425835D01*
X31539119Y-42604197D01*
X31690803Y-42755881D01*
X31869165Y-42875059D01*
X32067350Y-42957150D01*
X32277743Y-42999000D01*
X32492257Y-42999000D01*
X32702650Y-42957150D01*
X32900835Y-42875059D01*
X33079197Y-42755881D01*
X33230881Y-42604197D01*
X33350059Y-42425835D01*
X33432150Y-42227650D01*
X33474000Y-42017257D01*
X33474000Y-41802743D01*
X35106000Y-41802743D01*
X35106000Y-42017257D01*
X35147850Y-42227650D01*
X35229941Y-42425835D01*
X35349119Y-42604197D01*
X35500803Y-42755881D01*
X35679165Y-42875059D01*
X35877350Y-42957150D01*
X36087743Y-42999000D01*
X36302257Y-42999000D01*
X36512650Y-42957150D01*
X36710835Y-42875059D01*
X36889197Y-42755881D01*
X37040881Y-42604197D01*
X37160059Y-42425835D01*
X37242150Y-42227650D01*
X37284000Y-42017257D01*
X37284000Y-41802743D01*
X37242150Y-41592350D01*
X37160059Y-41394165D01*
X37040881Y-41215803D01*
X36889197Y-41064119D01*
X36710835Y-40944941D01*
X36512650Y-40862850D01*
X36302257Y-40821000D01*
X36087743Y-40821000D01*
X35877350Y-40862850D01*
X35679165Y-40944941D01*
X35500803Y-41064119D01*
X35349119Y-41215803D01*
X35229941Y-41394165D01*
X35147850Y-41592350D01*
X35106000Y-41802743D01*
X33474000Y-41802743D01*
X33432150Y-41592350D01*
X33350059Y-41394165D01*
X33230881Y-41215803D01*
X33079197Y-41064119D01*
X32900835Y-40944941D01*
X32702650Y-40862850D01*
X32492257Y-40821000D01*
X32277743Y-40821000D01*
X32067350Y-40862850D01*
X31869165Y-40944941D01*
X31690803Y-41064119D01*
X31539119Y-41215803D01*
X31419941Y-41394165D01*
X31337850Y-41592350D01*
X31296000Y-41802743D01*
X25854000Y-41802743D01*
X25812150Y-41592350D01*
X25730059Y-41394165D01*
X25610881Y-41215803D01*
X25459197Y-41064119D01*
X25280835Y-40944941D01*
X25082650Y-40862850D01*
X24872257Y-40821000D01*
X24657743Y-40821000D01*
X24447350Y-40862850D01*
X24249165Y-40944941D01*
X24070803Y-41064119D01*
X23919119Y-41215803D01*
X23799941Y-41394165D01*
X23717850Y-41592350D01*
X23676000Y-41802743D01*
X22044000Y-41802743D01*
X22002150Y-41592350D01*
X21920059Y-41394165D01*
X21800881Y-41215803D01*
X21649197Y-41064119D01*
X21470835Y-40944941D01*
X21272650Y-40862850D01*
X21062257Y-40821000D01*
X20847743Y-40821000D01*
X20637350Y-40862850D01*
X20439165Y-40944941D01*
X20260803Y-41064119D01*
X20109119Y-41215803D01*
X19989941Y-41394165D01*
X19907850Y-41592350D01*
X19866000Y-41802743D01*
X19305270Y-41802743D01*
X19305270Y-39262743D01*
X19866000Y-39262743D01*
X19866000Y-39477257D01*
X19907850Y-39687650D01*
X19989941Y-39885835D01*
X20109119Y-40064197D01*
X20260803Y-40215881D01*
X20439165Y-40335059D01*
X20637350Y-40417150D01*
X20847743Y-40459000D01*
X21062257Y-40459000D01*
X21272650Y-40417150D01*
X21470835Y-40335059D01*
X21649197Y-40215881D01*
X21800881Y-40064197D01*
X21920059Y-39885835D01*
X22002150Y-39687650D01*
X22044000Y-39477257D01*
X22044000Y-39262743D01*
X22002150Y-39052350D01*
X21920059Y-38854165D01*
X21800881Y-38675803D01*
X21649197Y-38524119D01*
X21470835Y-38404941D01*
X21272650Y-38322850D01*
X21062257Y-38281000D01*
X20847743Y-38281000D01*
X20637350Y-38322850D01*
X20439165Y-38404941D01*
X20260803Y-38524119D01*
X20109119Y-38675803D01*
X19989941Y-38854165D01*
X19907850Y-39052350D01*
X19866000Y-39262743D01*
X19305270Y-39262743D01*
X19305270Y-36722743D01*
X19866000Y-36722743D01*
X19866000Y-36937257D01*
X19907850Y-37147650D01*
X19989941Y-37345835D01*
X20109119Y-37524197D01*
X20260803Y-37675881D01*
X20439165Y-37795059D01*
X20637350Y-37877150D01*
X20847743Y-37919000D01*
X21062257Y-37919000D01*
X21195783Y-37892440D01*
X23063987Y-39760645D01*
X23082183Y-39782817D01*
X23170652Y-39855421D01*
X23271585Y-39909371D01*
X23381104Y-39942593D01*
X23466460Y-39951000D01*
X23466462Y-39951000D01*
X23494999Y-39953811D01*
X23523536Y-39951000D01*
X23843483Y-39951000D01*
X23919119Y-40064197D01*
X24070803Y-40215881D01*
X24249165Y-40335059D01*
X24447350Y-40417150D01*
X24657743Y-40459000D01*
X24872257Y-40459000D01*
X25082650Y-40417150D01*
X25280835Y-40335059D01*
X25459197Y-40215881D01*
X25610881Y-40064197D01*
X25730059Y-39885835D01*
X25812150Y-39687650D01*
X25854000Y-39477257D01*
X25854000Y-39262743D01*
X31296000Y-39262743D01*
X31296000Y-39477257D01*
X31337850Y-39687650D01*
X31419941Y-39885835D01*
X31539119Y-40064197D01*
X31690803Y-40215881D01*
X31869165Y-40335059D01*
X32067350Y-40417150D01*
X32277743Y-40459000D01*
X32492257Y-40459000D01*
X32702650Y-40417150D01*
X32900835Y-40335059D01*
X33079197Y-40215881D01*
X33230881Y-40064197D01*
X33350059Y-39885835D01*
X33432150Y-39687650D01*
X33474000Y-39477257D01*
X33474000Y-39262743D01*
X35106000Y-39262743D01*
X35106000Y-39477257D01*
X35147850Y-39687650D01*
X35229941Y-39885835D01*
X35349119Y-40064197D01*
X35500803Y-40215881D01*
X35679165Y-40335059D01*
X35877350Y-40417150D01*
X36087743Y-40459000D01*
X36302257Y-40459000D01*
X36512650Y-40417150D01*
X36710835Y-40335059D01*
X36889197Y-40215881D01*
X37040881Y-40064197D01*
X37160059Y-39885835D01*
X37242150Y-39687650D01*
X37284000Y-39477257D01*
X37284000Y-39262743D01*
X37242150Y-39052350D01*
X37160059Y-38854165D01*
X37040881Y-38675803D01*
X36889197Y-38524119D01*
X36710835Y-38404941D01*
X36512650Y-38322850D01*
X36302257Y-38281000D01*
X36087743Y-38281000D01*
X35877350Y-38322850D01*
X35679165Y-38404941D01*
X35500803Y-38524119D01*
X35349119Y-38675803D01*
X35229941Y-38854165D01*
X35147850Y-39052350D01*
X35106000Y-39262743D01*
X33474000Y-39262743D01*
X33432150Y-39052350D01*
X33350059Y-38854165D01*
X33230881Y-38675803D01*
X33079197Y-38524119D01*
X32900835Y-38404941D01*
X32702650Y-38322850D01*
X32492257Y-38281000D01*
X32277743Y-38281000D01*
X32067350Y-38322850D01*
X31869165Y-38404941D01*
X31690803Y-38524119D01*
X31539119Y-38675803D01*
X31419941Y-38854165D01*
X31337850Y-39052350D01*
X31296000Y-39262743D01*
X25854000Y-39262743D01*
X25812150Y-39052350D01*
X25730059Y-38854165D01*
X25610881Y-38675803D01*
X25459197Y-38524119D01*
X25280835Y-38404941D01*
X25082650Y-38322850D01*
X24872257Y-38281000D01*
X24657743Y-38281000D01*
X24447350Y-38322850D01*
X24249165Y-38404941D01*
X24070803Y-38524119D01*
X23919119Y-38675803D01*
X23843483Y-38789000D01*
X23735658Y-38789000D01*
X22017440Y-37070783D01*
X22044000Y-36937257D01*
X22044000Y-36722743D01*
X23676000Y-36722743D01*
X23676000Y-36937257D01*
X23717850Y-37147650D01*
X23799941Y-37345835D01*
X23919119Y-37524197D01*
X24070803Y-37675881D01*
X24249165Y-37795059D01*
X24447350Y-37877150D01*
X24657743Y-37919000D01*
X24872257Y-37919000D01*
X25082650Y-37877150D01*
X25280835Y-37795059D01*
X25459197Y-37675881D01*
X25610881Y-37524197D01*
X25730059Y-37345835D01*
X25812150Y-37147650D01*
X25854000Y-36937257D01*
X25854000Y-36722743D01*
X31296000Y-36722743D01*
X31296000Y-36937257D01*
X31337850Y-37147650D01*
X31419941Y-37345835D01*
X31539119Y-37524197D01*
X31690803Y-37675881D01*
X31869165Y-37795059D01*
X32067350Y-37877150D01*
X32277743Y-37919000D01*
X32492257Y-37919000D01*
X32702650Y-37877150D01*
X32900835Y-37795059D01*
X33079197Y-37675881D01*
X33136750Y-37618328D01*
X35496475Y-37618328D01*
X35572316Y-37795083D01*
X35772560Y-37898019D01*
X35989037Y-37959911D01*
X36213429Y-37978382D01*
X36437113Y-37952720D01*
X36651493Y-37883914D01*
X36817684Y-37795083D01*
X36893525Y-37618328D01*
X36195000Y-36919803D01*
X35496475Y-37618328D01*
X33136750Y-37618328D01*
X33230881Y-37524197D01*
X33350059Y-37345835D01*
X33432150Y-37147650D01*
X33474000Y-36937257D01*
X33474000Y-36848429D01*
X35046618Y-36848429D01*
X35072280Y-37072113D01*
X35141086Y-37286493D01*
X35229917Y-37452684D01*
X35406672Y-37528525D01*
X36105197Y-36830000D01*
X36284803Y-36830000D01*
X36983328Y-37528525D01*
X37160083Y-37452684D01*
X37263019Y-37252440D01*
X37324911Y-37035963D01*
X37343382Y-36811571D01*
X37317720Y-36587887D01*
X37248914Y-36373507D01*
X37160083Y-36207316D01*
X36983328Y-36131475D01*
X36284803Y-36830000D01*
X36105197Y-36830000D01*
X35406672Y-36131475D01*
X35229917Y-36207316D01*
X35126981Y-36407560D01*
X35065089Y-36624037D01*
X35046618Y-36848429D01*
X33474000Y-36848429D01*
X33474000Y-36722743D01*
X33432150Y-36512350D01*
X33350059Y-36314165D01*
X33230881Y-36135803D01*
X33136750Y-36041672D01*
X35496475Y-36041672D01*
X36195000Y-36740197D01*
X36893525Y-36041672D01*
X36817684Y-35864917D01*
X36617440Y-35761981D01*
X36400963Y-35700089D01*
X36176571Y-35681618D01*
X35952887Y-35707280D01*
X35738507Y-35776086D01*
X35572316Y-35864917D01*
X35496475Y-36041672D01*
X33136750Y-36041672D01*
X33079197Y-35984119D01*
X32900835Y-35864941D01*
X32702650Y-35782850D01*
X32492257Y-35741000D01*
X32277743Y-35741000D01*
X32067350Y-35782850D01*
X31869165Y-35864941D01*
X31690803Y-35984119D01*
X31539119Y-36135803D01*
X31419941Y-36314165D01*
X31337850Y-36512350D01*
X31296000Y-36722743D01*
X25854000Y-36722743D01*
X25812150Y-36512350D01*
X25730059Y-36314165D01*
X25610881Y-36135803D01*
X25459197Y-35984119D01*
X25280835Y-35864941D01*
X25082650Y-35782850D01*
X24872257Y-35741000D01*
X24657743Y-35741000D01*
X24447350Y-35782850D01*
X24249165Y-35864941D01*
X24070803Y-35984119D01*
X23919119Y-36135803D01*
X23799941Y-36314165D01*
X23717850Y-36512350D01*
X23676000Y-36722743D01*
X22044000Y-36722743D01*
X22002150Y-36512350D01*
X21920059Y-36314165D01*
X21800881Y-36135803D01*
X21649197Y-35984119D01*
X21470835Y-35864941D01*
X21272650Y-35782850D01*
X21062257Y-35741000D01*
X20847743Y-35741000D01*
X20637350Y-35782850D01*
X20439165Y-35864941D01*
X20260803Y-35984119D01*
X20109119Y-36135803D01*
X19989941Y-36314165D01*
X19907850Y-36512350D01*
X19866000Y-36722743D01*
X19305270Y-36722743D01*
X19305270Y-34182743D01*
X19866000Y-34182743D01*
X19866000Y-34397257D01*
X19907850Y-34607650D01*
X19989941Y-34805835D01*
X20109119Y-34984197D01*
X20260803Y-35135881D01*
X20439165Y-35255059D01*
X20637350Y-35337150D01*
X20847743Y-35379000D01*
X21062257Y-35379000D01*
X21272650Y-35337150D01*
X21470835Y-35255059D01*
X21649197Y-35135881D01*
X21800881Y-34984197D01*
X21920059Y-34805835D01*
X22002150Y-34607650D01*
X22044000Y-34397257D01*
X22044000Y-34182743D01*
X23676000Y-34182743D01*
X23676000Y-34397257D01*
X23717850Y-34607650D01*
X23799941Y-34805835D01*
X23919119Y-34984197D01*
X24070803Y-35135881D01*
X24249165Y-35255059D01*
X24447350Y-35337150D01*
X24657743Y-35379000D01*
X24872257Y-35379000D01*
X25082650Y-35337150D01*
X25280835Y-35255059D01*
X25459197Y-35135881D01*
X25516750Y-35078328D01*
X31686475Y-35078328D01*
X31762316Y-35255083D01*
X31962560Y-35358019D01*
X32179037Y-35419911D01*
X32403429Y-35438382D01*
X32627113Y-35412720D01*
X32841493Y-35343914D01*
X33007684Y-35255083D01*
X33083525Y-35078328D01*
X35496475Y-35078328D01*
X35572316Y-35255083D01*
X35772560Y-35358019D01*
X35989037Y-35419911D01*
X36213429Y-35438382D01*
X36437113Y-35412720D01*
X36651493Y-35343914D01*
X36817684Y-35255083D01*
X36893525Y-35078328D01*
X36195000Y-34379803D01*
X35496475Y-35078328D01*
X33083525Y-35078328D01*
X32385000Y-34379803D01*
X31686475Y-35078328D01*
X25516750Y-35078328D01*
X25610881Y-34984197D01*
X25730059Y-34805835D01*
X25812150Y-34607650D01*
X25854000Y-34397257D01*
X25854000Y-34308429D01*
X31236618Y-34308429D01*
X31262280Y-34532113D01*
X31331086Y-34746493D01*
X31419917Y-34912684D01*
X31596672Y-34988525D01*
X32295197Y-34290000D01*
X32474803Y-34290000D01*
X33173328Y-34988525D01*
X33350083Y-34912684D01*
X33453019Y-34712440D01*
X33514911Y-34495963D01*
X33530348Y-34308429D01*
X35046618Y-34308429D01*
X35072280Y-34532113D01*
X35141086Y-34746493D01*
X35229917Y-34912684D01*
X35406672Y-34988525D01*
X36105197Y-34290000D01*
X36284803Y-34290000D01*
X36983328Y-34988525D01*
X37160083Y-34912684D01*
X37263019Y-34712440D01*
X37324911Y-34495963D01*
X37343382Y-34271571D01*
X37317720Y-34047887D01*
X37248914Y-33833507D01*
X37160083Y-33667316D01*
X36983328Y-33591475D01*
X36284803Y-34290000D01*
X36105197Y-34290000D01*
X35406672Y-33591475D01*
X35229917Y-33667316D01*
X35126981Y-33867560D01*
X35065089Y-34084037D01*
X35046618Y-34308429D01*
X33530348Y-34308429D01*
X33533382Y-34271571D01*
X33507720Y-34047887D01*
X33438914Y-33833507D01*
X33350083Y-33667316D01*
X33173328Y-33591475D01*
X32474803Y-34290000D01*
X32295197Y-34290000D01*
X31596672Y-33591475D01*
X31419917Y-33667316D01*
X31316981Y-33867560D01*
X31255089Y-34084037D01*
X31236618Y-34308429D01*
X25854000Y-34308429D01*
X25854000Y-34182743D01*
X25812150Y-33972350D01*
X25730059Y-33774165D01*
X25610881Y-33595803D01*
X25516750Y-33501672D01*
X31686475Y-33501672D01*
X32385000Y-34200197D01*
X33083525Y-33501672D01*
X35496475Y-33501672D01*
X36195000Y-34200197D01*
X36893525Y-33501672D01*
X36817684Y-33324917D01*
X36617440Y-33221981D01*
X36400963Y-33160089D01*
X36176571Y-33141618D01*
X35952887Y-33167280D01*
X35738507Y-33236086D01*
X35572316Y-33324917D01*
X35496475Y-33501672D01*
X33083525Y-33501672D01*
X33007684Y-33324917D01*
X32807440Y-33221981D01*
X32590963Y-33160089D01*
X32366571Y-33141618D01*
X32142887Y-33167280D01*
X31928507Y-33236086D01*
X31762316Y-33324917D01*
X31686475Y-33501672D01*
X25516750Y-33501672D01*
X25459197Y-33444119D01*
X25280835Y-33324941D01*
X25082650Y-33242850D01*
X24872257Y-33201000D01*
X24657743Y-33201000D01*
X24447350Y-33242850D01*
X24249165Y-33324941D01*
X24070803Y-33444119D01*
X23919119Y-33595803D01*
X23799941Y-33774165D01*
X23717850Y-33972350D01*
X23676000Y-34182743D01*
X22044000Y-34182743D01*
X22002150Y-33972350D01*
X21920059Y-33774165D01*
X21800881Y-33595803D01*
X21649197Y-33444119D01*
X21470835Y-33324941D01*
X21272650Y-33242850D01*
X21062257Y-33201000D01*
X20847743Y-33201000D01*
X20637350Y-33242850D01*
X20439165Y-33324941D01*
X20260803Y-33444119D01*
X20109119Y-33595803D01*
X19989941Y-33774165D01*
X19907850Y-33972350D01*
X19866000Y-34182743D01*
X19305270Y-34182743D01*
X19305270Y-31642743D01*
X19866000Y-31642743D01*
X19866000Y-31857257D01*
X19907850Y-32067650D01*
X19989941Y-32265835D01*
X20109119Y-32444197D01*
X20260803Y-32595881D01*
X20439165Y-32715059D01*
X20637350Y-32797150D01*
X20847743Y-32839000D01*
X21062257Y-32839000D01*
X21272650Y-32797150D01*
X21470835Y-32715059D01*
X21649197Y-32595881D01*
X21800881Y-32444197D01*
X21920059Y-32265835D01*
X22002150Y-32067650D01*
X22044000Y-31857257D01*
X22044000Y-31642743D01*
X23676000Y-31642743D01*
X23676000Y-31857257D01*
X23717850Y-32067650D01*
X23799941Y-32265835D01*
X23919119Y-32444197D01*
X24070803Y-32595881D01*
X24249165Y-32715059D01*
X24447350Y-32797150D01*
X24657743Y-32839000D01*
X24872257Y-32839000D01*
X25082650Y-32797150D01*
X25280835Y-32715059D01*
X25459197Y-32595881D01*
X25516750Y-32538328D01*
X31686475Y-32538328D01*
X31762316Y-32715083D01*
X31962560Y-32818019D01*
X32179037Y-32879911D01*
X32403429Y-32898382D01*
X32627113Y-32872720D01*
X32841493Y-32803914D01*
X33007684Y-32715083D01*
X33083525Y-32538328D01*
X35496475Y-32538328D01*
X35572316Y-32715083D01*
X35772560Y-32818019D01*
X35989037Y-32879911D01*
X36213429Y-32898382D01*
X36437113Y-32872720D01*
X36651493Y-32803914D01*
X36817684Y-32715083D01*
X36893525Y-32538328D01*
X36195000Y-31839803D01*
X35496475Y-32538328D01*
X33083525Y-32538328D01*
X32385000Y-31839803D01*
X31686475Y-32538328D01*
X25516750Y-32538328D01*
X25610881Y-32444197D01*
X25730059Y-32265835D01*
X25812150Y-32067650D01*
X25854000Y-31857257D01*
X25854000Y-31768429D01*
X31236618Y-31768429D01*
X31262280Y-31992113D01*
X31331086Y-32206493D01*
X31419917Y-32372684D01*
X31596672Y-32448525D01*
X32295197Y-31750000D01*
X32474803Y-31750000D01*
X33173328Y-32448525D01*
X33350083Y-32372684D01*
X33453019Y-32172440D01*
X33514911Y-31955963D01*
X33530348Y-31768429D01*
X35046618Y-31768429D01*
X35072280Y-31992113D01*
X35141086Y-32206493D01*
X35229917Y-32372684D01*
X35406672Y-32448525D01*
X36105197Y-31750000D01*
X36284803Y-31750000D01*
X36983328Y-32448525D01*
X37160083Y-32372684D01*
X37263019Y-32172440D01*
X37324911Y-31955963D01*
X37343382Y-31731571D01*
X37317720Y-31507887D01*
X37248914Y-31293507D01*
X37160083Y-31127316D01*
X36983328Y-31051475D01*
X36284803Y-31750000D01*
X36105197Y-31750000D01*
X35406672Y-31051475D01*
X35229917Y-31127316D01*
X35126981Y-31327560D01*
X35065089Y-31544037D01*
X35046618Y-31768429D01*
X33530348Y-31768429D01*
X33533382Y-31731571D01*
X33507720Y-31507887D01*
X33438914Y-31293507D01*
X33350083Y-31127316D01*
X33173328Y-31051475D01*
X32474803Y-31750000D01*
X32295197Y-31750000D01*
X31596672Y-31051475D01*
X31419917Y-31127316D01*
X31316981Y-31327560D01*
X31255089Y-31544037D01*
X31236618Y-31768429D01*
X25854000Y-31768429D01*
X25854000Y-31642743D01*
X25812150Y-31432350D01*
X25730059Y-31234165D01*
X25610881Y-31055803D01*
X25516750Y-30961672D01*
X31686475Y-30961672D01*
X32385000Y-31660197D01*
X33083525Y-30961672D01*
X35496475Y-30961672D01*
X36195000Y-31660197D01*
X36893525Y-30961672D01*
X36817684Y-30784917D01*
X36617440Y-30681981D01*
X36400963Y-30620089D01*
X36176571Y-30601618D01*
X35952887Y-30627280D01*
X35738507Y-30696086D01*
X35572316Y-30784917D01*
X35496475Y-30961672D01*
X33083525Y-30961672D01*
X33007684Y-30784917D01*
X32807440Y-30681981D01*
X32590963Y-30620089D01*
X32366571Y-30601618D01*
X32142887Y-30627280D01*
X31928507Y-30696086D01*
X31762316Y-30784917D01*
X31686475Y-30961672D01*
X25516750Y-30961672D01*
X25459197Y-30904119D01*
X25280835Y-30784941D01*
X25082650Y-30702850D01*
X24872257Y-30661000D01*
X24657743Y-30661000D01*
X24447350Y-30702850D01*
X24249165Y-30784941D01*
X24070803Y-30904119D01*
X23919119Y-31055803D01*
X23799941Y-31234165D01*
X23717850Y-31432350D01*
X23676000Y-31642743D01*
X22044000Y-31642743D01*
X22002150Y-31432350D01*
X21920059Y-31234165D01*
X21800881Y-31055803D01*
X21649197Y-30904119D01*
X21470835Y-30784941D01*
X21272650Y-30702850D01*
X21062257Y-30661000D01*
X20847743Y-30661000D01*
X20637350Y-30702850D01*
X20439165Y-30784941D01*
X20260803Y-30904119D01*
X20109119Y-31055803D01*
X19989941Y-31234165D01*
X19907850Y-31432350D01*
X19866000Y-31642743D01*
X19305270Y-31642743D01*
X19305270Y-29102743D01*
X19866000Y-29102743D01*
X19866000Y-29317257D01*
X19907850Y-29527650D01*
X19989941Y-29725835D01*
X20109119Y-29904197D01*
X20260803Y-30055881D01*
X20439165Y-30175059D01*
X20637350Y-30257150D01*
X20847743Y-30299000D01*
X21062257Y-30299000D01*
X21272650Y-30257150D01*
X21470835Y-30175059D01*
X21649197Y-30055881D01*
X21800881Y-29904197D01*
X21920059Y-29725835D01*
X22002150Y-29527650D01*
X22044000Y-29317257D01*
X22044000Y-29102743D01*
X23676000Y-29102743D01*
X23676000Y-29317257D01*
X23717850Y-29527650D01*
X23799941Y-29725835D01*
X23919119Y-29904197D01*
X24070803Y-30055881D01*
X24249165Y-30175059D01*
X24447350Y-30257150D01*
X24657743Y-30299000D01*
X24872257Y-30299000D01*
X25082650Y-30257150D01*
X25280835Y-30175059D01*
X25459197Y-30055881D01*
X25610881Y-29904197D01*
X25730059Y-29725835D01*
X25812150Y-29527650D01*
X25854000Y-29317257D01*
X25854000Y-29102743D01*
X31296000Y-29102743D01*
X31296000Y-29317257D01*
X31337850Y-29527650D01*
X31419941Y-29725835D01*
X31539119Y-29904197D01*
X31690803Y-30055881D01*
X31869165Y-30175059D01*
X32067350Y-30257150D01*
X32277743Y-30299000D01*
X32492257Y-30299000D01*
X32702650Y-30257150D01*
X32900835Y-30175059D01*
X33079197Y-30055881D01*
X33230881Y-29904197D01*
X33350059Y-29725835D01*
X33432150Y-29527650D01*
X33474000Y-29317257D01*
X33474000Y-29102743D01*
X35106000Y-29102743D01*
X35106000Y-29317257D01*
X35147850Y-29527650D01*
X35229941Y-29725835D01*
X35349119Y-29904197D01*
X35500803Y-30055881D01*
X35679165Y-30175059D01*
X35877350Y-30257150D01*
X36087743Y-30299000D01*
X36302257Y-30299000D01*
X36512650Y-30257150D01*
X36710835Y-30175059D01*
X36889197Y-30055881D01*
X37040881Y-29904197D01*
X37160059Y-29725835D01*
X37242150Y-29527650D01*
X37284000Y-29317257D01*
X37284000Y-29102743D01*
X37242150Y-28892350D01*
X37160059Y-28694165D01*
X37040881Y-28515803D01*
X36889197Y-28364119D01*
X36710835Y-28244941D01*
X36512650Y-28162850D01*
X36302257Y-28121000D01*
X36087743Y-28121000D01*
X35877350Y-28162850D01*
X35679165Y-28244941D01*
X35500803Y-28364119D01*
X35349119Y-28515803D01*
X35229941Y-28694165D01*
X35147850Y-28892350D01*
X35106000Y-29102743D01*
X33474000Y-29102743D01*
X33432150Y-28892350D01*
X33350059Y-28694165D01*
X33230881Y-28515803D01*
X33079197Y-28364119D01*
X32900835Y-28244941D01*
X32702650Y-28162850D01*
X32492257Y-28121000D01*
X32277743Y-28121000D01*
X32067350Y-28162850D01*
X31869165Y-28244941D01*
X31690803Y-28364119D01*
X31539119Y-28515803D01*
X31419941Y-28694165D01*
X31337850Y-28892350D01*
X31296000Y-29102743D01*
X25854000Y-29102743D01*
X25812150Y-28892350D01*
X25730059Y-28694165D01*
X25610881Y-28515803D01*
X25459197Y-28364119D01*
X25280835Y-28244941D01*
X25082650Y-28162850D01*
X24872257Y-28121000D01*
X24657743Y-28121000D01*
X24447350Y-28162850D01*
X24249165Y-28244941D01*
X24070803Y-28364119D01*
X23919119Y-28515803D01*
X23799941Y-28694165D01*
X23717850Y-28892350D01*
X23676000Y-29102743D01*
X22044000Y-29102743D01*
X22002150Y-28892350D01*
X21920059Y-28694165D01*
X21800881Y-28515803D01*
X21649197Y-28364119D01*
X21470835Y-28244941D01*
X21272650Y-28162850D01*
X21062257Y-28121000D01*
X20847743Y-28121000D01*
X20637350Y-28162850D01*
X20439165Y-28244941D01*
X20260803Y-28364119D01*
X20109119Y-28515803D01*
X19989941Y-28694165D01*
X19907850Y-28892350D01*
X19866000Y-29102743D01*
X19305270Y-29102743D01*
X19305270Y-26562743D01*
X19866000Y-26562743D01*
X19866000Y-26777257D01*
X19907850Y-26987650D01*
X19989941Y-27185835D01*
X20109119Y-27364197D01*
X20260803Y-27515881D01*
X20439165Y-27635059D01*
X20637350Y-27717150D01*
X20847743Y-27759000D01*
X21062257Y-27759000D01*
X21272650Y-27717150D01*
X21470835Y-27635059D01*
X21649197Y-27515881D01*
X21800881Y-27364197D01*
X21920059Y-27185835D01*
X22002150Y-26987650D01*
X22044000Y-26777257D01*
X22044000Y-26562743D01*
X22002150Y-26352350D01*
X21920059Y-26154165D01*
X21800881Y-25975803D01*
X21733078Y-25908000D01*
X23674418Y-25908000D01*
X23674418Y-27432000D01*
X23680732Y-27496103D01*
X23699430Y-27557743D01*
X23729794Y-27614550D01*
X23770657Y-27664343D01*
X23820450Y-27705206D01*
X23877257Y-27735570D01*
X23938897Y-27754268D01*
X24003000Y-27760582D01*
X25527000Y-27760582D01*
X25591103Y-27754268D01*
X25652743Y-27735570D01*
X25709550Y-27705206D01*
X25759343Y-27664343D01*
X25800206Y-27614550D01*
X25830570Y-27557743D01*
X25849268Y-27496103D01*
X25855582Y-27432000D01*
X25855582Y-26562743D01*
X31296000Y-26562743D01*
X31296000Y-26777257D01*
X31337850Y-26987650D01*
X31419941Y-27185835D01*
X31539119Y-27364197D01*
X31690803Y-27515881D01*
X31869165Y-27635059D01*
X32067350Y-27717150D01*
X32277743Y-27759000D01*
X32492257Y-27759000D01*
X32702650Y-27717150D01*
X32900835Y-27635059D01*
X33079197Y-27515881D01*
X33136750Y-27458328D01*
X35496475Y-27458328D01*
X35572316Y-27635083D01*
X35772560Y-27738019D01*
X35989037Y-27799911D01*
X36213429Y-27818382D01*
X36437113Y-27792720D01*
X36651493Y-27723914D01*
X36817684Y-27635083D01*
X36893525Y-27458328D01*
X36195000Y-26759803D01*
X35496475Y-27458328D01*
X33136750Y-27458328D01*
X33230881Y-27364197D01*
X33350059Y-27185835D01*
X33432150Y-26987650D01*
X33474000Y-26777257D01*
X33474000Y-26688429D01*
X35046618Y-26688429D01*
X35072280Y-26912113D01*
X35141086Y-27126493D01*
X35229917Y-27292684D01*
X35406672Y-27368525D01*
X36105197Y-26670000D01*
X36284803Y-26670000D01*
X36983328Y-27368525D01*
X37160083Y-27292684D01*
X37263019Y-27092440D01*
X37324911Y-26875963D01*
X37343382Y-26651571D01*
X37317720Y-26427887D01*
X37248914Y-26213507D01*
X37160083Y-26047316D01*
X36983328Y-25971475D01*
X36284803Y-26670000D01*
X36105197Y-26670000D01*
X35406672Y-25971475D01*
X35229917Y-26047316D01*
X35126981Y-26247560D01*
X35065089Y-26464037D01*
X35046618Y-26688429D01*
X33474000Y-26688429D01*
X33474000Y-26562743D01*
X33432150Y-26352350D01*
X33350059Y-26154165D01*
X33230881Y-25975803D01*
X33136750Y-25881672D01*
X35496475Y-25881672D01*
X36195000Y-26580197D01*
X36893525Y-25881672D01*
X36817684Y-25704917D01*
X36617440Y-25601981D01*
X36400963Y-25540089D01*
X36176571Y-25521618D01*
X35952887Y-25547280D01*
X35738507Y-25616086D01*
X35572316Y-25704917D01*
X35496475Y-25881672D01*
X33136750Y-25881672D01*
X33079197Y-25824119D01*
X32900835Y-25704941D01*
X32702650Y-25622850D01*
X32492257Y-25581000D01*
X32277743Y-25581000D01*
X32067350Y-25622850D01*
X31869165Y-25704941D01*
X31690803Y-25824119D01*
X31539119Y-25975803D01*
X31419941Y-26154165D01*
X31337850Y-26352350D01*
X31296000Y-26562743D01*
X25855582Y-26562743D01*
X25855582Y-25908000D01*
X25849268Y-25843897D01*
X25830570Y-25782257D01*
X25800206Y-25725450D01*
X25759343Y-25675657D01*
X25709550Y-25634794D01*
X25652743Y-25604430D01*
X25591103Y-25585732D01*
X25527000Y-25579418D01*
X24003000Y-25579418D01*
X23938897Y-25585732D01*
X23877257Y-25604430D01*
X23820450Y-25634794D01*
X23770657Y-25675657D01*
X23729794Y-25725450D01*
X23699430Y-25782257D01*
X23680732Y-25843897D01*
X23674418Y-25908000D01*
X21733078Y-25908000D01*
X21649197Y-25824119D01*
X21470835Y-25704941D01*
X21272650Y-25622850D01*
X21062257Y-25581000D01*
X20847743Y-25581000D01*
X20637350Y-25622850D01*
X20439165Y-25704941D01*
X20260803Y-25824119D01*
X20109119Y-25975803D01*
X19989941Y-26154165D01*
X19907850Y-26352350D01*
X19866000Y-26562743D01*
X19305270Y-26562743D01*
X19305270Y-24022743D01*
X19866000Y-24022743D01*
X19866000Y-24237257D01*
X19907850Y-24447650D01*
X19989941Y-24645835D01*
X20109119Y-24824197D01*
X20260803Y-24975881D01*
X20439165Y-25095059D01*
X20637350Y-25177150D01*
X20847743Y-25219000D01*
X21062257Y-25219000D01*
X21272650Y-25177150D01*
X21470835Y-25095059D01*
X21649197Y-24975881D01*
X21706750Y-24918328D01*
X35496475Y-24918328D01*
X35572316Y-25095083D01*
X35772560Y-25198019D01*
X35989037Y-25259911D01*
X36213429Y-25278382D01*
X36437113Y-25252720D01*
X36651493Y-25183914D01*
X36817684Y-25095083D01*
X36893525Y-24918328D01*
X36195000Y-24219803D01*
X35496475Y-24918328D01*
X21706750Y-24918328D01*
X21800881Y-24824197D01*
X21920059Y-24645835D01*
X22002150Y-24447650D01*
X22044000Y-24237257D01*
X22044000Y-24148429D01*
X35046618Y-24148429D01*
X35072280Y-24372113D01*
X35141086Y-24586493D01*
X35229917Y-24752684D01*
X35406672Y-24828525D01*
X36105197Y-24130000D01*
X36284803Y-24130000D01*
X36983328Y-24828525D01*
X37160083Y-24752684D01*
X37263019Y-24552440D01*
X37324911Y-24335963D01*
X37343382Y-24111571D01*
X37317720Y-23887887D01*
X37248914Y-23673507D01*
X37160083Y-23507316D01*
X36983328Y-23431475D01*
X36284803Y-24130000D01*
X36105197Y-24130000D01*
X35406672Y-23431475D01*
X35229917Y-23507316D01*
X35126981Y-23707560D01*
X35065089Y-23924037D01*
X35046618Y-24148429D01*
X22044000Y-24148429D01*
X22044000Y-24022743D01*
X22002150Y-23812350D01*
X21920059Y-23614165D01*
X21800881Y-23435803D01*
X21706750Y-23341672D01*
X35496475Y-23341672D01*
X36195000Y-24040197D01*
X36893525Y-23341672D01*
X36817684Y-23164917D01*
X36617440Y-23061981D01*
X36400963Y-23000089D01*
X36176571Y-22981618D01*
X35952887Y-23007280D01*
X35738507Y-23076086D01*
X35572316Y-23164917D01*
X35496475Y-23341672D01*
X21706750Y-23341672D01*
X21649197Y-23284119D01*
X21470835Y-23164941D01*
X21272650Y-23082850D01*
X21062257Y-23041000D01*
X20847743Y-23041000D01*
X20637350Y-23082850D01*
X20439165Y-23164941D01*
X20260803Y-23284119D01*
X20109119Y-23435803D01*
X19989941Y-23614165D01*
X19907850Y-23812350D01*
X19866000Y-24022743D01*
X19305270Y-24022743D01*
X19305270Y-20828000D01*
X19864418Y-20828000D01*
X19864418Y-22352000D01*
X19870732Y-22416103D01*
X19889430Y-22477743D01*
X19919794Y-22534550D01*
X19960657Y-22584343D01*
X20010450Y-22625206D01*
X20067257Y-22655570D01*
X20128897Y-22674268D01*
X20193000Y-22680582D01*
X21717000Y-22680582D01*
X21781103Y-22674268D01*
X21842743Y-22655570D01*
X21899550Y-22625206D01*
X21949343Y-22584343D01*
X21990206Y-22534550D01*
X22020570Y-22477743D01*
X22039268Y-22416103D01*
X22045582Y-22352000D01*
X22045582Y-21482743D01*
X35106000Y-21482743D01*
X35106000Y-21697257D01*
X35147850Y-21907650D01*
X35229941Y-22105835D01*
X35349119Y-22284197D01*
X35500803Y-22435881D01*
X35679165Y-22555059D01*
X35877350Y-22637150D01*
X36087743Y-22679000D01*
X36302257Y-22679000D01*
X36512650Y-22637150D01*
X36710835Y-22555059D01*
X36889197Y-22435881D01*
X37040881Y-22284197D01*
X37160059Y-22105835D01*
X37242150Y-21907650D01*
X37284000Y-21697257D01*
X37284000Y-21482743D01*
X37242150Y-21272350D01*
X37160059Y-21074165D01*
X37040881Y-20895803D01*
X36889197Y-20744119D01*
X36710835Y-20624941D01*
X36512650Y-20542850D01*
X36302257Y-20501000D01*
X36087743Y-20501000D01*
X35877350Y-20542850D01*
X35679165Y-20624941D01*
X35500803Y-20744119D01*
X35349119Y-20895803D01*
X35229941Y-21074165D01*
X35147850Y-21272350D01*
X35106000Y-21482743D01*
X22045582Y-21482743D01*
X22045582Y-20828000D01*
X22039268Y-20763897D01*
X22020570Y-20702257D01*
X21990206Y-20645450D01*
X21949343Y-20595657D01*
X21899550Y-20554794D01*
X21842743Y-20524430D01*
X21781103Y-20505732D01*
X21717000Y-20499418D01*
X20193000Y-20499418D01*
X20128897Y-20505732D01*
X20067257Y-20524430D01*
X20010450Y-20554794D01*
X19960657Y-20595657D01*
X19919794Y-20645450D01*
X19889430Y-20702257D01*
X19870732Y-20763897D01*
X19864418Y-20828000D01*
X19305270Y-20828000D01*
X19305270Y-19940270D01*
X37844731Y-19940270D01*
X37844730Y-51179730D01*
G37*
X37844730Y-51179730D02*
X19305270Y-51179730D01*
X19305270Y-50318328D01*
X20256475Y-50318328D01*
X20332316Y-50495083D01*
X20532560Y-50598019D01*
X20749037Y-50659911D01*
X20973429Y-50678382D01*
X21197113Y-50652720D01*
X21411493Y-50583914D01*
X21577684Y-50495083D01*
X21653525Y-50318328D01*
X20955000Y-49619803D01*
X20256475Y-50318328D01*
X19305270Y-50318328D01*
X19305270Y-49548429D01*
X19806618Y-49548429D01*
X19832280Y-49772113D01*
X19901086Y-49986493D01*
X19989917Y-50152684D01*
X20166672Y-50228525D01*
X20865197Y-49530000D01*
X21044803Y-49530000D01*
X21743328Y-50228525D01*
X21920083Y-50152684D01*
X22023019Y-49952440D01*
X22084911Y-49735963D01*
X22103382Y-49511571D01*
X22093192Y-49422743D01*
X35106000Y-49422743D01*
X35106000Y-49637257D01*
X35147850Y-49847650D01*
X35229941Y-50045835D01*
X35349119Y-50224197D01*
X35500803Y-50375881D01*
X35679165Y-50495059D01*
X35877350Y-50577150D01*
X36087743Y-50619000D01*
X36302257Y-50619000D01*
X36512650Y-50577150D01*
X36710835Y-50495059D01*
X36889197Y-50375881D01*
X37040881Y-50224197D01*
X37160059Y-50045835D01*
X37242150Y-49847650D01*
X37284000Y-49637257D01*
X37284000Y-49422743D01*
X37242150Y-49212350D01*
X37160059Y-49014165D01*
X37040881Y-48835803D01*
X36889197Y-48684119D01*
X36710835Y-48564941D01*
X36512650Y-48482850D01*
X36302257Y-48441000D01*
X36087743Y-48441000D01*
X35877350Y-48482850D01*
X35679165Y-48564941D01*
X35500803Y-48684119D01*
X35349119Y-48835803D01*
X35229941Y-49014165D01*
X35147850Y-49212350D01*
X35106000Y-49422743D01*
X22093192Y-49422743D01*
X22077720Y-49287887D01*
X22008914Y-49073507D01*
X21920083Y-48907316D01*
X21743328Y-48831475D01*
X21044803Y-49530000D01*
X20865197Y-49530000D01*
X20166672Y-48831475D01*
X19989917Y-48907316D01*
X19886981Y-49107560D01*
X19825089Y-49324037D01*
X19806618Y-49548429D01*
X19305270Y-49548429D01*
X19305270Y-48741672D01*
X20256475Y-48741672D01*
X20955000Y-49440197D01*
X21653525Y-48741672D01*
X21577684Y-48564917D01*
X21377440Y-48461981D01*
X21160963Y-48400089D01*
X20936571Y-48381618D01*
X20712887Y-48407280D01*
X20498507Y-48476086D01*
X20332316Y-48564917D01*
X20256475Y-48741672D01*
X19305270Y-48741672D01*
X19305270Y-46882743D01*
X19866000Y-46882743D01*
X19866000Y-47097257D01*
X19907850Y-47307650D01*
X19989941Y-47505835D01*
X20109119Y-47684197D01*
X20260803Y-47835881D01*
X20439165Y-47955059D01*
X20637350Y-48037150D01*
X20847743Y-48079000D01*
X21062257Y-48079000D01*
X21272650Y-48037150D01*
X21470835Y-47955059D01*
X21649197Y-47835881D01*
X21800881Y-47684197D01*
X21920059Y-47505835D01*
X22002150Y-47307650D01*
X22044000Y-47097257D01*
X22044000Y-46882743D01*
X35106000Y-46882743D01*
X35106000Y-47097257D01*
X35147850Y-47307650D01*
X35229941Y-47505835D01*
X35349119Y-47684197D01*
X35500803Y-47835881D01*
X35679165Y-47955059D01*
X35877350Y-48037150D01*
X36087743Y-48079000D01*
X36302257Y-48079000D01*
X36512650Y-48037150D01*
X36710835Y-47955059D01*
X36889197Y-47835881D01*
X37040881Y-47684197D01*
X37160059Y-47505835D01*
X37242150Y-47307650D01*
X37284000Y-47097257D01*
X37284000Y-46882743D01*
X37242150Y-46672350D01*
X37160059Y-46474165D01*
X37040881Y-46295803D01*
X36889197Y-46144119D01*
X36710835Y-46024941D01*
X36512650Y-45942850D01*
X36302257Y-45901000D01*
X36087743Y-45901000D01*
X35877350Y-45942850D01*
X35679165Y-46024941D01*
X35500803Y-46144119D01*
X35349119Y-46295803D01*
X35229941Y-46474165D01*
X35147850Y-46672350D01*
X35106000Y-46882743D01*
X22044000Y-46882743D01*
X22002150Y-46672350D01*
X21920059Y-46474165D01*
X21800881Y-46295803D01*
X21649197Y-46144119D01*
X21470835Y-46024941D01*
X21272650Y-45942850D01*
X21062257Y-45901000D01*
X20847743Y-45901000D01*
X20637350Y-45942850D01*
X20439165Y-46024941D01*
X20260803Y-46144119D01*
X20109119Y-46295803D01*
X19989941Y-46474165D01*
X19907850Y-46672350D01*
X19866000Y-46882743D01*
X19305270Y-46882743D01*
X19305270Y-44342743D01*
X19866000Y-44342743D01*
X19866000Y-44557257D01*
X19907850Y-44767650D01*
X19989941Y-44965835D01*
X20109119Y-45144197D01*
X20260803Y-45295881D01*
X20439165Y-45415059D01*
X20637350Y-45497150D01*
X20847743Y-45539000D01*
X21062257Y-45539000D01*
X21272650Y-45497150D01*
X21470835Y-45415059D01*
X21649197Y-45295881D01*
X21706750Y-45238328D01*
X24066475Y-45238328D01*
X24142316Y-45415083D01*
X24342560Y-45518019D01*
X24559037Y-45579911D01*
X24783429Y-45598382D01*
X25007113Y-45572720D01*
X25221493Y-45503914D01*
X25387684Y-45415083D01*
X25463525Y-45238328D01*
X24765000Y-44539803D01*
X24066475Y-45238328D01*
X21706750Y-45238328D01*
X21800881Y-45144197D01*
X21920059Y-44965835D01*
X22002150Y-44767650D01*
X22044000Y-44557257D01*
X22044000Y-44468429D01*
X23616618Y-44468429D01*
X23642280Y-44692113D01*
X23711086Y-44906493D01*
X23799917Y-45072684D01*
X23976672Y-45148525D01*
X24675197Y-44450000D01*
X24854803Y-44450000D01*
X25553328Y-45148525D01*
X25730083Y-45072684D01*
X25833019Y-44872440D01*
X25894911Y-44655963D01*
X25913382Y-44431571D01*
X25903192Y-44342743D01*
X31296000Y-44342743D01*
X31296000Y-44557257D01*
X31337850Y-44767650D01*
X31419941Y-44965835D01*
X31539119Y-45144197D01*
X31690803Y-45295881D01*
X31869165Y-45415059D01*
X32067350Y-45497150D01*
X32277743Y-45539000D01*
X32492257Y-45539000D01*
X32702650Y-45497150D01*
X32900835Y-45415059D01*
X33079197Y-45295881D01*
X33230881Y-45144197D01*
X33350059Y-44965835D01*
X33432150Y-44767650D01*
X33474000Y-44557257D01*
X33474000Y-44342743D01*
X35106000Y-44342743D01*
X35106000Y-44557257D01*
X35147850Y-44767650D01*
X35229941Y-44965835D01*
X35349119Y-45144197D01*
X35500803Y-45295881D01*
X35679165Y-45415059D01*
X35877350Y-45497150D01*
X36087743Y-45539000D01*
X36302257Y-45539000D01*
X36512650Y-45497150D01*
X36710835Y-45415059D01*
X36889197Y-45295881D01*
X37040881Y-45144197D01*
X37160059Y-44965835D01*
X37242150Y-44767650D01*
X37284000Y-44557257D01*
X37284000Y-44342743D01*
X37242150Y-44132350D01*
X37160059Y-43934165D01*
X37040881Y-43755803D01*
X36889197Y-43604119D01*
X36710835Y-43484941D01*
X36512650Y-43402850D01*
X36302257Y-43361000D01*
X36087743Y-43361000D01*
X35877350Y-43402850D01*
X35679165Y-43484941D01*
X35500803Y-43604119D01*
X35349119Y-43755803D01*
X35229941Y-43934165D01*
X35147850Y-44132350D01*
X35106000Y-44342743D01*
X33474000Y-44342743D01*
X33432150Y-44132350D01*
X33350059Y-43934165D01*
X33230881Y-43755803D01*
X33079197Y-43604119D01*
X32900835Y-43484941D01*
X32702650Y-43402850D01*
X32492257Y-43361000D01*
X32277743Y-43361000D01*
X32067350Y-43402850D01*
X31869165Y-43484941D01*
X31690803Y-43604119D01*
X31539119Y-43755803D01*
X31419941Y-43934165D01*
X31337850Y-44132350D01*
X31296000Y-44342743D01*
X25903192Y-44342743D01*
X25887720Y-44207887D01*
X25818914Y-43993507D01*
X25730083Y-43827316D01*
X25553328Y-43751475D01*
X24854803Y-44450000D01*
X24675197Y-44450000D01*
X23976672Y-43751475D01*
X23799917Y-43827316D01*
X23696981Y-44027560D01*
X23635089Y-44244037D01*
X23616618Y-44468429D01*
X22044000Y-44468429D01*
X22044000Y-44342743D01*
X22002150Y-44132350D01*
X21920059Y-43934165D01*
X21800881Y-43755803D01*
X21706750Y-43661672D01*
X24066475Y-43661672D01*
X24765000Y-44360197D01*
X25463525Y-43661672D01*
X25387684Y-43484917D01*
X25187440Y-43381981D01*
X24970963Y-43320089D01*
X24746571Y-43301618D01*
X24522887Y-43327280D01*
X24308507Y-43396086D01*
X24142316Y-43484917D01*
X24066475Y-43661672D01*
X21706750Y-43661672D01*
X21649197Y-43604119D01*
X21470835Y-43484941D01*
X21272650Y-43402850D01*
X21062257Y-43361000D01*
X20847743Y-43361000D01*
X20637350Y-43402850D01*
X20439165Y-43484941D01*
X20260803Y-43604119D01*
X20109119Y-43755803D01*
X19989941Y-43934165D01*
X19907850Y-44132350D01*
X19866000Y-44342743D01*
X19305270Y-44342743D01*
X19305270Y-41802743D01*
X19866000Y-41802743D01*
X19866000Y-42017257D01*
X19907850Y-42227650D01*
X19989941Y-42425835D01*
X20109119Y-42604197D01*
X20260803Y-42755881D01*
X20439165Y-42875059D01*
X20637350Y-42957150D01*
X20847743Y-42999000D01*
X21062257Y-42999000D01*
X21272650Y-42957150D01*
X21470835Y-42875059D01*
X21649197Y-42755881D01*
X21800881Y-42604197D01*
X21920059Y-42425835D01*
X22002150Y-42227650D01*
X22044000Y-42017257D01*
X22044000Y-41802743D01*
X23676000Y-41802743D01*
X23676000Y-42017257D01*
X23717850Y-42227650D01*
X23799941Y-42425835D01*
X23919119Y-42604197D01*
X24070803Y-42755881D01*
X24249165Y-42875059D01*
X24447350Y-42957150D01*
X24657743Y-42999000D01*
X24872257Y-42999000D01*
X25082650Y-42957150D01*
X25280835Y-42875059D01*
X25459197Y-42755881D01*
X25610881Y-42604197D01*
X25730059Y-42425835D01*
X25812150Y-42227650D01*
X25854000Y-42017257D01*
X25854000Y-41802743D01*
X31296000Y-41802743D01*
X31296000Y-42017257D01*
X31337850Y-42227650D01*
X31419941Y-42425835D01*
X31539119Y-42604197D01*
X31690803Y-42755881D01*
X31869165Y-42875059D01*
X32067350Y-42957150D01*
X32277743Y-42999000D01*
X32492257Y-42999000D01*
X32702650Y-42957150D01*
X32900835Y-42875059D01*
X33079197Y-42755881D01*
X33230881Y-42604197D01*
X33350059Y-42425835D01*
X33432150Y-42227650D01*
X33474000Y-42017257D01*
X33474000Y-41802743D01*
X35106000Y-41802743D01*
X35106000Y-42017257D01*
X35147850Y-42227650D01*
X35229941Y-42425835D01*
X35349119Y-42604197D01*
X35500803Y-42755881D01*
X35679165Y-42875059D01*
X35877350Y-42957150D01*
X36087743Y-42999000D01*
X36302257Y-42999000D01*
X36512650Y-42957150D01*
X36710835Y-42875059D01*
X36889197Y-42755881D01*
X37040881Y-42604197D01*
X37160059Y-42425835D01*
X37242150Y-42227650D01*
X37284000Y-42017257D01*
X37284000Y-41802743D01*
X37242150Y-41592350D01*
X37160059Y-41394165D01*
X37040881Y-41215803D01*
X36889197Y-41064119D01*
X36710835Y-40944941D01*
X36512650Y-40862850D01*
X36302257Y-40821000D01*
X36087743Y-40821000D01*
X35877350Y-40862850D01*
X35679165Y-40944941D01*
X35500803Y-41064119D01*
X35349119Y-41215803D01*
X35229941Y-41394165D01*
X35147850Y-41592350D01*
X35106000Y-41802743D01*
X33474000Y-41802743D01*
X33432150Y-41592350D01*
X33350059Y-41394165D01*
X33230881Y-41215803D01*
X33079197Y-41064119D01*
X32900835Y-40944941D01*
X32702650Y-40862850D01*
X32492257Y-40821000D01*
X32277743Y-40821000D01*
X32067350Y-40862850D01*
X31869165Y-40944941D01*
X31690803Y-41064119D01*
X31539119Y-41215803D01*
X31419941Y-41394165D01*
X31337850Y-41592350D01*
X31296000Y-41802743D01*
X25854000Y-41802743D01*
X25812150Y-41592350D01*
X25730059Y-41394165D01*
X25610881Y-41215803D01*
X25459197Y-41064119D01*
X25280835Y-40944941D01*
X25082650Y-40862850D01*
X24872257Y-40821000D01*
X24657743Y-40821000D01*
X24447350Y-40862850D01*
X24249165Y-40944941D01*
X24070803Y-41064119D01*
X23919119Y-41215803D01*
X23799941Y-41394165D01*
X23717850Y-41592350D01*
X23676000Y-41802743D01*
X22044000Y-41802743D01*
X22002150Y-41592350D01*
X21920059Y-41394165D01*
X21800881Y-41215803D01*
X21649197Y-41064119D01*
X21470835Y-40944941D01*
X21272650Y-40862850D01*
X21062257Y-40821000D01*
X20847743Y-40821000D01*
X20637350Y-40862850D01*
X20439165Y-40944941D01*
X20260803Y-41064119D01*
X20109119Y-41215803D01*
X19989941Y-41394165D01*
X19907850Y-41592350D01*
X19866000Y-41802743D01*
X19305270Y-41802743D01*
X19305270Y-39262743D01*
X19866000Y-39262743D01*
X19866000Y-39477257D01*
X19907850Y-39687650D01*
X19989941Y-39885835D01*
X20109119Y-40064197D01*
X20260803Y-40215881D01*
X20439165Y-40335059D01*
X20637350Y-40417150D01*
X20847743Y-40459000D01*
X21062257Y-40459000D01*
X21272650Y-40417150D01*
X21470835Y-40335059D01*
X21649197Y-40215881D01*
X21800881Y-40064197D01*
X21920059Y-39885835D01*
X22002150Y-39687650D01*
X22044000Y-39477257D01*
X22044000Y-39262743D01*
X22002150Y-39052350D01*
X21920059Y-38854165D01*
X21800881Y-38675803D01*
X21649197Y-38524119D01*
X21470835Y-38404941D01*
X21272650Y-38322850D01*
X21062257Y-38281000D01*
X20847743Y-38281000D01*
X20637350Y-38322850D01*
X20439165Y-38404941D01*
X20260803Y-38524119D01*
X20109119Y-38675803D01*
X19989941Y-38854165D01*
X19907850Y-39052350D01*
X19866000Y-39262743D01*
X19305270Y-39262743D01*
X19305270Y-36722743D01*
X19866000Y-36722743D01*
X19866000Y-36937257D01*
X19907850Y-37147650D01*
X19989941Y-37345835D01*
X20109119Y-37524197D01*
X20260803Y-37675881D01*
X20439165Y-37795059D01*
X20637350Y-37877150D01*
X20847743Y-37919000D01*
X21062257Y-37919000D01*
X21195783Y-37892440D01*
X23063987Y-39760645D01*
X23082183Y-39782817D01*
X23170652Y-39855421D01*
X23271585Y-39909371D01*
X23381104Y-39942593D01*
X23466460Y-39951000D01*
X23466462Y-39951000D01*
X23494999Y-39953811D01*
X23523536Y-39951000D01*
X23843483Y-39951000D01*
X23919119Y-40064197D01*
X24070803Y-40215881D01*
X24249165Y-40335059D01*
X24447350Y-40417150D01*
X24657743Y-40459000D01*
X24872257Y-40459000D01*
X25082650Y-40417150D01*
X25280835Y-40335059D01*
X25459197Y-40215881D01*
X25610881Y-40064197D01*
X25730059Y-39885835D01*
X25812150Y-39687650D01*
X25854000Y-39477257D01*
X25854000Y-39262743D01*
X31296000Y-39262743D01*
X31296000Y-39477257D01*
X31337850Y-39687650D01*
X31419941Y-39885835D01*
X31539119Y-40064197D01*
X31690803Y-40215881D01*
X31869165Y-40335059D01*
X32067350Y-40417150D01*
X32277743Y-40459000D01*
X32492257Y-40459000D01*
X32702650Y-40417150D01*
X32900835Y-40335059D01*
X33079197Y-40215881D01*
X33230881Y-40064197D01*
X33350059Y-39885835D01*
X33432150Y-39687650D01*
X33474000Y-39477257D01*
X33474000Y-39262743D01*
X35106000Y-39262743D01*
X35106000Y-39477257D01*
X35147850Y-39687650D01*
X35229941Y-39885835D01*
X35349119Y-40064197D01*
X35500803Y-40215881D01*
X35679165Y-40335059D01*
X35877350Y-40417150D01*
X36087743Y-40459000D01*
X36302257Y-40459000D01*
X36512650Y-40417150D01*
X36710835Y-40335059D01*
X36889197Y-40215881D01*
X37040881Y-40064197D01*
X37160059Y-39885835D01*
X37242150Y-39687650D01*
X37284000Y-39477257D01*
X37284000Y-39262743D01*
X37242150Y-39052350D01*
X37160059Y-38854165D01*
X37040881Y-38675803D01*
X36889197Y-38524119D01*
X36710835Y-38404941D01*
X36512650Y-38322850D01*
X36302257Y-38281000D01*
X36087743Y-38281000D01*
X35877350Y-38322850D01*
X35679165Y-38404941D01*
X35500803Y-38524119D01*
X35349119Y-38675803D01*
X35229941Y-38854165D01*
X35147850Y-39052350D01*
X35106000Y-39262743D01*
X33474000Y-39262743D01*
X33432150Y-39052350D01*
X33350059Y-38854165D01*
X33230881Y-38675803D01*
X33079197Y-38524119D01*
X32900835Y-38404941D01*
X32702650Y-38322850D01*
X32492257Y-38281000D01*
X32277743Y-38281000D01*
X32067350Y-38322850D01*
X31869165Y-38404941D01*
X31690803Y-38524119D01*
X31539119Y-38675803D01*
X31419941Y-38854165D01*
X31337850Y-39052350D01*
X31296000Y-39262743D01*
X25854000Y-39262743D01*
X25812150Y-39052350D01*
X25730059Y-38854165D01*
X25610881Y-38675803D01*
X25459197Y-38524119D01*
X25280835Y-38404941D01*
X25082650Y-38322850D01*
X24872257Y-38281000D01*
X24657743Y-38281000D01*
X24447350Y-38322850D01*
X24249165Y-38404941D01*
X24070803Y-38524119D01*
X23919119Y-38675803D01*
X23843483Y-38789000D01*
X23735658Y-38789000D01*
X22017440Y-37070783D01*
X22044000Y-36937257D01*
X22044000Y-36722743D01*
X23676000Y-36722743D01*
X23676000Y-36937257D01*
X23717850Y-37147650D01*
X23799941Y-37345835D01*
X23919119Y-37524197D01*
X24070803Y-37675881D01*
X24249165Y-37795059D01*
X24447350Y-37877150D01*
X24657743Y-37919000D01*
X24872257Y-37919000D01*
X25082650Y-37877150D01*
X25280835Y-37795059D01*
X25459197Y-37675881D01*
X25610881Y-37524197D01*
X25730059Y-37345835D01*
X25812150Y-37147650D01*
X25854000Y-36937257D01*
X25854000Y-36722743D01*
X31296000Y-36722743D01*
X31296000Y-36937257D01*
X31337850Y-37147650D01*
X31419941Y-37345835D01*
X31539119Y-37524197D01*
X31690803Y-37675881D01*
X31869165Y-37795059D01*
X32067350Y-37877150D01*
X32277743Y-37919000D01*
X32492257Y-37919000D01*
X32702650Y-37877150D01*
X32900835Y-37795059D01*
X33079197Y-37675881D01*
X33136750Y-37618328D01*
X35496475Y-37618328D01*
X35572316Y-37795083D01*
X35772560Y-37898019D01*
X35989037Y-37959911D01*
X36213429Y-37978382D01*
X36437113Y-37952720D01*
X36651493Y-37883914D01*
X36817684Y-37795083D01*
X36893525Y-37618328D01*
X36195000Y-36919803D01*
X35496475Y-37618328D01*
X33136750Y-37618328D01*
X33230881Y-37524197D01*
X33350059Y-37345835D01*
X33432150Y-37147650D01*
X33474000Y-36937257D01*
X33474000Y-36848429D01*
X35046618Y-36848429D01*
X35072280Y-37072113D01*
X35141086Y-37286493D01*
X35229917Y-37452684D01*
X35406672Y-37528525D01*
X36105197Y-36830000D01*
X36284803Y-36830000D01*
X36983328Y-37528525D01*
X37160083Y-37452684D01*
X37263019Y-37252440D01*
X37324911Y-37035963D01*
X37343382Y-36811571D01*
X37317720Y-36587887D01*
X37248914Y-36373507D01*
X37160083Y-36207316D01*
X36983328Y-36131475D01*
X36284803Y-36830000D01*
X36105197Y-36830000D01*
X35406672Y-36131475D01*
X35229917Y-36207316D01*
X35126981Y-36407560D01*
X35065089Y-36624037D01*
X35046618Y-36848429D01*
X33474000Y-36848429D01*
X33474000Y-36722743D01*
X33432150Y-36512350D01*
X33350059Y-36314165D01*
X33230881Y-36135803D01*
X33136750Y-36041672D01*
X35496475Y-36041672D01*
X36195000Y-36740197D01*
X36893525Y-36041672D01*
X36817684Y-35864917D01*
X36617440Y-35761981D01*
X36400963Y-35700089D01*
X36176571Y-35681618D01*
X35952887Y-35707280D01*
X35738507Y-35776086D01*
X35572316Y-35864917D01*
X35496475Y-36041672D01*
X33136750Y-36041672D01*
X33079197Y-35984119D01*
X32900835Y-35864941D01*
X32702650Y-35782850D01*
X32492257Y-35741000D01*
X32277743Y-35741000D01*
X32067350Y-35782850D01*
X31869165Y-35864941D01*
X31690803Y-35984119D01*
X31539119Y-36135803D01*
X31419941Y-36314165D01*
X31337850Y-36512350D01*
X31296000Y-36722743D01*
X25854000Y-36722743D01*
X25812150Y-36512350D01*
X25730059Y-36314165D01*
X25610881Y-36135803D01*
X25459197Y-35984119D01*
X25280835Y-35864941D01*
X25082650Y-35782850D01*
X24872257Y-35741000D01*
X24657743Y-35741000D01*
X24447350Y-35782850D01*
X24249165Y-35864941D01*
X24070803Y-35984119D01*
X23919119Y-36135803D01*
X23799941Y-36314165D01*
X23717850Y-36512350D01*
X23676000Y-36722743D01*
X22044000Y-36722743D01*
X22002150Y-36512350D01*
X21920059Y-36314165D01*
X21800881Y-36135803D01*
X21649197Y-35984119D01*
X21470835Y-35864941D01*
X21272650Y-35782850D01*
X21062257Y-35741000D01*
X20847743Y-35741000D01*
X20637350Y-35782850D01*
X20439165Y-35864941D01*
X20260803Y-35984119D01*
X20109119Y-36135803D01*
X19989941Y-36314165D01*
X19907850Y-36512350D01*
X19866000Y-36722743D01*
X19305270Y-36722743D01*
X19305270Y-34182743D01*
X19866000Y-34182743D01*
X19866000Y-34397257D01*
X19907850Y-34607650D01*
X19989941Y-34805835D01*
X20109119Y-34984197D01*
X20260803Y-35135881D01*
X20439165Y-35255059D01*
X20637350Y-35337150D01*
X20847743Y-35379000D01*
X21062257Y-35379000D01*
X21272650Y-35337150D01*
X21470835Y-35255059D01*
X21649197Y-35135881D01*
X21800881Y-34984197D01*
X21920059Y-34805835D01*
X22002150Y-34607650D01*
X22044000Y-34397257D01*
X22044000Y-34182743D01*
X23676000Y-34182743D01*
X23676000Y-34397257D01*
X23717850Y-34607650D01*
X23799941Y-34805835D01*
X23919119Y-34984197D01*
X24070803Y-35135881D01*
X24249165Y-35255059D01*
X24447350Y-35337150D01*
X24657743Y-35379000D01*
X24872257Y-35379000D01*
X25082650Y-35337150D01*
X25280835Y-35255059D01*
X25459197Y-35135881D01*
X25516750Y-35078328D01*
X31686475Y-35078328D01*
X31762316Y-35255083D01*
X31962560Y-35358019D01*
X32179037Y-35419911D01*
X32403429Y-35438382D01*
X32627113Y-35412720D01*
X32841493Y-35343914D01*
X33007684Y-35255083D01*
X33083525Y-35078328D01*
X35496475Y-35078328D01*
X35572316Y-35255083D01*
X35772560Y-35358019D01*
X35989037Y-35419911D01*
X36213429Y-35438382D01*
X36437113Y-35412720D01*
X36651493Y-35343914D01*
X36817684Y-35255083D01*
X36893525Y-35078328D01*
X36195000Y-34379803D01*
X35496475Y-35078328D01*
X33083525Y-35078328D01*
X32385000Y-34379803D01*
X31686475Y-35078328D01*
X25516750Y-35078328D01*
X25610881Y-34984197D01*
X25730059Y-34805835D01*
X25812150Y-34607650D01*
X25854000Y-34397257D01*
X25854000Y-34308429D01*
X31236618Y-34308429D01*
X31262280Y-34532113D01*
X31331086Y-34746493D01*
X31419917Y-34912684D01*
X31596672Y-34988525D01*
X32295197Y-34290000D01*
X32474803Y-34290000D01*
X33173328Y-34988525D01*
X33350083Y-34912684D01*
X33453019Y-34712440D01*
X33514911Y-34495963D01*
X33530348Y-34308429D01*
X35046618Y-34308429D01*
X35072280Y-34532113D01*
X35141086Y-34746493D01*
X35229917Y-34912684D01*
X35406672Y-34988525D01*
X36105197Y-34290000D01*
X36284803Y-34290000D01*
X36983328Y-34988525D01*
X37160083Y-34912684D01*
X37263019Y-34712440D01*
X37324911Y-34495963D01*
X37343382Y-34271571D01*
X37317720Y-34047887D01*
X37248914Y-33833507D01*
X37160083Y-33667316D01*
X36983328Y-33591475D01*
X36284803Y-34290000D01*
X36105197Y-34290000D01*
X35406672Y-33591475D01*
X35229917Y-33667316D01*
X35126981Y-33867560D01*
X35065089Y-34084037D01*
X35046618Y-34308429D01*
X33530348Y-34308429D01*
X33533382Y-34271571D01*
X33507720Y-34047887D01*
X33438914Y-33833507D01*
X33350083Y-33667316D01*
X33173328Y-33591475D01*
X32474803Y-34290000D01*
X32295197Y-34290000D01*
X31596672Y-33591475D01*
X31419917Y-33667316D01*
X31316981Y-33867560D01*
X31255089Y-34084037D01*
X31236618Y-34308429D01*
X25854000Y-34308429D01*
X25854000Y-34182743D01*
X25812150Y-33972350D01*
X25730059Y-33774165D01*
X25610881Y-33595803D01*
X25516750Y-33501672D01*
X31686475Y-33501672D01*
X32385000Y-34200197D01*
X33083525Y-33501672D01*
X35496475Y-33501672D01*
X36195000Y-34200197D01*
X36893525Y-33501672D01*
X36817684Y-33324917D01*
X36617440Y-33221981D01*
X36400963Y-33160089D01*
X36176571Y-33141618D01*
X35952887Y-33167280D01*
X35738507Y-33236086D01*
X35572316Y-33324917D01*
X35496475Y-33501672D01*
X33083525Y-33501672D01*
X33007684Y-33324917D01*
X32807440Y-33221981D01*
X32590963Y-33160089D01*
X32366571Y-33141618D01*
X32142887Y-33167280D01*
X31928507Y-33236086D01*
X31762316Y-33324917D01*
X31686475Y-33501672D01*
X25516750Y-33501672D01*
X25459197Y-33444119D01*
X25280835Y-33324941D01*
X25082650Y-33242850D01*
X24872257Y-33201000D01*
X24657743Y-33201000D01*
X24447350Y-33242850D01*
X24249165Y-33324941D01*
X24070803Y-33444119D01*
X23919119Y-33595803D01*
X23799941Y-33774165D01*
X23717850Y-33972350D01*
X23676000Y-34182743D01*
X22044000Y-34182743D01*
X22002150Y-33972350D01*
X21920059Y-33774165D01*
X21800881Y-33595803D01*
X21649197Y-33444119D01*
X21470835Y-33324941D01*
X21272650Y-33242850D01*
X21062257Y-33201000D01*
X20847743Y-33201000D01*
X20637350Y-33242850D01*
X20439165Y-33324941D01*
X20260803Y-33444119D01*
X20109119Y-33595803D01*
X19989941Y-33774165D01*
X19907850Y-33972350D01*
X19866000Y-34182743D01*
X19305270Y-34182743D01*
X19305270Y-31642743D01*
X19866000Y-31642743D01*
X19866000Y-31857257D01*
X19907850Y-32067650D01*
X19989941Y-32265835D01*
X20109119Y-32444197D01*
X20260803Y-32595881D01*
X20439165Y-32715059D01*
X20637350Y-32797150D01*
X20847743Y-32839000D01*
X21062257Y-32839000D01*
X21272650Y-32797150D01*
X21470835Y-32715059D01*
X21649197Y-32595881D01*
X21800881Y-32444197D01*
X21920059Y-32265835D01*
X22002150Y-32067650D01*
X22044000Y-31857257D01*
X22044000Y-31642743D01*
X23676000Y-31642743D01*
X23676000Y-31857257D01*
X23717850Y-32067650D01*
X23799941Y-32265835D01*
X23919119Y-32444197D01*
X24070803Y-32595881D01*
X24249165Y-32715059D01*
X24447350Y-32797150D01*
X24657743Y-32839000D01*
X24872257Y-32839000D01*
X25082650Y-32797150D01*
X25280835Y-32715059D01*
X25459197Y-32595881D01*
X25516750Y-32538328D01*
X31686475Y-32538328D01*
X31762316Y-32715083D01*
X31962560Y-32818019D01*
X32179037Y-32879911D01*
X32403429Y-32898382D01*
X32627113Y-32872720D01*
X32841493Y-32803914D01*
X33007684Y-32715083D01*
X33083525Y-32538328D01*
X35496475Y-32538328D01*
X35572316Y-32715083D01*
X35772560Y-32818019D01*
X35989037Y-32879911D01*
X36213429Y-32898382D01*
X36437113Y-32872720D01*
X36651493Y-32803914D01*
X36817684Y-32715083D01*
X36893525Y-32538328D01*
X36195000Y-31839803D01*
X35496475Y-32538328D01*
X33083525Y-32538328D01*
X32385000Y-31839803D01*
X31686475Y-32538328D01*
X25516750Y-32538328D01*
X25610881Y-32444197D01*
X25730059Y-32265835D01*
X25812150Y-32067650D01*
X25854000Y-31857257D01*
X25854000Y-31768429D01*
X31236618Y-31768429D01*
X31262280Y-31992113D01*
X31331086Y-32206493D01*
X31419917Y-32372684D01*
X31596672Y-32448525D01*
X32295197Y-31750000D01*
X32474803Y-31750000D01*
X33173328Y-32448525D01*
X33350083Y-32372684D01*
X33453019Y-32172440D01*
X33514911Y-31955963D01*
X33530348Y-31768429D01*
X35046618Y-31768429D01*
X35072280Y-31992113D01*
X35141086Y-32206493D01*
X35229917Y-32372684D01*
X35406672Y-32448525D01*
X36105197Y-31750000D01*
X36284803Y-31750000D01*
X36983328Y-32448525D01*
X37160083Y-32372684D01*
X37263019Y-32172440D01*
X37324911Y-31955963D01*
X37343382Y-31731571D01*
X37317720Y-31507887D01*
X37248914Y-31293507D01*
X37160083Y-31127316D01*
X36983328Y-31051475D01*
X36284803Y-31750000D01*
X36105197Y-31750000D01*
X35406672Y-31051475D01*
X35229917Y-31127316D01*
X35126981Y-31327560D01*
X35065089Y-31544037D01*
X35046618Y-31768429D01*
X33530348Y-31768429D01*
X33533382Y-31731571D01*
X33507720Y-31507887D01*
X33438914Y-31293507D01*
X33350083Y-31127316D01*
X33173328Y-31051475D01*
X32474803Y-31750000D01*
X32295197Y-31750000D01*
X31596672Y-31051475D01*
X31419917Y-31127316D01*
X31316981Y-31327560D01*
X31255089Y-31544037D01*
X31236618Y-31768429D01*
X25854000Y-31768429D01*
X25854000Y-31642743D01*
X25812150Y-31432350D01*
X25730059Y-31234165D01*
X25610881Y-31055803D01*
X25516750Y-30961672D01*
X31686475Y-30961672D01*
X32385000Y-31660197D01*
X33083525Y-30961672D01*
X35496475Y-30961672D01*
X36195000Y-31660197D01*
X36893525Y-30961672D01*
X36817684Y-30784917D01*
X36617440Y-30681981D01*
X36400963Y-30620089D01*
X36176571Y-30601618D01*
X35952887Y-30627280D01*
X35738507Y-30696086D01*
X35572316Y-30784917D01*
X35496475Y-30961672D01*
X33083525Y-30961672D01*
X33007684Y-30784917D01*
X32807440Y-30681981D01*
X32590963Y-30620089D01*
X32366571Y-30601618D01*
X32142887Y-30627280D01*
X31928507Y-30696086D01*
X31762316Y-30784917D01*
X31686475Y-30961672D01*
X25516750Y-30961672D01*
X25459197Y-30904119D01*
X25280835Y-30784941D01*
X25082650Y-30702850D01*
X24872257Y-30661000D01*
X24657743Y-30661000D01*
X24447350Y-30702850D01*
X24249165Y-30784941D01*
X24070803Y-30904119D01*
X23919119Y-31055803D01*
X23799941Y-31234165D01*
X23717850Y-31432350D01*
X23676000Y-31642743D01*
X22044000Y-31642743D01*
X22002150Y-31432350D01*
X21920059Y-31234165D01*
X21800881Y-31055803D01*
X21649197Y-30904119D01*
X21470835Y-30784941D01*
X21272650Y-30702850D01*
X21062257Y-30661000D01*
X20847743Y-30661000D01*
X20637350Y-30702850D01*
X20439165Y-30784941D01*
X20260803Y-30904119D01*
X20109119Y-31055803D01*
X19989941Y-31234165D01*
X19907850Y-31432350D01*
X19866000Y-31642743D01*
X19305270Y-31642743D01*
X19305270Y-29102743D01*
X19866000Y-29102743D01*
X19866000Y-29317257D01*
X19907850Y-29527650D01*
X19989941Y-29725835D01*
X20109119Y-29904197D01*
X20260803Y-30055881D01*
X20439165Y-30175059D01*
X20637350Y-30257150D01*
X20847743Y-30299000D01*
X21062257Y-30299000D01*
X21272650Y-30257150D01*
X21470835Y-30175059D01*
X21649197Y-30055881D01*
X21800881Y-29904197D01*
X21920059Y-29725835D01*
X22002150Y-29527650D01*
X22044000Y-29317257D01*
X22044000Y-29102743D01*
X23676000Y-29102743D01*
X23676000Y-29317257D01*
X23717850Y-29527650D01*
X23799941Y-29725835D01*
X23919119Y-29904197D01*
X24070803Y-30055881D01*
X24249165Y-30175059D01*
X24447350Y-30257150D01*
X24657743Y-30299000D01*
X24872257Y-30299000D01*
X25082650Y-30257150D01*
X25280835Y-30175059D01*
X25459197Y-30055881D01*
X25610881Y-29904197D01*
X25730059Y-29725835D01*
X25812150Y-29527650D01*
X25854000Y-29317257D01*
X25854000Y-29102743D01*
X31296000Y-29102743D01*
X31296000Y-29317257D01*
X31337850Y-29527650D01*
X31419941Y-29725835D01*
X31539119Y-29904197D01*
X31690803Y-30055881D01*
X31869165Y-30175059D01*
X32067350Y-30257150D01*
X32277743Y-30299000D01*
X32492257Y-30299000D01*
X32702650Y-30257150D01*
X32900835Y-30175059D01*
X33079197Y-30055881D01*
X33230881Y-29904197D01*
X33350059Y-29725835D01*
X33432150Y-29527650D01*
X33474000Y-29317257D01*
X33474000Y-29102743D01*
X35106000Y-29102743D01*
X35106000Y-29317257D01*
X35147850Y-29527650D01*
X35229941Y-29725835D01*
X35349119Y-29904197D01*
X35500803Y-30055881D01*
X35679165Y-30175059D01*
X35877350Y-30257150D01*
X36087743Y-30299000D01*
X36302257Y-30299000D01*
X36512650Y-30257150D01*
X36710835Y-30175059D01*
X36889197Y-30055881D01*
X37040881Y-29904197D01*
X37160059Y-29725835D01*
X37242150Y-29527650D01*
X37284000Y-29317257D01*
X37284000Y-29102743D01*
X37242150Y-28892350D01*
X37160059Y-28694165D01*
X37040881Y-28515803D01*
X36889197Y-28364119D01*
X36710835Y-28244941D01*
X36512650Y-28162850D01*
X36302257Y-28121000D01*
X36087743Y-28121000D01*
X35877350Y-28162850D01*
X35679165Y-28244941D01*
X35500803Y-28364119D01*
X35349119Y-28515803D01*
X35229941Y-28694165D01*
X35147850Y-28892350D01*
X35106000Y-29102743D01*
X33474000Y-29102743D01*
X33432150Y-28892350D01*
X33350059Y-28694165D01*
X33230881Y-28515803D01*
X33079197Y-28364119D01*
X32900835Y-28244941D01*
X32702650Y-28162850D01*
X32492257Y-28121000D01*
X32277743Y-28121000D01*
X32067350Y-28162850D01*
X31869165Y-28244941D01*
X31690803Y-28364119D01*
X31539119Y-28515803D01*
X31419941Y-28694165D01*
X31337850Y-28892350D01*
X31296000Y-29102743D01*
X25854000Y-29102743D01*
X25812150Y-28892350D01*
X25730059Y-28694165D01*
X25610881Y-28515803D01*
X25459197Y-28364119D01*
X25280835Y-28244941D01*
X25082650Y-28162850D01*
X24872257Y-28121000D01*
X24657743Y-28121000D01*
X24447350Y-28162850D01*
X24249165Y-28244941D01*
X24070803Y-28364119D01*
X23919119Y-28515803D01*
X23799941Y-28694165D01*
X23717850Y-28892350D01*
X23676000Y-29102743D01*
X22044000Y-29102743D01*
X22002150Y-28892350D01*
X21920059Y-28694165D01*
X21800881Y-28515803D01*
X21649197Y-28364119D01*
X21470835Y-28244941D01*
X21272650Y-28162850D01*
X21062257Y-28121000D01*
X20847743Y-28121000D01*
X20637350Y-28162850D01*
X20439165Y-28244941D01*
X20260803Y-28364119D01*
X20109119Y-28515803D01*
X19989941Y-28694165D01*
X19907850Y-28892350D01*
X19866000Y-29102743D01*
X19305270Y-29102743D01*
X19305270Y-26562743D01*
X19866000Y-26562743D01*
X19866000Y-26777257D01*
X19907850Y-26987650D01*
X19989941Y-27185835D01*
X20109119Y-27364197D01*
X20260803Y-27515881D01*
X20439165Y-27635059D01*
X20637350Y-27717150D01*
X20847743Y-27759000D01*
X21062257Y-27759000D01*
X21272650Y-27717150D01*
X21470835Y-27635059D01*
X21649197Y-27515881D01*
X21800881Y-27364197D01*
X21920059Y-27185835D01*
X22002150Y-26987650D01*
X22044000Y-26777257D01*
X22044000Y-26562743D01*
X22002150Y-26352350D01*
X21920059Y-26154165D01*
X21800881Y-25975803D01*
X21733078Y-25908000D01*
X23674418Y-25908000D01*
X23674418Y-27432000D01*
X23680732Y-27496103D01*
X23699430Y-27557743D01*
X23729794Y-27614550D01*
X23770657Y-27664343D01*
X23820450Y-27705206D01*
X23877257Y-27735570D01*
X23938897Y-27754268D01*
X24003000Y-27760582D01*
X25527000Y-27760582D01*
X25591103Y-27754268D01*
X25652743Y-27735570D01*
X25709550Y-27705206D01*
X25759343Y-27664343D01*
X25800206Y-27614550D01*
X25830570Y-27557743D01*
X25849268Y-27496103D01*
X25855582Y-27432000D01*
X25855582Y-26562743D01*
X31296000Y-26562743D01*
X31296000Y-26777257D01*
X31337850Y-26987650D01*
X31419941Y-27185835D01*
X31539119Y-27364197D01*
X31690803Y-27515881D01*
X31869165Y-27635059D01*
X32067350Y-27717150D01*
X32277743Y-27759000D01*
X32492257Y-27759000D01*
X32702650Y-27717150D01*
X32900835Y-27635059D01*
X33079197Y-27515881D01*
X33136750Y-27458328D01*
X35496475Y-27458328D01*
X35572316Y-27635083D01*
X35772560Y-27738019D01*
X35989037Y-27799911D01*
X36213429Y-27818382D01*
X36437113Y-27792720D01*
X36651493Y-27723914D01*
X36817684Y-27635083D01*
X36893525Y-27458328D01*
X36195000Y-26759803D01*
X35496475Y-27458328D01*
X33136750Y-27458328D01*
X33230881Y-27364197D01*
X33350059Y-27185835D01*
X33432150Y-26987650D01*
X33474000Y-26777257D01*
X33474000Y-26688429D01*
X35046618Y-26688429D01*
X35072280Y-26912113D01*
X35141086Y-27126493D01*
X35229917Y-27292684D01*
X35406672Y-27368525D01*
X36105197Y-26670000D01*
X36284803Y-26670000D01*
X36983328Y-27368525D01*
X37160083Y-27292684D01*
X37263019Y-27092440D01*
X37324911Y-26875963D01*
X37343382Y-26651571D01*
X37317720Y-26427887D01*
X37248914Y-26213507D01*
X37160083Y-26047316D01*
X36983328Y-25971475D01*
X36284803Y-26670000D01*
X36105197Y-26670000D01*
X35406672Y-25971475D01*
X35229917Y-26047316D01*
X35126981Y-26247560D01*
X35065089Y-26464037D01*
X35046618Y-26688429D01*
X33474000Y-26688429D01*
X33474000Y-26562743D01*
X33432150Y-26352350D01*
X33350059Y-26154165D01*
X33230881Y-25975803D01*
X33136750Y-25881672D01*
X35496475Y-25881672D01*
X36195000Y-26580197D01*
X36893525Y-25881672D01*
X36817684Y-25704917D01*
X36617440Y-25601981D01*
X36400963Y-25540089D01*
X36176571Y-25521618D01*
X35952887Y-25547280D01*
X35738507Y-25616086D01*
X35572316Y-25704917D01*
X35496475Y-25881672D01*
X33136750Y-25881672D01*
X33079197Y-25824119D01*
X32900835Y-25704941D01*
X32702650Y-25622850D01*
X32492257Y-25581000D01*
X32277743Y-25581000D01*
X32067350Y-25622850D01*
X31869165Y-25704941D01*
X31690803Y-25824119D01*
X31539119Y-25975803D01*
X31419941Y-26154165D01*
X31337850Y-26352350D01*
X31296000Y-26562743D01*
X25855582Y-26562743D01*
X25855582Y-25908000D01*
X25849268Y-25843897D01*
X25830570Y-25782257D01*
X25800206Y-25725450D01*
X25759343Y-25675657D01*
X25709550Y-25634794D01*
X25652743Y-25604430D01*
X25591103Y-25585732D01*
X25527000Y-25579418D01*
X24003000Y-25579418D01*
X23938897Y-25585732D01*
X23877257Y-25604430D01*
X23820450Y-25634794D01*
X23770657Y-25675657D01*
X23729794Y-25725450D01*
X23699430Y-25782257D01*
X23680732Y-25843897D01*
X23674418Y-25908000D01*
X21733078Y-25908000D01*
X21649197Y-25824119D01*
X21470835Y-25704941D01*
X21272650Y-25622850D01*
X21062257Y-25581000D01*
X20847743Y-25581000D01*
X20637350Y-25622850D01*
X20439165Y-25704941D01*
X20260803Y-25824119D01*
X20109119Y-25975803D01*
X19989941Y-26154165D01*
X19907850Y-26352350D01*
X19866000Y-26562743D01*
X19305270Y-26562743D01*
X19305270Y-24022743D01*
X19866000Y-24022743D01*
X19866000Y-24237257D01*
X19907850Y-24447650D01*
X19989941Y-24645835D01*
X20109119Y-24824197D01*
X20260803Y-24975881D01*
X20439165Y-25095059D01*
X20637350Y-25177150D01*
X20847743Y-25219000D01*
X21062257Y-25219000D01*
X21272650Y-25177150D01*
X21470835Y-25095059D01*
X21649197Y-24975881D01*
X21706750Y-24918328D01*
X35496475Y-24918328D01*
X35572316Y-25095083D01*
X35772560Y-25198019D01*
X35989037Y-25259911D01*
X36213429Y-25278382D01*
X36437113Y-25252720D01*
X36651493Y-25183914D01*
X36817684Y-25095083D01*
X36893525Y-24918328D01*
X36195000Y-24219803D01*
X35496475Y-24918328D01*
X21706750Y-24918328D01*
X21800881Y-24824197D01*
X21920059Y-24645835D01*
X22002150Y-24447650D01*
X22044000Y-24237257D01*
X22044000Y-24148429D01*
X35046618Y-24148429D01*
X35072280Y-24372113D01*
X35141086Y-24586493D01*
X35229917Y-24752684D01*
X35406672Y-24828525D01*
X36105197Y-24130000D01*
X36284803Y-24130000D01*
X36983328Y-24828525D01*
X37160083Y-24752684D01*
X37263019Y-24552440D01*
X37324911Y-24335963D01*
X37343382Y-24111571D01*
X37317720Y-23887887D01*
X37248914Y-23673507D01*
X37160083Y-23507316D01*
X36983328Y-23431475D01*
X36284803Y-24130000D01*
X36105197Y-24130000D01*
X35406672Y-23431475D01*
X35229917Y-23507316D01*
X35126981Y-23707560D01*
X35065089Y-23924037D01*
X35046618Y-24148429D01*
X22044000Y-24148429D01*
X22044000Y-24022743D01*
X22002150Y-23812350D01*
X21920059Y-23614165D01*
X21800881Y-23435803D01*
X21706750Y-23341672D01*
X35496475Y-23341672D01*
X36195000Y-24040197D01*
X36893525Y-23341672D01*
X36817684Y-23164917D01*
X36617440Y-23061981D01*
X36400963Y-23000089D01*
X36176571Y-22981618D01*
X35952887Y-23007280D01*
X35738507Y-23076086D01*
X35572316Y-23164917D01*
X35496475Y-23341672D01*
X21706750Y-23341672D01*
X21649197Y-23284119D01*
X21470835Y-23164941D01*
X21272650Y-23082850D01*
X21062257Y-23041000D01*
X20847743Y-23041000D01*
X20637350Y-23082850D01*
X20439165Y-23164941D01*
X20260803Y-23284119D01*
X20109119Y-23435803D01*
X19989941Y-23614165D01*
X19907850Y-23812350D01*
X19866000Y-24022743D01*
X19305270Y-24022743D01*
X19305270Y-20828000D01*
X19864418Y-20828000D01*
X19864418Y-22352000D01*
X19870732Y-22416103D01*
X19889430Y-22477743D01*
X19919794Y-22534550D01*
X19960657Y-22584343D01*
X20010450Y-22625206D01*
X20067257Y-22655570D01*
X20128897Y-22674268D01*
X20193000Y-22680582D01*
X21717000Y-22680582D01*
X21781103Y-22674268D01*
X21842743Y-22655570D01*
X21899550Y-22625206D01*
X21949343Y-22584343D01*
X21990206Y-22534550D01*
X22020570Y-22477743D01*
X22039268Y-22416103D01*
X22045582Y-22352000D01*
X22045582Y-21482743D01*
X35106000Y-21482743D01*
X35106000Y-21697257D01*
X35147850Y-21907650D01*
X35229941Y-22105835D01*
X35349119Y-22284197D01*
X35500803Y-22435881D01*
X35679165Y-22555059D01*
X35877350Y-22637150D01*
X36087743Y-22679000D01*
X36302257Y-22679000D01*
X36512650Y-22637150D01*
X36710835Y-22555059D01*
X36889197Y-22435881D01*
X37040881Y-22284197D01*
X37160059Y-22105835D01*
X37242150Y-21907650D01*
X37284000Y-21697257D01*
X37284000Y-21482743D01*
X37242150Y-21272350D01*
X37160059Y-21074165D01*
X37040881Y-20895803D01*
X36889197Y-20744119D01*
X36710835Y-20624941D01*
X36512650Y-20542850D01*
X36302257Y-20501000D01*
X36087743Y-20501000D01*
X35877350Y-20542850D01*
X35679165Y-20624941D01*
X35500803Y-20744119D01*
X35349119Y-20895803D01*
X35229941Y-21074165D01*
X35147850Y-21272350D01*
X35106000Y-21482743D01*
X22045582Y-21482743D01*
X22045582Y-20828000D01*
X22039268Y-20763897D01*
X22020570Y-20702257D01*
X21990206Y-20645450D01*
X21949343Y-20595657D01*
X21899550Y-20554794D01*
X21842743Y-20524430D01*
X21781103Y-20505732D01*
X21717000Y-20499418D01*
X20193000Y-20499418D01*
X20128897Y-20505732D01*
X20067257Y-20524430D01*
X20010450Y-20554794D01*
X19960657Y-20595657D01*
X19919794Y-20645450D01*
X19889430Y-20702257D01*
X19870732Y-20763897D01*
X19864418Y-20828000D01*
X19305270Y-20828000D01*
X19305270Y-19940270D01*
X37844731Y-19940270D01*
X37844730Y-51179730D01*
M02*
