G04 #@! TF.FileFunction,Soldermask,Bot*
%FSLAX46Y46*%
G04 Gerber Fmt 4.6, Leading zero omitted, Abs format (unit mm)*
G04 Created by KiCad (PCBNEW 4.0.7) date 05/04/19 19:07:48*
%MOMM*%
%LPD*%
G01*
G04 APERTURE LIST*
%ADD10C,0.100000*%
%ADD11C,2.305000*%
%ADD12R,2.305000X2.305000*%
%ADD13C,1.924000*%
%ADD14R,1.924000X1.924000*%
%ADD15C,3.702000*%
%ADD16C,2.940000*%
%ADD17C,4.464000*%
%ADD18C,1.416000*%
%ADD19C,5.480000*%
%ADD20R,2.940000X9.290000*%
%ADD21R,2.635200X9.290000*%
%ADD22C,3.575000*%
%ADD23R,2.940000X2.940000*%
%ADD24O,3.575000X2.178000*%
G04 APERTURE END LIST*
D10*
D11*
X138430000Y-147955000D03*
D12*
X138430000Y-142875000D03*
D11*
X135890000Y-145415000D03*
X137541000Y-194310000D03*
D12*
X118491000Y-194310000D03*
D11*
X297815000Y-357505000D03*
X297815000Y-367030000D03*
D13*
X254000000Y-56515000D03*
D14*
X254000000Y-53975000D03*
D13*
X254000000Y-59055000D03*
X254000000Y-61595000D03*
X261620000Y-61595000D03*
X261620000Y-59055000D03*
X261620000Y-56515000D03*
X261620000Y-53975000D03*
D15*
X62230000Y-46990000D03*
X73660000Y-52070000D03*
X44450000Y-70485000D03*
D16*
X163830000Y-30480000D03*
X160020000Y-30480000D03*
D13*
X102870000Y-34290000D03*
X154559000Y-30480000D03*
X152400000Y-30480000D03*
X109220000Y-32385000D03*
X93345000Y-32385000D03*
X106045000Y-30480000D03*
D17*
X312420000Y-24765000D03*
X31750000Y-24765000D03*
X312420000Y-497205000D03*
D18*
X59690000Y-38735000D03*
D13*
X287655000Y-398145000D03*
D14*
X239395000Y-415925000D03*
D13*
X241935000Y-415925000D03*
X244475000Y-415925000D03*
X247015000Y-415925000D03*
X249555000Y-415925000D03*
X252095000Y-415925000D03*
X254635000Y-415925000D03*
X257175000Y-415925000D03*
X259715000Y-415925000D03*
X262255000Y-415925000D03*
X264795000Y-415925000D03*
X267335000Y-415925000D03*
X269875000Y-415925000D03*
X272415000Y-415925000D03*
X274955000Y-415925000D03*
X277495000Y-415925000D03*
X280035000Y-415925000D03*
X282575000Y-415925000D03*
X285115000Y-415925000D03*
X287655000Y-415925000D03*
X287655000Y-400685000D03*
X285115000Y-400685000D03*
X282575000Y-400685000D03*
X280035000Y-400685000D03*
X277495000Y-400685000D03*
X274955000Y-400685000D03*
X272415000Y-400685000D03*
X269875000Y-400685000D03*
X267335000Y-400685000D03*
X264795000Y-400685000D03*
X262255000Y-400685000D03*
X259715000Y-400685000D03*
X257175000Y-400685000D03*
X254635000Y-400685000D03*
X252095000Y-400685000D03*
X249555000Y-400685000D03*
X247015000Y-400685000D03*
X244475000Y-400685000D03*
X241935000Y-400685000D03*
X239395000Y-400685000D03*
X198755000Y-447675000D03*
X198755000Y-445135000D03*
X198755000Y-442595000D03*
X198755000Y-440055000D03*
X198755000Y-437515000D03*
D14*
X198755000Y-434975000D03*
D13*
X198755000Y-450215000D03*
X198755000Y-452755000D03*
X198755000Y-455295000D03*
X206375000Y-455295000D03*
X206375000Y-452755000D03*
X206375000Y-450215000D03*
X206375000Y-447675000D03*
X206375000Y-445135000D03*
X206375000Y-442595000D03*
X206375000Y-440055000D03*
X206375000Y-437515000D03*
X206375000Y-434975000D03*
X178435000Y-484505000D03*
X178435000Y-481965000D03*
X178435000Y-479425000D03*
X178435000Y-476885000D03*
X178435000Y-474345000D03*
D14*
X178435000Y-471805000D03*
D13*
X178435000Y-487045000D03*
X178435000Y-489585000D03*
X178435000Y-492125000D03*
X186055000Y-492125000D03*
X186055000Y-489585000D03*
X186055000Y-487045000D03*
X186055000Y-484505000D03*
X186055000Y-481965000D03*
X186055000Y-479425000D03*
X186055000Y-476885000D03*
X186055000Y-474345000D03*
X186055000Y-471805000D03*
X178435000Y-447675000D03*
X178435000Y-445135000D03*
X178435000Y-442595000D03*
X178435000Y-440055000D03*
X178435000Y-437515000D03*
D14*
X178435000Y-434975000D03*
D13*
X178435000Y-450215000D03*
X178435000Y-452755000D03*
X178435000Y-455295000D03*
X186055000Y-455295000D03*
X186055000Y-452755000D03*
X186055000Y-450215000D03*
X186055000Y-447675000D03*
X186055000Y-445135000D03*
X186055000Y-442595000D03*
X186055000Y-440055000D03*
X186055000Y-437515000D03*
X186055000Y-434975000D03*
X158115000Y-484505000D03*
X158115000Y-481965000D03*
X158115000Y-479425000D03*
X158115000Y-476885000D03*
X158115000Y-474345000D03*
D14*
X158115000Y-471805000D03*
D13*
X158115000Y-487045000D03*
X158115000Y-489585000D03*
X158115000Y-492125000D03*
X165735000Y-492125000D03*
X165735000Y-489585000D03*
X165735000Y-487045000D03*
X165735000Y-484505000D03*
X165735000Y-481965000D03*
X165735000Y-479425000D03*
X165735000Y-476885000D03*
X165735000Y-474345000D03*
X165735000Y-471805000D03*
X158115000Y-447675000D03*
X158115000Y-445135000D03*
X158115000Y-442595000D03*
X158115000Y-440055000D03*
X158115000Y-437515000D03*
D14*
X158115000Y-434975000D03*
D13*
X158115000Y-450215000D03*
X158115000Y-452755000D03*
X158115000Y-455295000D03*
X165735000Y-455295000D03*
X165735000Y-452755000D03*
X165735000Y-450215000D03*
X165735000Y-447675000D03*
X165735000Y-445135000D03*
X165735000Y-442595000D03*
X165735000Y-440055000D03*
X165735000Y-437515000D03*
X165735000Y-434975000D03*
X137795000Y-484505000D03*
X137795000Y-481965000D03*
X137795000Y-479425000D03*
X137795000Y-476885000D03*
X137795000Y-474345000D03*
D14*
X137795000Y-471805000D03*
D13*
X137795000Y-487045000D03*
X137795000Y-489585000D03*
X137795000Y-492125000D03*
X145415000Y-492125000D03*
X145415000Y-489585000D03*
X145415000Y-487045000D03*
X145415000Y-484505000D03*
X145415000Y-481965000D03*
X145415000Y-479425000D03*
X145415000Y-476885000D03*
X145415000Y-474345000D03*
X145415000Y-471805000D03*
X117475000Y-484505000D03*
X117475000Y-481965000D03*
X117475000Y-479425000D03*
X117475000Y-476885000D03*
X117475000Y-474345000D03*
D14*
X117475000Y-471805000D03*
D13*
X117475000Y-487045000D03*
X117475000Y-489585000D03*
X117475000Y-492125000D03*
X125095000Y-492125000D03*
X125095000Y-489585000D03*
X125095000Y-487045000D03*
X125095000Y-484505000D03*
X125095000Y-481965000D03*
X125095000Y-479425000D03*
X125095000Y-476885000D03*
X125095000Y-474345000D03*
X125095000Y-471805000D03*
X117475000Y-447675000D03*
X117475000Y-445135000D03*
X117475000Y-442595000D03*
X117475000Y-440055000D03*
X117475000Y-437515000D03*
D14*
X117475000Y-434975000D03*
D13*
X117475000Y-450215000D03*
X117475000Y-452755000D03*
X117475000Y-455295000D03*
X125095000Y-455295000D03*
X125095000Y-452755000D03*
X125095000Y-450215000D03*
X125095000Y-447675000D03*
X125095000Y-445135000D03*
X125095000Y-442595000D03*
X125095000Y-440055000D03*
X125095000Y-437515000D03*
X125095000Y-434975000D03*
X97155000Y-484505000D03*
X97155000Y-481965000D03*
X97155000Y-479425000D03*
X97155000Y-476885000D03*
X97155000Y-474345000D03*
D14*
X97155000Y-471805000D03*
D13*
X97155000Y-487045000D03*
X97155000Y-489585000D03*
X97155000Y-492125000D03*
X104775000Y-492125000D03*
X104775000Y-489585000D03*
X104775000Y-487045000D03*
X104775000Y-484505000D03*
X104775000Y-481965000D03*
X104775000Y-479425000D03*
X104775000Y-476885000D03*
X104775000Y-474345000D03*
X104775000Y-471805000D03*
X97155000Y-450215000D03*
X97155000Y-447675000D03*
X97155000Y-445135000D03*
X97155000Y-442595000D03*
X97155000Y-440055000D03*
D14*
X97155000Y-437515000D03*
D13*
X97155000Y-452755000D03*
X97155000Y-455295000D03*
X97155000Y-457835000D03*
X104775000Y-457835000D03*
X104775000Y-455295000D03*
X104775000Y-452755000D03*
X104775000Y-450215000D03*
X104775000Y-447675000D03*
X104775000Y-445135000D03*
X104775000Y-442595000D03*
X104775000Y-440055000D03*
X104775000Y-437515000D03*
X76835000Y-484505000D03*
X76835000Y-481965000D03*
X76835000Y-479425000D03*
X76835000Y-476885000D03*
X76835000Y-474345000D03*
D14*
X76835000Y-471805000D03*
D13*
X76835000Y-487045000D03*
X76835000Y-489585000D03*
X76835000Y-492125000D03*
X84455000Y-492125000D03*
X84455000Y-489585000D03*
X84455000Y-487045000D03*
X84455000Y-484505000D03*
X84455000Y-481965000D03*
X84455000Y-479425000D03*
X84455000Y-476885000D03*
X84455000Y-474345000D03*
X84455000Y-471805000D03*
X76835000Y-450215000D03*
X76835000Y-447675000D03*
X76835000Y-445135000D03*
X76835000Y-442595000D03*
X76835000Y-440055000D03*
D14*
X76835000Y-437515000D03*
D13*
X76835000Y-452755000D03*
X76835000Y-455295000D03*
X76835000Y-457835000D03*
X84455000Y-457835000D03*
X84455000Y-455295000D03*
X84455000Y-452755000D03*
X84455000Y-450215000D03*
X84455000Y-447675000D03*
X84455000Y-445135000D03*
X84455000Y-442595000D03*
X84455000Y-440055000D03*
X84455000Y-437515000D03*
D14*
X249555000Y-466725000D03*
D13*
X249555000Y-469265000D03*
X249555000Y-471805000D03*
X249555000Y-474345000D03*
X249555000Y-476885000D03*
X249555000Y-479425000D03*
X249555000Y-481965000D03*
X249555000Y-484505000D03*
X249555000Y-487045000D03*
X249555000Y-489585000D03*
X249555000Y-492125000D03*
X249555000Y-494665000D03*
X264795000Y-494665000D03*
X264795000Y-492125000D03*
X264795000Y-489585000D03*
X264795000Y-487045000D03*
X264795000Y-484505000D03*
X264795000Y-481965000D03*
X264795000Y-479425000D03*
X264795000Y-476885000D03*
X264795000Y-474345000D03*
X264795000Y-471805000D03*
X264795000Y-469265000D03*
X264795000Y-466725000D03*
D14*
X224155000Y-466725000D03*
D13*
X224155000Y-469265000D03*
X224155000Y-471805000D03*
X224155000Y-474345000D03*
X224155000Y-476885000D03*
X224155000Y-479425000D03*
X224155000Y-481965000D03*
X224155000Y-484505000D03*
X224155000Y-487045000D03*
X224155000Y-489585000D03*
X224155000Y-492125000D03*
X224155000Y-494665000D03*
X239395000Y-494665000D03*
X239395000Y-492125000D03*
X239395000Y-489585000D03*
X239395000Y-487045000D03*
X239395000Y-484505000D03*
X239395000Y-481965000D03*
X239395000Y-479425000D03*
X239395000Y-476885000D03*
X239395000Y-474345000D03*
X239395000Y-471805000D03*
X239395000Y-469265000D03*
X239395000Y-466725000D03*
D14*
X198755000Y-466725000D03*
D13*
X198755000Y-469265000D03*
X198755000Y-471805000D03*
X198755000Y-474345000D03*
X198755000Y-476885000D03*
X198755000Y-479425000D03*
X198755000Y-481965000D03*
X198755000Y-484505000D03*
X198755000Y-487045000D03*
X198755000Y-489585000D03*
X198755000Y-492125000D03*
X198755000Y-494665000D03*
X213995000Y-494665000D03*
X213995000Y-492125000D03*
X213995000Y-489585000D03*
X213995000Y-487045000D03*
X213995000Y-484505000D03*
X213995000Y-481965000D03*
X213995000Y-479425000D03*
X213995000Y-476885000D03*
X213995000Y-474345000D03*
X213995000Y-471805000D03*
X213995000Y-469265000D03*
X213995000Y-466725000D03*
D14*
X36195000Y-393065000D03*
D13*
X36195000Y-395605000D03*
X36195000Y-398145000D03*
X36195000Y-400685000D03*
X36195000Y-403225000D03*
X36195000Y-405765000D03*
X36195000Y-408305000D03*
X36195000Y-410845000D03*
X36195000Y-413385000D03*
X36195000Y-415925000D03*
X36195000Y-418465000D03*
X36195000Y-421005000D03*
X51435000Y-421005000D03*
X51435000Y-418465000D03*
X51435000Y-415925000D03*
X51435000Y-413385000D03*
X51435000Y-410845000D03*
X51435000Y-408305000D03*
X51435000Y-405765000D03*
X51435000Y-403225000D03*
X51435000Y-400685000D03*
X51435000Y-398145000D03*
X51435000Y-395605000D03*
X51435000Y-393065000D03*
D14*
X56515000Y-434975000D03*
D13*
X56515000Y-437515000D03*
X56515000Y-440055000D03*
X56515000Y-442595000D03*
X56515000Y-445135000D03*
X56515000Y-447675000D03*
X56515000Y-450215000D03*
X56515000Y-452755000D03*
X56515000Y-455295000D03*
X56515000Y-457835000D03*
X64135000Y-457835000D03*
X64135000Y-455295000D03*
X64135000Y-452755000D03*
X64135000Y-450215000D03*
X64135000Y-447675000D03*
X64135000Y-445135000D03*
X64135000Y-442595000D03*
X64135000Y-440055000D03*
X64135000Y-437515000D03*
X64135000Y-434975000D03*
D14*
X36195000Y-434975000D03*
D13*
X36195000Y-437515000D03*
X36195000Y-440055000D03*
X36195000Y-442595000D03*
X36195000Y-445135000D03*
X36195000Y-447675000D03*
X36195000Y-450215000D03*
X36195000Y-452755000D03*
X36195000Y-455295000D03*
X36195000Y-457835000D03*
X43815000Y-457835000D03*
X43815000Y-455295000D03*
X43815000Y-452755000D03*
X43815000Y-450215000D03*
X43815000Y-447675000D03*
X43815000Y-445135000D03*
X43815000Y-442595000D03*
X43815000Y-440055000D03*
X43815000Y-437515000D03*
X43815000Y-434975000D03*
D14*
X280035000Y-432435000D03*
D13*
X280035000Y-434975000D03*
X280035000Y-437515000D03*
X280035000Y-440055000D03*
X280035000Y-442595000D03*
X280035000Y-445135000D03*
X280035000Y-447675000D03*
X280035000Y-450215000D03*
X280035000Y-452755000D03*
X280035000Y-455295000D03*
X287655000Y-455295000D03*
X287655000Y-452755000D03*
X287655000Y-450215000D03*
X287655000Y-447675000D03*
X287655000Y-445135000D03*
X287655000Y-442595000D03*
X287655000Y-440055000D03*
X287655000Y-437515000D03*
X287655000Y-434975000D03*
X287655000Y-432435000D03*
D14*
X259715000Y-432435000D03*
D13*
X259715000Y-434975000D03*
X259715000Y-437515000D03*
X259715000Y-440055000D03*
X259715000Y-442595000D03*
X259715000Y-445135000D03*
X259715000Y-447675000D03*
X259715000Y-450215000D03*
X259715000Y-452755000D03*
X259715000Y-455295000D03*
X267335000Y-455295000D03*
X267335000Y-452755000D03*
X267335000Y-450215000D03*
X267335000Y-447675000D03*
X267335000Y-445135000D03*
X267335000Y-442595000D03*
X267335000Y-440055000D03*
X267335000Y-437515000D03*
X267335000Y-434975000D03*
X267335000Y-432435000D03*
X239395000Y-445135000D03*
X239395000Y-442595000D03*
X239395000Y-440055000D03*
X239395000Y-437515000D03*
D14*
X239395000Y-434975000D03*
D13*
X239395000Y-447675000D03*
X239395000Y-450215000D03*
X239395000Y-452755000D03*
X239395000Y-455295000D03*
X247015000Y-455295000D03*
X247015000Y-452755000D03*
X247015000Y-450215000D03*
X247015000Y-447675000D03*
X247015000Y-445135000D03*
X247015000Y-442595000D03*
X247015000Y-440055000D03*
X247015000Y-437515000D03*
X247015000Y-434975000D03*
X219075000Y-445135000D03*
X219075000Y-442595000D03*
X219075000Y-440055000D03*
X219075000Y-437515000D03*
D14*
X219075000Y-434975000D03*
D13*
X219075000Y-447675000D03*
X219075000Y-450215000D03*
X219075000Y-452755000D03*
X219075000Y-455295000D03*
X226695000Y-455295000D03*
X226695000Y-452755000D03*
X226695000Y-450215000D03*
X226695000Y-447675000D03*
X226695000Y-445135000D03*
X226695000Y-442595000D03*
X226695000Y-440055000D03*
X226695000Y-437515000D03*
X226695000Y-434975000D03*
D14*
X62865000Y-393065000D03*
D13*
X62865000Y-395605000D03*
X62865000Y-398145000D03*
X62865000Y-400685000D03*
X62865000Y-403225000D03*
X62865000Y-405765000D03*
X62865000Y-408305000D03*
X62865000Y-410845000D03*
X62865000Y-413385000D03*
X62865000Y-415925000D03*
X62865000Y-418465000D03*
X62865000Y-421005000D03*
X78105000Y-421005000D03*
X78105000Y-418465000D03*
X78105000Y-415925000D03*
X78105000Y-413385000D03*
X78105000Y-410845000D03*
X78105000Y-408305000D03*
X78105000Y-405765000D03*
X78105000Y-403225000D03*
X78105000Y-400685000D03*
X78105000Y-398145000D03*
X78105000Y-395605000D03*
X78105000Y-393065000D03*
X299720000Y-217805000D03*
X299720000Y-215265000D03*
D14*
X299720000Y-210185000D03*
D13*
X299720000Y-212725000D03*
X299720000Y-220345000D03*
X299720000Y-222885000D03*
X299720000Y-225425000D03*
X307340000Y-225425000D03*
X307340000Y-222885000D03*
X307340000Y-220345000D03*
X307340000Y-217805000D03*
X307340000Y-215265000D03*
X307340000Y-212725000D03*
X307340000Y-210185000D03*
X36195000Y-367665000D03*
X36195000Y-365125000D03*
X36195000Y-362585000D03*
X36195000Y-360045000D03*
D14*
X36195000Y-357505000D03*
D13*
X36195000Y-370205000D03*
X36195000Y-372745000D03*
X36195000Y-375285000D03*
X36195000Y-377825000D03*
X43815000Y-377825000D03*
X43815000Y-375285000D03*
X43815000Y-372745000D03*
X43815000Y-370205000D03*
X43815000Y-367665000D03*
X43815000Y-365125000D03*
X43815000Y-362585000D03*
X43815000Y-360045000D03*
X43815000Y-357505000D03*
X36195000Y-255905000D03*
X36195000Y-253365000D03*
D14*
X36195000Y-248285000D03*
D13*
X36195000Y-250825000D03*
X36195000Y-258445000D03*
X36195000Y-260985000D03*
X36195000Y-263525000D03*
X43815000Y-263525000D03*
X43815000Y-260985000D03*
X43815000Y-258445000D03*
X43815000Y-255905000D03*
X43815000Y-253365000D03*
X43815000Y-250825000D03*
X43815000Y-248285000D03*
X36195000Y-217805000D03*
X36195000Y-215265000D03*
D14*
X36195000Y-210185000D03*
D13*
X36195000Y-212725000D03*
X36195000Y-220345000D03*
X36195000Y-222885000D03*
X36195000Y-225425000D03*
X43815000Y-225425000D03*
X43815000Y-222885000D03*
X43815000Y-220345000D03*
X43815000Y-217805000D03*
X43815000Y-215265000D03*
X43815000Y-212725000D03*
X43815000Y-210185000D03*
X36195000Y-179705000D03*
X36195000Y-177165000D03*
D14*
X36195000Y-172085000D03*
D13*
X36195000Y-174625000D03*
X36195000Y-182245000D03*
X36195000Y-184785000D03*
X36195000Y-187325000D03*
X43815000Y-187325000D03*
X43815000Y-184785000D03*
X43815000Y-182245000D03*
X43815000Y-179705000D03*
X43815000Y-177165000D03*
X43815000Y-174625000D03*
X43815000Y-172085000D03*
X36195000Y-133985000D03*
D14*
X36195000Y-131445000D03*
D13*
X36195000Y-136525000D03*
X36195000Y-139065000D03*
X43815000Y-139065000D03*
X43815000Y-136525000D03*
X43815000Y-133985000D03*
X43815000Y-131445000D03*
X36195000Y-100965000D03*
X36195000Y-98425000D03*
D14*
X36195000Y-93345000D03*
D13*
X36195000Y-95885000D03*
X36195000Y-103505000D03*
X36195000Y-106045000D03*
X36195000Y-108585000D03*
X43815000Y-108585000D03*
X43815000Y-106045000D03*
X43815000Y-103505000D03*
X43815000Y-100965000D03*
X43815000Y-98425000D03*
X43815000Y-95885000D03*
X43815000Y-93345000D03*
D11*
X34925000Y-469265000D03*
X34925000Y-478790000D03*
X291465000Y-464820000D03*
X291465000Y-474345000D03*
X165735000Y-462915000D03*
X175260000Y-462915000D03*
D13*
X56515000Y-367665000D03*
X56515000Y-365125000D03*
X56515000Y-362585000D03*
X56515000Y-360045000D03*
D14*
X56515000Y-357505000D03*
D13*
X56515000Y-370205000D03*
X56515000Y-372745000D03*
X56515000Y-375285000D03*
X56515000Y-377825000D03*
X64135000Y-377825000D03*
X64135000Y-375285000D03*
X64135000Y-372745000D03*
X64135000Y-370205000D03*
X64135000Y-367665000D03*
X64135000Y-365125000D03*
X64135000Y-362585000D03*
X64135000Y-360045000D03*
X64135000Y-357505000D03*
X56515000Y-332105000D03*
X56515000Y-329565000D03*
D14*
X56515000Y-324485000D03*
D13*
X56515000Y-327025000D03*
X56515000Y-334645000D03*
X56515000Y-337185000D03*
X56515000Y-339725000D03*
X64135000Y-339725000D03*
X64135000Y-337185000D03*
X64135000Y-334645000D03*
X64135000Y-332105000D03*
X64135000Y-329565000D03*
X64135000Y-327025000D03*
X64135000Y-324485000D03*
X56515000Y-291465000D03*
X56515000Y-288925000D03*
X56515000Y-286385000D03*
D14*
X56515000Y-283845000D03*
D13*
X56515000Y-294005000D03*
X56515000Y-296545000D03*
X56515000Y-299085000D03*
X56515000Y-301625000D03*
X64135000Y-301625000D03*
X64135000Y-299085000D03*
X64135000Y-296545000D03*
X64135000Y-294005000D03*
X64135000Y-291465000D03*
X64135000Y-288925000D03*
X64135000Y-286385000D03*
X64135000Y-283845000D03*
X56515000Y-253365000D03*
X56515000Y-250825000D03*
X56515000Y-248285000D03*
D14*
X56515000Y-245745000D03*
D13*
X56515000Y-255905000D03*
X56515000Y-258445000D03*
X56515000Y-260985000D03*
X56515000Y-263525000D03*
X64135000Y-263525000D03*
X64135000Y-260985000D03*
X64135000Y-258445000D03*
X64135000Y-255905000D03*
X64135000Y-253365000D03*
X64135000Y-250825000D03*
X64135000Y-248285000D03*
X64135000Y-245745000D03*
X56515000Y-215265000D03*
X56515000Y-212725000D03*
X56515000Y-210185000D03*
D14*
X56515000Y-207645000D03*
D13*
X56515000Y-217805000D03*
X56515000Y-220345000D03*
X56515000Y-222885000D03*
X56515000Y-225425000D03*
X64135000Y-225425000D03*
X64135000Y-222885000D03*
X64135000Y-220345000D03*
X64135000Y-217805000D03*
X64135000Y-215265000D03*
X64135000Y-212725000D03*
X64135000Y-210185000D03*
X64135000Y-207645000D03*
X56515000Y-179705000D03*
X56515000Y-177165000D03*
D14*
X56515000Y-172085000D03*
D13*
X56515000Y-174625000D03*
X56515000Y-182245000D03*
X56515000Y-184785000D03*
X56515000Y-187325000D03*
X64135000Y-187325000D03*
X64135000Y-184785000D03*
X64135000Y-182245000D03*
X64135000Y-179705000D03*
X64135000Y-177165000D03*
X64135000Y-174625000D03*
X64135000Y-172085000D03*
X56515000Y-133985000D03*
D14*
X56515000Y-131445000D03*
D13*
X56515000Y-136525000D03*
X56515000Y-139065000D03*
X64135000Y-139065000D03*
X64135000Y-136525000D03*
X64135000Y-133985000D03*
X64135000Y-131445000D03*
X56515000Y-100965000D03*
X56515000Y-98425000D03*
D14*
X56515000Y-93345000D03*
D13*
X56515000Y-95885000D03*
X56515000Y-103505000D03*
X56515000Y-106045000D03*
X56515000Y-108585000D03*
X64135000Y-108585000D03*
X64135000Y-106045000D03*
X64135000Y-103505000D03*
X64135000Y-100965000D03*
X64135000Y-98425000D03*
X64135000Y-95885000D03*
X64135000Y-93345000D03*
X76835000Y-367665000D03*
X76835000Y-365125000D03*
X76835000Y-362585000D03*
X76835000Y-360045000D03*
D14*
X76835000Y-357505000D03*
D13*
X76835000Y-370205000D03*
X76835000Y-372745000D03*
X76835000Y-375285000D03*
X76835000Y-377825000D03*
X84455000Y-377825000D03*
X84455000Y-375285000D03*
X84455000Y-372745000D03*
X84455000Y-370205000D03*
X84455000Y-367665000D03*
X84455000Y-365125000D03*
X84455000Y-362585000D03*
X84455000Y-360045000D03*
X84455000Y-357505000D03*
X76835000Y-332105000D03*
X76835000Y-329565000D03*
D14*
X76835000Y-324485000D03*
D13*
X76835000Y-327025000D03*
X76835000Y-334645000D03*
X76835000Y-337185000D03*
X76835000Y-339725000D03*
X84455000Y-339725000D03*
X84455000Y-337185000D03*
X84455000Y-334645000D03*
X84455000Y-332105000D03*
X84455000Y-329565000D03*
X84455000Y-327025000D03*
X84455000Y-324485000D03*
X76835000Y-294005000D03*
X76835000Y-291465000D03*
D14*
X76835000Y-286385000D03*
D13*
X76835000Y-288925000D03*
X76835000Y-296545000D03*
X76835000Y-299085000D03*
X76835000Y-301625000D03*
X84455000Y-301625000D03*
X84455000Y-299085000D03*
X84455000Y-296545000D03*
X84455000Y-294005000D03*
X84455000Y-291465000D03*
X84455000Y-288925000D03*
X84455000Y-286385000D03*
X76835000Y-253365000D03*
X76835000Y-250825000D03*
X76835000Y-248285000D03*
D14*
X76835000Y-245745000D03*
D13*
X76835000Y-255905000D03*
X76835000Y-258445000D03*
X76835000Y-260985000D03*
X76835000Y-263525000D03*
X84455000Y-263525000D03*
X84455000Y-260985000D03*
X84455000Y-258445000D03*
X84455000Y-255905000D03*
X84455000Y-253365000D03*
X84455000Y-250825000D03*
X84455000Y-248285000D03*
X84455000Y-245745000D03*
X76835000Y-210185000D03*
D14*
X76835000Y-207645000D03*
D13*
X76835000Y-212725000D03*
X76835000Y-215265000D03*
X84455000Y-215265000D03*
X84455000Y-212725000D03*
X84455000Y-210185000D03*
X84455000Y-207645000D03*
X76835000Y-179705000D03*
X76835000Y-177165000D03*
D14*
X76835000Y-172085000D03*
D13*
X76835000Y-174625000D03*
X76835000Y-182245000D03*
X76835000Y-184785000D03*
X76835000Y-187325000D03*
X84455000Y-187325000D03*
X84455000Y-184785000D03*
X84455000Y-182245000D03*
X84455000Y-179705000D03*
X84455000Y-177165000D03*
X84455000Y-174625000D03*
X84455000Y-172085000D03*
X76835000Y-141605000D03*
X76835000Y-139065000D03*
D14*
X76835000Y-133985000D03*
D13*
X76835000Y-136525000D03*
X76835000Y-144145000D03*
X76835000Y-146685000D03*
X76835000Y-149225000D03*
X84455000Y-149225000D03*
X84455000Y-146685000D03*
X84455000Y-144145000D03*
X84455000Y-141605000D03*
X84455000Y-139065000D03*
X84455000Y-136525000D03*
X84455000Y-133985000D03*
X97155000Y-367665000D03*
X97155000Y-365125000D03*
X97155000Y-362585000D03*
X97155000Y-360045000D03*
D14*
X97155000Y-357505000D03*
D13*
X97155000Y-370205000D03*
X97155000Y-372745000D03*
X97155000Y-375285000D03*
X97155000Y-377825000D03*
X104775000Y-377825000D03*
X104775000Y-375285000D03*
X104775000Y-372745000D03*
X104775000Y-370205000D03*
X104775000Y-367665000D03*
X104775000Y-365125000D03*
X104775000Y-362585000D03*
X104775000Y-360045000D03*
X104775000Y-357505000D03*
X97155000Y-332105000D03*
X97155000Y-329565000D03*
D14*
X97155000Y-324485000D03*
D13*
X97155000Y-327025000D03*
X97155000Y-334645000D03*
X97155000Y-337185000D03*
X97155000Y-339725000D03*
X104775000Y-339725000D03*
X104775000Y-337185000D03*
X104775000Y-334645000D03*
X104775000Y-332105000D03*
X104775000Y-329565000D03*
X104775000Y-327025000D03*
X104775000Y-324485000D03*
X97155000Y-291465000D03*
X97155000Y-288925000D03*
X97155000Y-286385000D03*
D14*
X97155000Y-283845000D03*
D13*
X97155000Y-294005000D03*
X97155000Y-296545000D03*
X97155000Y-299085000D03*
X97155000Y-301625000D03*
X104775000Y-301625000D03*
X104775000Y-299085000D03*
X104775000Y-296545000D03*
X104775000Y-294005000D03*
X104775000Y-291465000D03*
X104775000Y-288925000D03*
X104775000Y-286385000D03*
X104775000Y-283845000D03*
X97155000Y-253365000D03*
X97155000Y-250825000D03*
X97155000Y-248285000D03*
D14*
X97155000Y-245745000D03*
D13*
X97155000Y-255905000D03*
X97155000Y-258445000D03*
X97155000Y-260985000D03*
X97155000Y-263525000D03*
X104775000Y-263525000D03*
X104775000Y-260985000D03*
X104775000Y-258445000D03*
X104775000Y-255905000D03*
X104775000Y-253365000D03*
X104775000Y-250825000D03*
X104775000Y-248285000D03*
X104775000Y-245745000D03*
X97155000Y-210185000D03*
D14*
X97155000Y-207645000D03*
D13*
X97155000Y-212725000D03*
X97155000Y-215265000D03*
X104775000Y-215265000D03*
X104775000Y-212725000D03*
X104775000Y-210185000D03*
X104775000Y-207645000D03*
X97155000Y-179705000D03*
X97155000Y-177165000D03*
D14*
X97155000Y-172085000D03*
D13*
X97155000Y-174625000D03*
X97155000Y-182245000D03*
X97155000Y-184785000D03*
X97155000Y-187325000D03*
X104775000Y-187325000D03*
X104775000Y-184785000D03*
X104775000Y-182245000D03*
X104775000Y-179705000D03*
X104775000Y-177165000D03*
X104775000Y-174625000D03*
X104775000Y-172085000D03*
X97155000Y-139065000D03*
X97155000Y-136525000D03*
X97155000Y-133985000D03*
D14*
X97155000Y-131445000D03*
D13*
X97155000Y-141605000D03*
X97155000Y-144145000D03*
X97155000Y-146685000D03*
X97155000Y-149225000D03*
X104775000Y-149225000D03*
X104775000Y-146685000D03*
X104775000Y-144145000D03*
X104775000Y-141605000D03*
X104775000Y-139065000D03*
X104775000Y-136525000D03*
X104775000Y-133985000D03*
X104775000Y-131445000D03*
X117475000Y-367665000D03*
X117475000Y-365125000D03*
X117475000Y-362585000D03*
X117475000Y-360045000D03*
D14*
X117475000Y-357505000D03*
D13*
X117475000Y-370205000D03*
X117475000Y-372745000D03*
X117475000Y-375285000D03*
X117475000Y-377825000D03*
X125095000Y-377825000D03*
X125095000Y-375285000D03*
X125095000Y-372745000D03*
X125095000Y-370205000D03*
X125095000Y-367665000D03*
X125095000Y-365125000D03*
X125095000Y-362585000D03*
X125095000Y-360045000D03*
X125095000Y-357505000D03*
X117475000Y-332105000D03*
X117475000Y-329565000D03*
D14*
X117475000Y-324485000D03*
D13*
X117475000Y-327025000D03*
X117475000Y-334645000D03*
X117475000Y-337185000D03*
X117475000Y-339725000D03*
X125095000Y-339725000D03*
X125095000Y-337185000D03*
X125095000Y-334645000D03*
X125095000Y-332105000D03*
X125095000Y-329565000D03*
X125095000Y-327025000D03*
X125095000Y-324485000D03*
X117475000Y-291465000D03*
X117475000Y-288925000D03*
X117475000Y-286385000D03*
D14*
X117475000Y-283845000D03*
D13*
X117475000Y-294005000D03*
X117475000Y-296545000D03*
X117475000Y-299085000D03*
X117475000Y-301625000D03*
X125095000Y-301625000D03*
X125095000Y-299085000D03*
X125095000Y-296545000D03*
X125095000Y-294005000D03*
X125095000Y-291465000D03*
X125095000Y-288925000D03*
X125095000Y-286385000D03*
X125095000Y-283845000D03*
X117475000Y-217805000D03*
X117475000Y-215265000D03*
D14*
X117475000Y-210185000D03*
D13*
X117475000Y-212725000D03*
X117475000Y-220345000D03*
X117475000Y-222885000D03*
X117475000Y-225425000D03*
X125095000Y-225425000D03*
X125095000Y-222885000D03*
X125095000Y-220345000D03*
X125095000Y-217805000D03*
X125095000Y-215265000D03*
X125095000Y-212725000D03*
X125095000Y-210185000D03*
X117475000Y-174625000D03*
D14*
X117475000Y-172085000D03*
D13*
X117475000Y-177165000D03*
X117475000Y-179705000D03*
X125095000Y-179705000D03*
X125095000Y-177165000D03*
X125095000Y-174625000D03*
X125095000Y-172085000D03*
X117475000Y-139065000D03*
X117475000Y-136525000D03*
X117475000Y-133985000D03*
D14*
X117475000Y-131445000D03*
D13*
X117475000Y-141605000D03*
X117475000Y-144145000D03*
X117475000Y-146685000D03*
X117475000Y-149225000D03*
X125095000Y-149225000D03*
X125095000Y-146685000D03*
X125095000Y-144145000D03*
X125095000Y-141605000D03*
X125095000Y-139065000D03*
X125095000Y-136525000D03*
X125095000Y-133985000D03*
X125095000Y-131445000D03*
X158115000Y-405765000D03*
X158115000Y-403225000D03*
X158115000Y-400685000D03*
D14*
X158115000Y-398145000D03*
D13*
X158115000Y-408305000D03*
X158115000Y-410845000D03*
X158115000Y-413385000D03*
X158115000Y-415925000D03*
X165735000Y-415925000D03*
X165735000Y-413385000D03*
X165735000Y-410845000D03*
X165735000Y-408305000D03*
X165735000Y-405765000D03*
X165735000Y-403225000D03*
X165735000Y-400685000D03*
X165735000Y-398145000D03*
X158115000Y-367665000D03*
X158115000Y-365125000D03*
X158115000Y-362585000D03*
D14*
X158115000Y-360045000D03*
D13*
X158115000Y-370205000D03*
X158115000Y-372745000D03*
X158115000Y-375285000D03*
X158115000Y-377825000D03*
X165735000Y-377825000D03*
X165735000Y-375285000D03*
X165735000Y-372745000D03*
X165735000Y-370205000D03*
X165735000Y-367665000D03*
X165735000Y-365125000D03*
X165735000Y-362585000D03*
X165735000Y-360045000D03*
X158115000Y-329565000D03*
X158115000Y-327025000D03*
X158115000Y-324485000D03*
D14*
X158115000Y-321945000D03*
D13*
X158115000Y-332105000D03*
X158115000Y-334645000D03*
X158115000Y-337185000D03*
X158115000Y-339725000D03*
X165735000Y-339725000D03*
X165735000Y-337185000D03*
X165735000Y-334645000D03*
X165735000Y-332105000D03*
X165735000Y-329565000D03*
X165735000Y-327025000D03*
X165735000Y-324485000D03*
X165735000Y-321945000D03*
X158115000Y-291465000D03*
X158115000Y-288925000D03*
X158115000Y-286385000D03*
D14*
X158115000Y-283845000D03*
D13*
X158115000Y-294005000D03*
X158115000Y-296545000D03*
X158115000Y-299085000D03*
X158115000Y-301625000D03*
X165735000Y-301625000D03*
X165735000Y-299085000D03*
X165735000Y-296545000D03*
X165735000Y-294005000D03*
X165735000Y-291465000D03*
X165735000Y-288925000D03*
X165735000Y-286385000D03*
X165735000Y-283845000D03*
D14*
X158115000Y-243205000D03*
D13*
X158115000Y-245745000D03*
X158115000Y-248285000D03*
X158115000Y-250825000D03*
X158115000Y-253365000D03*
X158115000Y-255905000D03*
X158115000Y-258445000D03*
X158115000Y-260985000D03*
X158115000Y-263525000D03*
X158115000Y-266065000D03*
X165735000Y-266065000D03*
X165735000Y-263525000D03*
X165735000Y-260985000D03*
X165735000Y-258445000D03*
X165735000Y-255905000D03*
X165735000Y-253365000D03*
X165735000Y-250825000D03*
X165735000Y-248285000D03*
X165735000Y-245745000D03*
X165735000Y-243205000D03*
X158115000Y-215265000D03*
X158115000Y-212725000D03*
X158115000Y-210185000D03*
D14*
X158115000Y-207645000D03*
D13*
X158115000Y-217805000D03*
X158115000Y-220345000D03*
X158115000Y-222885000D03*
X158115000Y-225425000D03*
X165735000Y-225425000D03*
X165735000Y-222885000D03*
X165735000Y-220345000D03*
X165735000Y-217805000D03*
X165735000Y-215265000D03*
X165735000Y-212725000D03*
X165735000Y-210185000D03*
X165735000Y-207645000D03*
X158115000Y-177165000D03*
X158115000Y-174625000D03*
X158115000Y-172085000D03*
D14*
X158115000Y-169545000D03*
D13*
X158115000Y-179705000D03*
X158115000Y-182245000D03*
X158115000Y-184785000D03*
X158115000Y-187325000D03*
X165735000Y-187325000D03*
X165735000Y-184785000D03*
X165735000Y-182245000D03*
X165735000Y-179705000D03*
X165735000Y-177165000D03*
X165735000Y-174625000D03*
X165735000Y-172085000D03*
X165735000Y-169545000D03*
X158115000Y-139065000D03*
X158115000Y-136525000D03*
X158115000Y-133985000D03*
D14*
X158115000Y-131445000D03*
D13*
X158115000Y-141605000D03*
X158115000Y-144145000D03*
X158115000Y-146685000D03*
X158115000Y-149225000D03*
X165735000Y-149225000D03*
X165735000Y-146685000D03*
X165735000Y-144145000D03*
X165735000Y-141605000D03*
X165735000Y-139065000D03*
X165735000Y-136525000D03*
X165735000Y-133985000D03*
X165735000Y-131445000D03*
X137795000Y-405765000D03*
X137795000Y-403225000D03*
X137795000Y-400685000D03*
D14*
X137795000Y-398145000D03*
D13*
X137795000Y-408305000D03*
X137795000Y-410845000D03*
X137795000Y-413385000D03*
X137795000Y-415925000D03*
X145415000Y-415925000D03*
X145415000Y-413385000D03*
X145415000Y-410845000D03*
X145415000Y-408305000D03*
X145415000Y-405765000D03*
X145415000Y-403225000D03*
X145415000Y-400685000D03*
X145415000Y-398145000D03*
X137795000Y-367665000D03*
X137795000Y-365125000D03*
X137795000Y-362585000D03*
X137795000Y-360045000D03*
D14*
X137795000Y-357505000D03*
D13*
X137795000Y-370205000D03*
X137795000Y-372745000D03*
X137795000Y-375285000D03*
X137795000Y-377825000D03*
X145415000Y-377825000D03*
X145415000Y-375285000D03*
X145415000Y-372745000D03*
X145415000Y-370205000D03*
X145415000Y-367665000D03*
X145415000Y-365125000D03*
X145415000Y-362585000D03*
X145415000Y-360045000D03*
X145415000Y-357505000D03*
X137795000Y-329565000D03*
X137795000Y-327025000D03*
X137795000Y-324485000D03*
D14*
X137795000Y-321945000D03*
D13*
X137795000Y-332105000D03*
X137795000Y-334645000D03*
X137795000Y-337185000D03*
X137795000Y-339725000D03*
X145415000Y-339725000D03*
X145415000Y-337185000D03*
X145415000Y-334645000D03*
X145415000Y-332105000D03*
X145415000Y-329565000D03*
X145415000Y-327025000D03*
X145415000Y-324485000D03*
X145415000Y-321945000D03*
X137795000Y-294005000D03*
X137795000Y-291465000D03*
D14*
X137795000Y-286385000D03*
D13*
X137795000Y-288925000D03*
X137795000Y-296545000D03*
X137795000Y-299085000D03*
X137795000Y-301625000D03*
X145415000Y-301625000D03*
X145415000Y-299085000D03*
X145415000Y-296545000D03*
X145415000Y-294005000D03*
X145415000Y-291465000D03*
X145415000Y-288925000D03*
X145415000Y-286385000D03*
D14*
X137795000Y-243205000D03*
D13*
X137795000Y-245745000D03*
X137795000Y-248285000D03*
X137795000Y-250825000D03*
X137795000Y-253365000D03*
X137795000Y-255905000D03*
X137795000Y-258445000D03*
X137795000Y-260985000D03*
X137795000Y-263525000D03*
X137795000Y-266065000D03*
X145415000Y-266065000D03*
X145415000Y-263525000D03*
X145415000Y-260985000D03*
X145415000Y-258445000D03*
X145415000Y-255905000D03*
X145415000Y-253365000D03*
X145415000Y-250825000D03*
X145415000Y-248285000D03*
X145415000Y-245745000D03*
X145415000Y-243205000D03*
X137795000Y-215265000D03*
X137795000Y-212725000D03*
X137795000Y-210185000D03*
D14*
X137795000Y-207645000D03*
D13*
X137795000Y-217805000D03*
X137795000Y-220345000D03*
X137795000Y-222885000D03*
X137795000Y-225425000D03*
X145415000Y-225425000D03*
X145415000Y-222885000D03*
X145415000Y-220345000D03*
X145415000Y-217805000D03*
X145415000Y-215265000D03*
X145415000Y-212725000D03*
X145415000Y-210185000D03*
X145415000Y-207645000D03*
X137795000Y-179705000D03*
X137795000Y-177165000D03*
D14*
X137795000Y-172085000D03*
D13*
X137795000Y-174625000D03*
X137795000Y-182245000D03*
X137795000Y-184785000D03*
X137795000Y-187325000D03*
X145415000Y-187325000D03*
X145415000Y-184785000D03*
X145415000Y-182245000D03*
X145415000Y-179705000D03*
X145415000Y-177165000D03*
X145415000Y-174625000D03*
X145415000Y-172085000D03*
D14*
X219075000Y-395605000D03*
D13*
X219075000Y-398145000D03*
X219075000Y-400685000D03*
X219075000Y-403225000D03*
X219075000Y-405765000D03*
X219075000Y-408305000D03*
X219075000Y-410845000D03*
X219075000Y-413385000D03*
X219075000Y-415925000D03*
X219075000Y-418465000D03*
X226695000Y-418465000D03*
X226695000Y-415925000D03*
X226695000Y-413385000D03*
X226695000Y-410845000D03*
X226695000Y-408305000D03*
X226695000Y-405765000D03*
X226695000Y-403225000D03*
X226695000Y-400685000D03*
X226695000Y-398145000D03*
X226695000Y-395605000D03*
X178435000Y-405765000D03*
X178435000Y-403225000D03*
X178435000Y-400685000D03*
D14*
X178435000Y-398145000D03*
D13*
X178435000Y-408305000D03*
X178435000Y-410845000D03*
X178435000Y-413385000D03*
X178435000Y-415925000D03*
X186055000Y-415925000D03*
X186055000Y-413385000D03*
X186055000Y-410845000D03*
X186055000Y-408305000D03*
X186055000Y-405765000D03*
X186055000Y-403225000D03*
X186055000Y-400685000D03*
X186055000Y-398145000D03*
X280035000Y-367665000D03*
X280035000Y-365125000D03*
D14*
X280035000Y-360045000D03*
D13*
X280035000Y-362585000D03*
X280035000Y-370205000D03*
X280035000Y-372745000D03*
X280035000Y-375285000D03*
X287655000Y-375285000D03*
X287655000Y-372745000D03*
X287655000Y-370205000D03*
X287655000Y-367665000D03*
X287655000Y-365125000D03*
X287655000Y-362585000D03*
X287655000Y-360045000D03*
X259715000Y-365125000D03*
X259715000Y-362585000D03*
X259715000Y-360045000D03*
D14*
X259715000Y-357505000D03*
D13*
X259715000Y-367665000D03*
X259715000Y-370205000D03*
X259715000Y-372745000D03*
X259715000Y-375285000D03*
X267335000Y-375285000D03*
X267335000Y-372745000D03*
X267335000Y-370205000D03*
X267335000Y-367665000D03*
X267335000Y-365125000D03*
X267335000Y-362585000D03*
X267335000Y-360045000D03*
X267335000Y-357505000D03*
X239395000Y-367665000D03*
X239395000Y-365125000D03*
D14*
X239395000Y-360045000D03*
D13*
X239395000Y-362585000D03*
X239395000Y-370205000D03*
X239395000Y-372745000D03*
X239395000Y-375285000D03*
X247015000Y-375285000D03*
X247015000Y-372745000D03*
X247015000Y-370205000D03*
X247015000Y-367665000D03*
X247015000Y-365125000D03*
X247015000Y-362585000D03*
X247015000Y-360045000D03*
X198755000Y-367665000D03*
X198755000Y-365125000D03*
X198755000Y-362585000D03*
D14*
X198755000Y-360045000D03*
D13*
X198755000Y-370205000D03*
X198755000Y-372745000D03*
X198755000Y-375285000D03*
X198755000Y-377825000D03*
X206375000Y-377825000D03*
X206375000Y-375285000D03*
X206375000Y-372745000D03*
X206375000Y-370205000D03*
X206375000Y-367665000D03*
X206375000Y-365125000D03*
X206375000Y-362585000D03*
X206375000Y-360045000D03*
X198755000Y-329565000D03*
X198755000Y-327025000D03*
X198755000Y-324485000D03*
D14*
X198755000Y-321945000D03*
D13*
X198755000Y-332105000D03*
X198755000Y-334645000D03*
X198755000Y-337185000D03*
X198755000Y-339725000D03*
X206375000Y-339725000D03*
X206375000Y-337185000D03*
X206375000Y-334645000D03*
X206375000Y-332105000D03*
X206375000Y-329565000D03*
X206375000Y-327025000D03*
X206375000Y-324485000D03*
X206375000Y-321945000D03*
X178435000Y-367665000D03*
X178435000Y-365125000D03*
X178435000Y-362585000D03*
D14*
X178435000Y-360045000D03*
D13*
X178435000Y-370205000D03*
X178435000Y-372745000D03*
X178435000Y-375285000D03*
X178435000Y-377825000D03*
X186055000Y-377825000D03*
X186055000Y-375285000D03*
X186055000Y-372745000D03*
X186055000Y-370205000D03*
X186055000Y-367665000D03*
X186055000Y-365125000D03*
X186055000Y-362585000D03*
X186055000Y-360045000D03*
X219075000Y-367665000D03*
X219075000Y-365125000D03*
X219075000Y-362585000D03*
D14*
X219075000Y-360045000D03*
D13*
X219075000Y-370205000D03*
X219075000Y-372745000D03*
X219075000Y-375285000D03*
X219075000Y-377825000D03*
X226695000Y-377825000D03*
X226695000Y-375285000D03*
X226695000Y-372745000D03*
X226695000Y-370205000D03*
X226695000Y-367665000D03*
X226695000Y-365125000D03*
X226695000Y-362585000D03*
X226695000Y-360045000D03*
X178435000Y-329565000D03*
X178435000Y-327025000D03*
X178435000Y-324485000D03*
D14*
X178435000Y-321945000D03*
D13*
X178435000Y-332105000D03*
X178435000Y-334645000D03*
X178435000Y-337185000D03*
X178435000Y-339725000D03*
X186055000Y-339725000D03*
X186055000Y-337185000D03*
X186055000Y-334645000D03*
X186055000Y-332105000D03*
X186055000Y-329565000D03*
X186055000Y-327025000D03*
X186055000Y-324485000D03*
X186055000Y-321945000D03*
X186690000Y-139065000D03*
X186690000Y-136525000D03*
X186690000Y-133985000D03*
D14*
X186690000Y-131445000D03*
D13*
X186690000Y-141605000D03*
X186690000Y-144145000D03*
X186690000Y-146685000D03*
X186690000Y-149225000D03*
X194310000Y-149225000D03*
X194310000Y-146685000D03*
X194310000Y-144145000D03*
X194310000Y-141605000D03*
X194310000Y-139065000D03*
X194310000Y-136525000D03*
X194310000Y-133985000D03*
X194310000Y-131445000D03*
X198755000Y-291465000D03*
X198755000Y-288925000D03*
X198755000Y-286385000D03*
D14*
X198755000Y-283845000D03*
D13*
X198755000Y-294005000D03*
X198755000Y-296545000D03*
X198755000Y-299085000D03*
X198755000Y-301625000D03*
X206375000Y-301625000D03*
X206375000Y-299085000D03*
X206375000Y-296545000D03*
X206375000Y-294005000D03*
X206375000Y-291465000D03*
X206375000Y-288925000D03*
X206375000Y-286385000D03*
X206375000Y-283845000D03*
D14*
X198755000Y-243205000D03*
D13*
X198755000Y-245745000D03*
X198755000Y-248285000D03*
X198755000Y-250825000D03*
X198755000Y-253365000D03*
X198755000Y-255905000D03*
X198755000Y-258445000D03*
X198755000Y-260985000D03*
X198755000Y-263525000D03*
X198755000Y-266065000D03*
X206375000Y-266065000D03*
X206375000Y-263525000D03*
X206375000Y-260985000D03*
X206375000Y-258445000D03*
X206375000Y-255905000D03*
X206375000Y-253365000D03*
X206375000Y-250825000D03*
X206375000Y-248285000D03*
X206375000Y-245745000D03*
X206375000Y-243205000D03*
X198755000Y-215265000D03*
X198755000Y-212725000D03*
X198755000Y-210185000D03*
D14*
X198755000Y-207645000D03*
D13*
X198755000Y-217805000D03*
X198755000Y-220345000D03*
X198755000Y-222885000D03*
X198755000Y-225425000D03*
X206375000Y-225425000D03*
X206375000Y-222885000D03*
X206375000Y-220345000D03*
X206375000Y-217805000D03*
X206375000Y-215265000D03*
X206375000Y-212725000D03*
X206375000Y-210185000D03*
X206375000Y-207645000D03*
X198755000Y-177165000D03*
X198755000Y-174625000D03*
X198755000Y-172085000D03*
D14*
X198755000Y-169545000D03*
D13*
X198755000Y-179705000D03*
X198755000Y-182245000D03*
X198755000Y-184785000D03*
X198755000Y-187325000D03*
X206375000Y-187325000D03*
X206375000Y-184785000D03*
X206375000Y-182245000D03*
X206375000Y-179705000D03*
X206375000Y-177165000D03*
X206375000Y-174625000D03*
X206375000Y-172085000D03*
X206375000Y-169545000D03*
X200660000Y-139065000D03*
X200660000Y-136525000D03*
X200660000Y-133985000D03*
D14*
X200660000Y-131445000D03*
D13*
X200660000Y-141605000D03*
X200660000Y-144145000D03*
X200660000Y-146685000D03*
X200660000Y-149225000D03*
X208280000Y-149225000D03*
X208280000Y-146685000D03*
X208280000Y-144145000D03*
X208280000Y-141605000D03*
X208280000Y-139065000D03*
X208280000Y-136525000D03*
X208280000Y-133985000D03*
X208280000Y-131445000D03*
X178435000Y-291465000D03*
X178435000Y-288925000D03*
X178435000Y-286385000D03*
D14*
X178435000Y-283845000D03*
D13*
X178435000Y-294005000D03*
X178435000Y-296545000D03*
X178435000Y-299085000D03*
X178435000Y-301625000D03*
X186055000Y-301625000D03*
X186055000Y-299085000D03*
X186055000Y-296545000D03*
X186055000Y-294005000D03*
X186055000Y-291465000D03*
X186055000Y-288925000D03*
X186055000Y-286385000D03*
X186055000Y-283845000D03*
D14*
X178435000Y-243205000D03*
D13*
X178435000Y-245745000D03*
X178435000Y-248285000D03*
X178435000Y-250825000D03*
X178435000Y-253365000D03*
X178435000Y-255905000D03*
X178435000Y-258445000D03*
X178435000Y-260985000D03*
X178435000Y-263525000D03*
X178435000Y-266065000D03*
X186055000Y-266065000D03*
X186055000Y-263525000D03*
X186055000Y-260985000D03*
X186055000Y-258445000D03*
X186055000Y-255905000D03*
X186055000Y-253365000D03*
X186055000Y-250825000D03*
X186055000Y-248285000D03*
X186055000Y-245745000D03*
X186055000Y-243205000D03*
X178435000Y-215265000D03*
X178435000Y-212725000D03*
X178435000Y-210185000D03*
D14*
X178435000Y-207645000D03*
D13*
X178435000Y-217805000D03*
X178435000Y-220345000D03*
X178435000Y-222885000D03*
X178435000Y-225425000D03*
X186055000Y-225425000D03*
X186055000Y-222885000D03*
X186055000Y-220345000D03*
X186055000Y-217805000D03*
X186055000Y-215265000D03*
X186055000Y-212725000D03*
X186055000Y-210185000D03*
X186055000Y-207645000D03*
X178435000Y-177165000D03*
X178435000Y-174625000D03*
X178435000Y-172085000D03*
D14*
X178435000Y-169545000D03*
D13*
X178435000Y-179705000D03*
X178435000Y-182245000D03*
X178435000Y-184785000D03*
X178435000Y-187325000D03*
X186055000Y-187325000D03*
X186055000Y-184785000D03*
X186055000Y-182245000D03*
X186055000Y-179705000D03*
X186055000Y-177165000D03*
X186055000Y-174625000D03*
X186055000Y-172085000D03*
X186055000Y-169545000D03*
X172720000Y-141605000D03*
X172720000Y-139065000D03*
D14*
X172720000Y-133985000D03*
D13*
X172720000Y-136525000D03*
X172720000Y-144145000D03*
X172720000Y-146685000D03*
X172720000Y-149225000D03*
X180340000Y-149225000D03*
X180340000Y-146685000D03*
X180340000Y-144145000D03*
X180340000Y-141605000D03*
X180340000Y-139065000D03*
X180340000Y-136525000D03*
X180340000Y-133985000D03*
X299720000Y-139065000D03*
X299720000Y-136525000D03*
X299720000Y-133985000D03*
D14*
X299720000Y-131445000D03*
D13*
X299720000Y-141605000D03*
X299720000Y-144145000D03*
X299720000Y-146685000D03*
X299720000Y-149225000D03*
X307340000Y-149225000D03*
X307340000Y-146685000D03*
X307340000Y-144145000D03*
X307340000Y-141605000D03*
X307340000Y-139065000D03*
X307340000Y-136525000D03*
X307340000Y-133985000D03*
X307340000Y-131445000D03*
X270510000Y-139065000D03*
X270510000Y-136525000D03*
X270510000Y-133985000D03*
D14*
X270510000Y-131445000D03*
D13*
X270510000Y-141605000D03*
X270510000Y-144145000D03*
X270510000Y-146685000D03*
X270510000Y-149225000D03*
X278130000Y-149225000D03*
X278130000Y-146685000D03*
X278130000Y-144145000D03*
X278130000Y-141605000D03*
X278130000Y-139065000D03*
X278130000Y-136525000D03*
X278130000Y-133985000D03*
X278130000Y-131445000D03*
D14*
X284480000Y-128905000D03*
D13*
X284480000Y-131445000D03*
X284480000Y-133985000D03*
X284480000Y-136525000D03*
X284480000Y-139065000D03*
X284480000Y-141605000D03*
X284480000Y-144145000D03*
X284480000Y-146685000D03*
X284480000Y-149225000D03*
X284480000Y-151765000D03*
X292100000Y-151765000D03*
X292100000Y-149225000D03*
X292100000Y-146685000D03*
X292100000Y-144145000D03*
X292100000Y-141605000D03*
X292100000Y-139065000D03*
X292100000Y-136525000D03*
X292100000Y-133985000D03*
X292100000Y-131445000D03*
X292100000Y-128905000D03*
X256540000Y-139065000D03*
X256540000Y-136525000D03*
X256540000Y-133985000D03*
D14*
X256540000Y-131445000D03*
D13*
X256540000Y-141605000D03*
X256540000Y-144145000D03*
X256540000Y-146685000D03*
X256540000Y-149225000D03*
X264160000Y-149225000D03*
X264160000Y-146685000D03*
X264160000Y-144145000D03*
X264160000Y-141605000D03*
X264160000Y-139065000D03*
X264160000Y-136525000D03*
X264160000Y-133985000D03*
X264160000Y-131445000D03*
X228600000Y-139065000D03*
X228600000Y-136525000D03*
X228600000Y-133985000D03*
D14*
X228600000Y-131445000D03*
D13*
X228600000Y-141605000D03*
X228600000Y-144145000D03*
X228600000Y-146685000D03*
X228600000Y-149225000D03*
X236220000Y-149225000D03*
X236220000Y-146685000D03*
X236220000Y-144145000D03*
X236220000Y-141605000D03*
X236220000Y-139065000D03*
X236220000Y-136525000D03*
X236220000Y-133985000D03*
X236220000Y-131445000D03*
D14*
X242570000Y-128905000D03*
D13*
X242570000Y-131445000D03*
X242570000Y-133985000D03*
X242570000Y-136525000D03*
X242570000Y-139065000D03*
X242570000Y-141605000D03*
X242570000Y-144145000D03*
X242570000Y-146685000D03*
X242570000Y-149225000D03*
X242570000Y-151765000D03*
X250190000Y-151765000D03*
X250190000Y-149225000D03*
X250190000Y-146685000D03*
X250190000Y-144145000D03*
X250190000Y-141605000D03*
X250190000Y-139065000D03*
X250190000Y-136525000D03*
X250190000Y-133985000D03*
X250190000Y-131445000D03*
X250190000Y-128905000D03*
X214630000Y-139065000D03*
X214630000Y-136525000D03*
X214630000Y-133985000D03*
D14*
X214630000Y-131445000D03*
D13*
X214630000Y-141605000D03*
X214630000Y-144145000D03*
X214630000Y-146685000D03*
X214630000Y-149225000D03*
X222250000Y-149225000D03*
X222250000Y-146685000D03*
X222250000Y-144145000D03*
X222250000Y-141605000D03*
X222250000Y-139065000D03*
X222250000Y-136525000D03*
X222250000Y-133985000D03*
X222250000Y-131445000D03*
X299720000Y-177165000D03*
X299720000Y-174625000D03*
X299720000Y-172085000D03*
D14*
X299720000Y-169545000D03*
D13*
X299720000Y-179705000D03*
X299720000Y-182245000D03*
X299720000Y-184785000D03*
X299720000Y-187325000D03*
X307340000Y-187325000D03*
X307340000Y-184785000D03*
X307340000Y-182245000D03*
X307340000Y-179705000D03*
X307340000Y-177165000D03*
X307340000Y-174625000D03*
X307340000Y-172085000D03*
X307340000Y-169545000D03*
X279400000Y-179705000D03*
X279400000Y-177165000D03*
D14*
X279400000Y-172085000D03*
D13*
X279400000Y-174625000D03*
X279400000Y-182245000D03*
X279400000Y-184785000D03*
X279400000Y-187325000D03*
X287020000Y-187325000D03*
X287020000Y-184785000D03*
X287020000Y-182245000D03*
X287020000Y-179705000D03*
X287020000Y-177165000D03*
X287020000Y-174625000D03*
X287020000Y-172085000D03*
X259080000Y-177165000D03*
X259080000Y-174625000D03*
X259080000Y-172085000D03*
D14*
X259080000Y-169545000D03*
D13*
X259080000Y-179705000D03*
X259080000Y-182245000D03*
X259080000Y-184785000D03*
X259080000Y-187325000D03*
X266700000Y-187325000D03*
X266700000Y-184785000D03*
X266700000Y-182245000D03*
X266700000Y-179705000D03*
X266700000Y-177165000D03*
X266700000Y-174625000D03*
X266700000Y-172085000D03*
X266700000Y-169545000D03*
X239395000Y-177165000D03*
X239395000Y-174625000D03*
X239395000Y-172085000D03*
D14*
X239395000Y-169545000D03*
D13*
X239395000Y-179705000D03*
X239395000Y-182245000D03*
X239395000Y-184785000D03*
X239395000Y-187325000D03*
X247015000Y-187325000D03*
X247015000Y-184785000D03*
X247015000Y-182245000D03*
X247015000Y-179705000D03*
X247015000Y-177165000D03*
X247015000Y-174625000D03*
X247015000Y-172085000D03*
X247015000Y-169545000D03*
X219075000Y-177165000D03*
X219075000Y-174625000D03*
X219075000Y-172085000D03*
D14*
X219075000Y-169545000D03*
D13*
X219075000Y-179705000D03*
X219075000Y-182245000D03*
X219075000Y-184785000D03*
X219075000Y-187325000D03*
X226695000Y-187325000D03*
X226695000Y-184785000D03*
X226695000Y-182245000D03*
X226695000Y-179705000D03*
X226695000Y-177165000D03*
X226695000Y-174625000D03*
X226695000Y-172085000D03*
X226695000Y-169545000D03*
X280035000Y-329565000D03*
X280035000Y-327025000D03*
D14*
X280035000Y-321945000D03*
D13*
X280035000Y-324485000D03*
X280035000Y-332105000D03*
X280035000Y-334645000D03*
X280035000Y-337185000D03*
X287655000Y-337185000D03*
X287655000Y-334645000D03*
X287655000Y-332105000D03*
X287655000Y-329565000D03*
X287655000Y-327025000D03*
X287655000Y-324485000D03*
X287655000Y-321945000D03*
X280035000Y-294005000D03*
X280035000Y-291465000D03*
D14*
X280035000Y-286385000D03*
D13*
X280035000Y-288925000D03*
X280035000Y-296545000D03*
X280035000Y-299085000D03*
X280035000Y-301625000D03*
X287655000Y-301625000D03*
X287655000Y-299085000D03*
X287655000Y-296545000D03*
X287655000Y-294005000D03*
X287655000Y-291465000D03*
X287655000Y-288925000D03*
X287655000Y-286385000D03*
X280035000Y-253365000D03*
X280035000Y-250825000D03*
X280035000Y-248285000D03*
D14*
X280035000Y-245745000D03*
D13*
X280035000Y-255905000D03*
X280035000Y-258445000D03*
X280035000Y-260985000D03*
X280035000Y-263525000D03*
X287655000Y-263525000D03*
X287655000Y-260985000D03*
X287655000Y-258445000D03*
X287655000Y-255905000D03*
X287655000Y-253365000D03*
X287655000Y-250825000D03*
X287655000Y-248285000D03*
X287655000Y-245745000D03*
X280035000Y-217805000D03*
X280035000Y-215265000D03*
D14*
X280035000Y-210185000D03*
D13*
X280035000Y-212725000D03*
X280035000Y-220345000D03*
X280035000Y-222885000D03*
X280035000Y-225425000D03*
X287655000Y-225425000D03*
X287655000Y-222885000D03*
X287655000Y-220345000D03*
X287655000Y-217805000D03*
X287655000Y-215265000D03*
X287655000Y-212725000D03*
X287655000Y-210185000D03*
X239395000Y-329565000D03*
X239395000Y-327025000D03*
D14*
X239395000Y-321945000D03*
D13*
X239395000Y-324485000D03*
X239395000Y-332105000D03*
X239395000Y-334645000D03*
X239395000Y-337185000D03*
X247015000Y-337185000D03*
X247015000Y-334645000D03*
X247015000Y-332105000D03*
X247015000Y-329565000D03*
X247015000Y-327025000D03*
X247015000Y-324485000D03*
X247015000Y-321945000D03*
X239395000Y-294005000D03*
X239395000Y-291465000D03*
D14*
X239395000Y-286385000D03*
D13*
X239395000Y-288925000D03*
X239395000Y-296545000D03*
X239395000Y-299085000D03*
X239395000Y-301625000D03*
X247015000Y-301625000D03*
X247015000Y-299085000D03*
X247015000Y-296545000D03*
X247015000Y-294005000D03*
X247015000Y-291465000D03*
X247015000Y-288925000D03*
X247015000Y-286385000D03*
X239395000Y-253365000D03*
X239395000Y-250825000D03*
X239395000Y-248285000D03*
D14*
X239395000Y-245745000D03*
D13*
X239395000Y-255905000D03*
X239395000Y-258445000D03*
X239395000Y-260985000D03*
X239395000Y-263525000D03*
X247015000Y-263525000D03*
X247015000Y-260985000D03*
X247015000Y-258445000D03*
X247015000Y-255905000D03*
X247015000Y-253365000D03*
X247015000Y-250825000D03*
X247015000Y-248285000D03*
X247015000Y-245745000D03*
X239395000Y-215265000D03*
X239395000Y-212725000D03*
X239395000Y-210185000D03*
D14*
X239395000Y-207645000D03*
D13*
X239395000Y-217805000D03*
X239395000Y-220345000D03*
X239395000Y-222885000D03*
X239395000Y-225425000D03*
X247015000Y-225425000D03*
X247015000Y-222885000D03*
X247015000Y-220345000D03*
X247015000Y-217805000D03*
X247015000Y-215265000D03*
X247015000Y-212725000D03*
X247015000Y-210185000D03*
X247015000Y-207645000D03*
X219075000Y-329565000D03*
X219075000Y-327025000D03*
D14*
X219075000Y-321945000D03*
D13*
X219075000Y-324485000D03*
X219075000Y-332105000D03*
X219075000Y-334645000D03*
X219075000Y-337185000D03*
X226695000Y-337185000D03*
X226695000Y-334645000D03*
X226695000Y-332105000D03*
X226695000Y-329565000D03*
X226695000Y-327025000D03*
X226695000Y-324485000D03*
X226695000Y-321945000D03*
X219075000Y-294005000D03*
X219075000Y-291465000D03*
D14*
X219075000Y-286385000D03*
D13*
X219075000Y-288925000D03*
X219075000Y-296545000D03*
X219075000Y-299085000D03*
X219075000Y-301625000D03*
X226695000Y-301625000D03*
X226695000Y-299085000D03*
X226695000Y-296545000D03*
X226695000Y-294005000D03*
X226695000Y-291465000D03*
X226695000Y-288925000D03*
X226695000Y-286385000D03*
X219075000Y-253365000D03*
X219075000Y-250825000D03*
X219075000Y-248285000D03*
D14*
X219075000Y-245745000D03*
D13*
X219075000Y-255905000D03*
X219075000Y-258445000D03*
X219075000Y-260985000D03*
X219075000Y-263525000D03*
X226695000Y-263525000D03*
X226695000Y-260985000D03*
X226695000Y-258445000D03*
X226695000Y-255905000D03*
X226695000Y-253365000D03*
X226695000Y-250825000D03*
X226695000Y-248285000D03*
X226695000Y-245745000D03*
X219075000Y-215265000D03*
X219075000Y-212725000D03*
X219075000Y-210185000D03*
D14*
X219075000Y-207645000D03*
D13*
X219075000Y-217805000D03*
X219075000Y-220345000D03*
X219075000Y-222885000D03*
X219075000Y-225425000D03*
X226695000Y-225425000D03*
X226695000Y-222885000D03*
X226695000Y-220345000D03*
X226695000Y-217805000D03*
X226695000Y-215265000D03*
X226695000Y-212725000D03*
X226695000Y-210185000D03*
X226695000Y-207645000D03*
X168275000Y-354965000D03*
X170815000Y-354965000D03*
X173355000Y-354965000D03*
D14*
X175895000Y-354965000D03*
D13*
X165735000Y-354965000D03*
X163195000Y-354965000D03*
X160655000Y-354965000D03*
X158115000Y-354965000D03*
X192405000Y-354965000D03*
X194945000Y-354965000D03*
X197485000Y-354965000D03*
D14*
X200025000Y-354965000D03*
D13*
X189865000Y-354965000D03*
X187325000Y-354965000D03*
X184785000Y-354965000D03*
X182245000Y-354965000D03*
X259715000Y-329565000D03*
X259715000Y-327025000D03*
X259715000Y-324485000D03*
D14*
X259715000Y-321945000D03*
D13*
X259715000Y-332105000D03*
X259715000Y-334645000D03*
X259715000Y-337185000D03*
X259715000Y-339725000D03*
X267335000Y-339725000D03*
X267335000Y-337185000D03*
X267335000Y-334645000D03*
X267335000Y-332105000D03*
X267335000Y-329565000D03*
X267335000Y-327025000D03*
X267335000Y-324485000D03*
X267335000Y-321945000D03*
X259715000Y-294005000D03*
X259715000Y-291465000D03*
D14*
X259715000Y-286385000D03*
D13*
X259715000Y-288925000D03*
X259715000Y-296545000D03*
X259715000Y-299085000D03*
X259715000Y-301625000D03*
X267335000Y-301625000D03*
X267335000Y-299085000D03*
X267335000Y-296545000D03*
X267335000Y-294005000D03*
X267335000Y-291465000D03*
X267335000Y-288925000D03*
X267335000Y-286385000D03*
X259715000Y-253365000D03*
X259715000Y-250825000D03*
X259715000Y-248285000D03*
D14*
X259715000Y-245745000D03*
D13*
X259715000Y-255905000D03*
X259715000Y-258445000D03*
X259715000Y-260985000D03*
X259715000Y-263525000D03*
X267335000Y-263525000D03*
X267335000Y-260985000D03*
X267335000Y-258445000D03*
X267335000Y-255905000D03*
X267335000Y-253365000D03*
X267335000Y-250825000D03*
X267335000Y-248285000D03*
X267335000Y-245745000D03*
X259080000Y-215265000D03*
X259080000Y-212725000D03*
X259080000Y-210185000D03*
D14*
X259080000Y-207645000D03*
D13*
X259080000Y-217805000D03*
X259080000Y-220345000D03*
X259080000Y-222885000D03*
X259080000Y-225425000D03*
X266700000Y-225425000D03*
X266700000Y-222885000D03*
X266700000Y-220345000D03*
X266700000Y-217805000D03*
X266700000Y-215265000D03*
X266700000Y-212725000D03*
X266700000Y-210185000D03*
X266700000Y-207645000D03*
X299720000Y-255905000D03*
X299720000Y-253365000D03*
D14*
X299720000Y-248285000D03*
D13*
X299720000Y-250825000D03*
X299720000Y-258445000D03*
X299720000Y-260985000D03*
X299720000Y-263525000D03*
X307340000Y-263525000D03*
X307340000Y-260985000D03*
X307340000Y-258445000D03*
X307340000Y-255905000D03*
X307340000Y-253365000D03*
X307340000Y-250825000D03*
X307340000Y-248285000D03*
X198755000Y-405765000D03*
X198755000Y-403225000D03*
X198755000Y-400685000D03*
D14*
X198755000Y-398145000D03*
D13*
X198755000Y-408305000D03*
X198755000Y-410845000D03*
X198755000Y-413385000D03*
X198755000Y-415925000D03*
X206375000Y-415925000D03*
X206375000Y-413385000D03*
X206375000Y-410845000D03*
X206375000Y-408305000D03*
X206375000Y-405765000D03*
X206375000Y-403225000D03*
X206375000Y-400685000D03*
X206375000Y-398145000D03*
D11*
X34925000Y-318770000D03*
X34925000Y-328295000D03*
X76835000Y-319405000D03*
X66675000Y-319405000D03*
D13*
X76835000Y-100965000D03*
X76835000Y-98425000D03*
X76835000Y-95885000D03*
D14*
X76835000Y-93345000D03*
D13*
X76835000Y-103505000D03*
X76835000Y-106045000D03*
X76835000Y-108585000D03*
X76835000Y-111125000D03*
X84455000Y-111125000D03*
X84455000Y-108585000D03*
X84455000Y-106045000D03*
X84455000Y-103505000D03*
X84455000Y-100965000D03*
X84455000Y-98425000D03*
X84455000Y-95885000D03*
X84455000Y-93345000D03*
D11*
X43815000Y-427355000D03*
X34290000Y-427355000D03*
X125095000Y-427355000D03*
X115570000Y-427355000D03*
X203835000Y-425450000D03*
X194310000Y-425450000D03*
D13*
X297180000Y-430199800D03*
D11*
X297180000Y-439724800D03*
X253365000Y-433705000D03*
X253365000Y-443865000D03*
X294005000Y-430225200D03*
X294005000Y-440385200D03*
X255270000Y-421309800D03*
X245745000Y-421309800D03*
X43815000Y-387350000D03*
X34290000Y-387350000D03*
X133985000Y-398780000D03*
X133985000Y-408305000D03*
X212090000Y-397510000D03*
X212090000Y-407035000D03*
X254635000Y-391160000D03*
X254635000Y-386080000D03*
X158115000Y-384175000D03*
X163195000Y-384175000D03*
X107315000Y-412115000D03*
X107315000Y-417195000D03*
D18*
X59690000Y-37465000D03*
X59690000Y-36195000D03*
X33274000Y-36195000D03*
X33274000Y-37465000D03*
X33274000Y-38735000D03*
D19*
X71120000Y-33655000D03*
X173990000Y-33655000D03*
D11*
X114935000Y-262255000D03*
X125095000Y-262255000D03*
X114935000Y-259080000D03*
X125095000Y-259080000D03*
X114935000Y-255905000D03*
X125095000Y-255905000D03*
X114935000Y-252730000D03*
X125095000Y-252730000D03*
X114935000Y-249555000D03*
X125095000Y-249555000D03*
X125095000Y-246380000D03*
X114935000Y-246380000D03*
D10*
G36*
X308410000Y-427790000D02*
X317700000Y-427790000D01*
X317700000Y-429460000D01*
X308410000Y-429460000D01*
X308410000Y-427790000D01*
X308410000Y-427790000D01*
G37*
G36*
X308410000Y-425250000D02*
X317700000Y-425250000D01*
X317700000Y-426920000D01*
X308410000Y-426920000D01*
X308410000Y-425250000D01*
X308410000Y-425250000D01*
G37*
G36*
X308410000Y-422710000D02*
X317700000Y-422710000D01*
X317700000Y-424380000D01*
X308410000Y-424380000D01*
X308410000Y-422710000D01*
X308410000Y-422710000D01*
G37*
G36*
X308410000Y-420170000D02*
X317700000Y-420170000D01*
X317700000Y-421840000D01*
X308410000Y-421840000D01*
X308410000Y-420170000D01*
X308410000Y-420170000D01*
G37*
G36*
X308410000Y-417630000D02*
X317700000Y-417630000D01*
X317700000Y-419300000D01*
X308410000Y-419300000D01*
X308410000Y-417630000D01*
X308410000Y-417630000D01*
G37*
G36*
X308410000Y-415090000D02*
X317700000Y-415090000D01*
X317700000Y-416760000D01*
X308410000Y-416760000D01*
X308410000Y-415090000D01*
X308410000Y-415090000D01*
G37*
G36*
X308410000Y-412550000D02*
X317700000Y-412550000D01*
X317700000Y-414220000D01*
X308410000Y-414220000D01*
X308410000Y-412550000D01*
X308410000Y-412550000D01*
G37*
G36*
X308410000Y-410010000D02*
X317700000Y-410010000D01*
X317700000Y-411680000D01*
X308410000Y-411680000D01*
X308410000Y-410010000D01*
X308410000Y-410010000D01*
G37*
G36*
X308410000Y-407470000D02*
X317700000Y-407470000D01*
X317700000Y-409140000D01*
X308410000Y-409140000D01*
X308410000Y-407470000D01*
X308410000Y-407470000D01*
G37*
G36*
X308410000Y-404930000D02*
X317700000Y-404930000D01*
X317700000Y-406600000D01*
X308410000Y-406600000D01*
X308410000Y-404930000D01*
X308410000Y-404930000D01*
G37*
G36*
X308410000Y-402390000D02*
X317700000Y-402390000D01*
X317700000Y-404060000D01*
X308410000Y-404060000D01*
X308410000Y-402390000D01*
X308410000Y-402390000D01*
G37*
G36*
X308410000Y-399850000D02*
X317700000Y-399850000D01*
X317700000Y-401520000D01*
X308410000Y-401520000D01*
X308410000Y-399850000D01*
X308410000Y-399850000D01*
G37*
G36*
X308410000Y-397310000D02*
X317700000Y-397310000D01*
X317700000Y-398980000D01*
X308410000Y-398980000D01*
X308410000Y-397310000D01*
X308410000Y-397310000D01*
G37*
G36*
X308410000Y-394770000D02*
X317700000Y-394770000D01*
X317700000Y-396440000D01*
X308410000Y-396440000D01*
X308410000Y-394770000D01*
X308410000Y-394770000D01*
G37*
G36*
X308410000Y-392230000D02*
X317700000Y-392230000D01*
X317700000Y-393900000D01*
X308410000Y-393900000D01*
X308410000Y-392230000D01*
X308410000Y-392230000D01*
G37*
G36*
X308410000Y-389690000D02*
X317700000Y-389690000D01*
X317700000Y-391360000D01*
X308410000Y-391360000D01*
X308410000Y-389690000D01*
X308410000Y-389690000D01*
G37*
G36*
X308410000Y-387150000D02*
X317700000Y-387150000D01*
X317700000Y-388820000D01*
X308410000Y-388820000D01*
X308410000Y-387150000D01*
X308410000Y-387150000D01*
G37*
G36*
X308410000Y-384610000D02*
X317700000Y-384610000D01*
X317700000Y-386280000D01*
X308410000Y-386280000D01*
X308410000Y-384610000D01*
X308410000Y-384610000D01*
G37*
G36*
X308410000Y-382070000D02*
X317700000Y-382070000D01*
X317700000Y-383740000D01*
X308410000Y-383740000D01*
X308410000Y-382070000D01*
X308410000Y-382070000D01*
G37*
G36*
X308410000Y-379530000D02*
X317700000Y-379530000D01*
X317700000Y-381200000D01*
X308410000Y-381200000D01*
X308410000Y-379530000D01*
X308410000Y-379530000D01*
G37*
G36*
X308410000Y-376990000D02*
X317700000Y-376990000D01*
X317700000Y-378660000D01*
X308410000Y-378660000D01*
X308410000Y-376990000D01*
X308410000Y-376990000D01*
G37*
G36*
X308410000Y-374450000D02*
X317700000Y-374450000D01*
X317700000Y-376120000D01*
X308410000Y-376120000D01*
X308410000Y-374450000D01*
X308410000Y-374450000D01*
G37*
G36*
X308410000Y-371910000D02*
X317700000Y-371910000D01*
X317700000Y-373580000D01*
X308410000Y-373580000D01*
X308410000Y-371910000D01*
X308410000Y-371910000D01*
G37*
G36*
X308410000Y-369370000D02*
X317700000Y-369370000D01*
X317700000Y-371040000D01*
X308410000Y-371040000D01*
X308410000Y-369370000D01*
X308410000Y-369370000D01*
G37*
G36*
X308410000Y-366830000D02*
X317700000Y-366830000D01*
X317700000Y-368500000D01*
X308410000Y-368500000D01*
X308410000Y-366830000D01*
X308410000Y-366830000D01*
G37*
D13*
X117475000Y-405765000D03*
X117475000Y-403225000D03*
X117475000Y-400685000D03*
D14*
X117475000Y-398145000D03*
D13*
X117475000Y-408305000D03*
X117475000Y-410845000D03*
X117475000Y-413385000D03*
X117475000Y-415925000D03*
X125095000Y-415925000D03*
X125095000Y-413385000D03*
X125095000Y-410845000D03*
X125095000Y-408305000D03*
X125095000Y-405765000D03*
X125095000Y-403225000D03*
X125095000Y-400685000D03*
X125095000Y-398145000D03*
D20*
X164490400Y-24130000D03*
X160528000Y-24130000D03*
X156565600Y-24130000D03*
X152603200Y-24130000D03*
X148640800Y-24130000D03*
X144678400Y-24130000D03*
X140716000Y-24130000D03*
X136753600Y-24130000D03*
X132791200Y-24130000D03*
X128828800Y-24130000D03*
X124866400Y-24130000D03*
X120904000Y-24130000D03*
X116941600Y-24130000D03*
X112979200Y-24130000D03*
X109016800Y-24130000D03*
X105054400Y-24130000D03*
X101092000Y-24130000D03*
X97129600Y-24130000D03*
X93167200Y-24130000D03*
D21*
X89052400Y-24130000D03*
D20*
X85242400Y-24130000D03*
X81280000Y-24130000D03*
D11*
X43815000Y-243205000D03*
X34290000Y-243205000D03*
X44450000Y-240665000D03*
X34290000Y-240665000D03*
X44450000Y-238125000D03*
X34290000Y-238125000D03*
X44450000Y-235585000D03*
X34290000Y-235585000D03*
X44450000Y-233045000D03*
X34290000Y-233045000D03*
X74295000Y-240665000D03*
D13*
X84455000Y-240665000D03*
D11*
X74295000Y-238125000D03*
D13*
X84455000Y-238125000D03*
D11*
X74295000Y-235585000D03*
X84455000Y-235585000D03*
X74295000Y-233045000D03*
X84455000Y-233045000D03*
X84455000Y-224790000D03*
X74295000Y-224790000D03*
X99060000Y-231775000D03*
X109220000Y-231775000D03*
X96520000Y-234315000D03*
X86360000Y-234315000D03*
X106045000Y-224790000D03*
X95885000Y-224790000D03*
X34290000Y-117475000D03*
X44450000Y-117475000D03*
X34290000Y-114935000D03*
X44450000Y-114935000D03*
X62865000Y-121285000D03*
X52705000Y-121285000D03*
X62865000Y-118745000D03*
X52705000Y-118745000D03*
X61595000Y-113665000D03*
X51435000Y-113665000D03*
X65405000Y-125095000D03*
X75565000Y-125095000D03*
X65405000Y-122555000D03*
X75565000Y-122555000D03*
X65405000Y-120015000D03*
X75565000Y-120015000D03*
X65405000Y-117475000D03*
X75565000Y-117475000D03*
X97155000Y-123825000D03*
X86995000Y-123825000D03*
X46990000Y-182880000D03*
X46990000Y-172720000D03*
X49530000Y-172720000D03*
X49530000Y-182880000D03*
X78105000Y-126365000D03*
X78105000Y-116205000D03*
X61595000Y-116205000D03*
X51435000Y-116205000D03*
D13*
X307340000Y-427355000D03*
X307340000Y-424815000D03*
D11*
X148590000Y-358775000D03*
X148590000Y-368300000D03*
X215265000Y-359410000D03*
X215265000Y-368935000D03*
X43815000Y-352425000D03*
X34290000Y-352425000D03*
X220345000Y-342900000D03*
X230505000Y-342900000D03*
X299085000Y-325755000D03*
X309245000Y-325755000D03*
X241300000Y-342900000D03*
X246380000Y-342900000D03*
X291465000Y-354330000D03*
X286385000Y-354330000D03*
X290830000Y-321310000D03*
X290830000Y-330835000D03*
X295910000Y-332105000D03*
X295910000Y-322580000D03*
X295910000Y-347345000D03*
D13*
X295910000Y-337185000D03*
D22*
X301625000Y-302895000D03*
X301625000Y-297815000D03*
X302260000Y-332105000D03*
X302260000Y-337185000D03*
D11*
X299085000Y-321945000D03*
X309245000Y-321945000D03*
X114300000Y-323850000D03*
X114300000Y-333375000D03*
X213995000Y-321310000D03*
X213995000Y-330835000D03*
D13*
X299720000Y-56515000D03*
D14*
X299720000Y-53975000D03*
D13*
X299720000Y-59055000D03*
X299720000Y-61595000D03*
X307340000Y-61595000D03*
X307340000Y-59055000D03*
X307340000Y-56515000D03*
X307340000Y-53975000D03*
X274320000Y-100965000D03*
X274320000Y-98425000D03*
X274320000Y-95885000D03*
D14*
X274320000Y-93345000D03*
D13*
X274320000Y-103505000D03*
X274320000Y-106045000D03*
X274320000Y-108585000D03*
X274320000Y-111125000D03*
X281940000Y-111125000D03*
X281940000Y-108585000D03*
X281940000Y-106045000D03*
X281940000Y-103505000D03*
X281940000Y-100965000D03*
X281940000Y-98425000D03*
X281940000Y-95885000D03*
X281940000Y-93345000D03*
X279400000Y-53975000D03*
X279400000Y-51435000D03*
D14*
X279400000Y-46355000D03*
D13*
X279400000Y-48895000D03*
X279400000Y-56515000D03*
X279400000Y-59055000D03*
X279400000Y-61595000D03*
X287020000Y-61595000D03*
X287020000Y-59055000D03*
X287020000Y-56515000D03*
X287020000Y-53975000D03*
X287020000Y-51435000D03*
X287020000Y-48895000D03*
X287020000Y-46355000D03*
X233045000Y-100965000D03*
X233045000Y-98425000D03*
X233045000Y-95885000D03*
D14*
X233045000Y-93345000D03*
D13*
X233045000Y-103505000D03*
X233045000Y-106045000D03*
X233045000Y-108585000D03*
X233045000Y-111125000D03*
X240665000Y-111125000D03*
X240665000Y-108585000D03*
X240665000Y-106045000D03*
X240665000Y-103505000D03*
X240665000Y-100965000D03*
X240665000Y-98425000D03*
X240665000Y-95885000D03*
X240665000Y-93345000D03*
X238760000Y-53975000D03*
X238760000Y-51435000D03*
D14*
X238760000Y-46355000D03*
D13*
X238760000Y-48895000D03*
X238760000Y-56515000D03*
X238760000Y-59055000D03*
X238760000Y-61595000D03*
X246380000Y-61595000D03*
X246380000Y-59055000D03*
X246380000Y-56515000D03*
X246380000Y-53975000D03*
X246380000Y-51435000D03*
X246380000Y-48895000D03*
X246380000Y-46355000D03*
X99060000Y-52070000D03*
D14*
X99060000Y-49530000D03*
D13*
X99060000Y-54610000D03*
X99060000Y-57150000D03*
X106680000Y-57150000D03*
X106680000Y-54610000D03*
X106680000Y-52070000D03*
X106680000Y-49530000D03*
X187960000Y-471805000D03*
X67310000Y-480695000D03*
X69850000Y-485775000D03*
X68580000Y-483235000D03*
X66675000Y-488315000D03*
X191135000Y-494665000D03*
X192913000Y-492125000D03*
X194564000Y-489585000D03*
X196215000Y-487045000D03*
X191135000Y-471170000D03*
X191135000Y-474345000D03*
X196215000Y-475615000D03*
X196850000Y-478155000D03*
X282575000Y-471805000D03*
X287020000Y-469900000D03*
X285115000Y-467995000D03*
X86995000Y-466725000D03*
X98425000Y-466090000D03*
X127635000Y-465455000D03*
X121920000Y-465455000D03*
X152400000Y-466725000D03*
X167640000Y-466090000D03*
X186055000Y-466090000D03*
X189230000Y-463550000D03*
X236855000Y-461645000D03*
X260985000Y-462280000D03*
X119380000Y-466725000D03*
X47625000Y-443865000D03*
X48260000Y-446405000D03*
X50800000Y-447675000D03*
X52070000Y-450215000D03*
X45720000Y-456565000D03*
X127635000Y-454025000D03*
X130175000Y-454025000D03*
X136398000Y-455930000D03*
X189865000Y-455295000D03*
X217170000Y-451485000D03*
X215900000Y-448945000D03*
X214630000Y-446405000D03*
X213360000Y-443865000D03*
X230505000Y-454025000D03*
X232029000Y-440055000D03*
X255905000Y-434340000D03*
X250825000Y-442595000D03*
X257175000Y-448945000D03*
X274955000Y-439420000D03*
X272415000Y-441325000D03*
X271145000Y-445135000D03*
X274320000Y-436245000D03*
X269240000Y-446405000D03*
X290830000Y-438785000D03*
X292100000Y-443865000D03*
D11*
X34290000Y-432739800D03*
D13*
X297180000Y-428307500D03*
X297180000Y-426389800D03*
X295910000Y-381000000D03*
X297815000Y-381000000D03*
X36195000Y-430530000D03*
X41910000Y-429260000D03*
X62865000Y-430530000D03*
X63500000Y-426085000D03*
X66040000Y-427355000D03*
X67945000Y-427990000D03*
X73660000Y-430530000D03*
X69850000Y-428625000D03*
X71755000Y-429895000D03*
X75565000Y-431165000D03*
X132080000Y-429260000D03*
X134620000Y-429895000D03*
X138430000Y-430530000D03*
X140970000Y-430530000D03*
X143510000Y-430530000D03*
X176530000Y-424815000D03*
X180340000Y-424180000D03*
X184785000Y-423545000D03*
X196850000Y-422275000D03*
X200025000Y-421640000D03*
X203200000Y-421640000D03*
X206375000Y-421005000D03*
X229235000Y-428625000D03*
X232029000Y-428625000D03*
X234315000Y-429260000D03*
X236855000Y-429895000D03*
X245110000Y-429895000D03*
X247015000Y-429895000D03*
X275590000Y-426085000D03*
X277495000Y-426085000D03*
X287020000Y-427990000D03*
X288925000Y-427990000D03*
X259715000Y-421005000D03*
X262255000Y-421005000D03*
X264795000Y-421005000D03*
X267335000Y-421005000D03*
X269875000Y-421005000D03*
X272415000Y-421005000D03*
X274955000Y-421005000D03*
X277495000Y-421005000D03*
X280035000Y-421005000D03*
X282575000Y-421005000D03*
X285115000Y-421005000D03*
X287655000Y-421005000D03*
X291465000Y-420370000D03*
X293624000Y-420370000D03*
X286385000Y-422910000D03*
X281305000Y-422910000D03*
X307340000Y-422275000D03*
X307340000Y-419735000D03*
X307340000Y-417195000D03*
X307340000Y-414655000D03*
X307340000Y-412115000D03*
X307340000Y-409575000D03*
X307340000Y-407035000D03*
X307340000Y-404495000D03*
X307340000Y-401955000D03*
X307340000Y-399415000D03*
X307340000Y-396875000D03*
X307340000Y-394335000D03*
X307340000Y-391795000D03*
X307340000Y-368935000D03*
X307340000Y-371475000D03*
X293624000Y-381000000D03*
X291465000Y-381000000D03*
X236855000Y-401320000D03*
X236855000Y-403225000D03*
X236855000Y-405130000D03*
X236855000Y-407035000D03*
X236855000Y-408940000D03*
X236855000Y-410845000D03*
X236855000Y-412750000D03*
X236855000Y-414655000D03*
X229235000Y-418465000D03*
X229235000Y-415925000D03*
X229235000Y-413385000D03*
X229235000Y-410845000D03*
X229235000Y-408305000D03*
X229235000Y-405765000D03*
X229235000Y-403225000D03*
X229235000Y-400685000D03*
X229235000Y-398145000D03*
X229235000Y-395605000D03*
X54610000Y-395605000D03*
D11*
X34290000Y-390829800D03*
D13*
X80645000Y-419100000D03*
X80645000Y-417195000D03*
X80645000Y-414655000D03*
D14*
X221615000Y-395605000D03*
D13*
X221615000Y-398145000D03*
X221615000Y-400685000D03*
X221615000Y-403225000D03*
X221615000Y-405765000D03*
X221615000Y-408305000D03*
X221615000Y-410845000D03*
X221615000Y-413385000D03*
X221615000Y-415925000D03*
X221615000Y-418465000D03*
X239395000Y-398145000D03*
X241935000Y-398145000D03*
X244475000Y-398145000D03*
X247015000Y-398145000D03*
X249555000Y-398145000D03*
X252095000Y-398145000D03*
X285115000Y-398145000D03*
X282575000Y-398145000D03*
X280035000Y-398145000D03*
X277495000Y-398145000D03*
X274955000Y-398145000D03*
X272415000Y-398145000D03*
X269875000Y-398145000D03*
X267335000Y-398145000D03*
X264795000Y-398145000D03*
X262255000Y-398145000D03*
X259715000Y-398145000D03*
X257175000Y-398145000D03*
X254635000Y-398145000D03*
X114935000Y-404495000D03*
X109855000Y-401955000D03*
X113030000Y-412750000D03*
X128905000Y-410210000D03*
X127635000Y-399415000D03*
X134620000Y-415290000D03*
X154305000Y-401955000D03*
X149225000Y-404495000D03*
X153035000Y-405765000D03*
X175895000Y-412115000D03*
X173990000Y-413385000D03*
X187960000Y-401955000D03*
X194945000Y-405765000D03*
X191770000Y-409575000D03*
X189865000Y-415925000D03*
X193675000Y-417195000D03*
X214630000Y-398145000D03*
D11*
X258445000Y-316865000D03*
X268605000Y-316865000D03*
D13*
X217170000Y-396875000D03*
X241300000Y-418465000D03*
X245745000Y-418465000D03*
X36830000Y-382905000D03*
X55245000Y-387985000D03*
X56515000Y-386080000D03*
X62865000Y-387985000D03*
X81915000Y-389890000D03*
X83820000Y-391795000D03*
X89535000Y-391160000D03*
X99060000Y-382905000D03*
X100965000Y-382905000D03*
X103505000Y-384175000D03*
X105410000Y-391795000D03*
X117475000Y-393065000D03*
X130175000Y-390525000D03*
X135890000Y-384175000D03*
X145415000Y-382905000D03*
X170180000Y-393065000D03*
X172085000Y-393065000D03*
X189865000Y-393065000D03*
X191770000Y-393065000D03*
X224155000Y-384175000D03*
X226695000Y-391160000D03*
X230505000Y-389890000D03*
X252730000Y-392430000D03*
X249555000Y-392430000D03*
X247015000Y-392430000D03*
X236855000Y-380365000D03*
X238760000Y-381000000D03*
X265430000Y-382270000D03*
X277495000Y-393065000D03*
X280035000Y-393065000D03*
X282575000Y-393065000D03*
X285115000Y-393065000D03*
D17*
X31750000Y-497205000D03*
D13*
X49530000Y-375285000D03*
X48260000Y-372745000D03*
X46990000Y-370205000D03*
X135890000Y-374015000D03*
X134620000Y-371475000D03*
X133350000Y-368935000D03*
X132715000Y-366395000D03*
X150495000Y-370205000D03*
X151765000Y-367665000D03*
X153670000Y-365125000D03*
X154940000Y-362585000D03*
X175895000Y-362585000D03*
X173990000Y-365125000D03*
X172720000Y-375285000D03*
X167640000Y-371475000D03*
X172720000Y-372745000D03*
X195580000Y-361315000D03*
X190500000Y-374015000D03*
X189230000Y-376555000D03*
X195580000Y-374015000D03*
X194945000Y-376555000D03*
X208280000Y-363855000D03*
X208915000Y-361315000D03*
X211074000Y-371475000D03*
X213360000Y-374015000D03*
X214630000Y-376555000D03*
X233680000Y-360045000D03*
X233680000Y-363855000D03*
X236220000Y-365125000D03*
X232410000Y-366395000D03*
X237490000Y-367665000D03*
X230505000Y-372745000D03*
X257810000Y-364490000D03*
X254000000Y-366395000D03*
X255905000Y-374015000D03*
X276225000Y-366395000D03*
X271907000Y-368935000D03*
X273685000Y-371475000D03*
X278130000Y-370205000D03*
X269240000Y-374015000D03*
X274955000Y-374015000D03*
X59690000Y-352425000D03*
X70485000Y-352425000D03*
X68580000Y-352425000D03*
X66675000Y-352425000D03*
X64770000Y-352425000D03*
X137795000Y-353060000D03*
X135509000Y-352171000D03*
X130937000Y-350901000D03*
X133223000Y-351790000D03*
D11*
X34290000Y-355269800D03*
D13*
X213360000Y-355600000D03*
X100330000Y-349885000D03*
X98425000Y-348615000D03*
X219075000Y-354965000D03*
X220980000Y-353695000D03*
X170815000Y-351155000D03*
X158115000Y-344805000D03*
X166370000Y-344805000D03*
X164465000Y-346075000D03*
X160020000Y-346075000D03*
X168275000Y-344805000D03*
X211455000Y-343535000D03*
X212725000Y-342265000D03*
X149225000Y-344805000D03*
X211074000Y-353695000D03*
X287655000Y-342900000D03*
X258445000Y-344805000D03*
X269240000Y-352425000D03*
X264795000Y-352425000D03*
X262890000Y-352425000D03*
X256540000Y-351790000D03*
X245110000Y-354330000D03*
X236855000Y-352425000D03*
X227330000Y-354330000D03*
X229870000Y-354330000D03*
X107315000Y-348615000D03*
X49530000Y-330835000D03*
X52705000Y-324485000D03*
X54610000Y-325755000D03*
X74930000Y-328295000D03*
X69850000Y-332105000D03*
X106680000Y-324485000D03*
X112395000Y-325755000D03*
X112395000Y-328930000D03*
X110490000Y-332740000D03*
X112395000Y-334645000D03*
X152400000Y-325755000D03*
X151130000Y-328295000D03*
X154305000Y-330200000D03*
X154940000Y-334645000D03*
X153670000Y-337185000D03*
X149225000Y-334645000D03*
X149225000Y-338455000D03*
X170180000Y-328295000D03*
X172085000Y-335915000D03*
X175260000Y-337185000D03*
X173990000Y-338455000D03*
X168275000Y-339725000D03*
X193040000Y-321945000D03*
X187960000Y-328295000D03*
X195580000Y-323215000D03*
X189230000Y-335915000D03*
X190500000Y-338455000D03*
X208280000Y-335915000D03*
X236220000Y-324485000D03*
X236220000Y-327025000D03*
X233680000Y-330835000D03*
X234950000Y-334645000D03*
X252095000Y-327025000D03*
X248920000Y-335915000D03*
X274955000Y-325755000D03*
X276225000Y-328295000D03*
X270510000Y-332105000D03*
X274955000Y-323850000D03*
X292430200Y-333375000D03*
X290830000Y-337820000D03*
D11*
X309880000Y-319722500D03*
D12*
X65405000Y-311785000D03*
D11*
X38100000Y-311785000D03*
D13*
X241300000Y-317500000D03*
X226060000Y-317500000D03*
X270738600Y-316865000D03*
X280035000Y-317500000D03*
X222885000Y-317500000D03*
X215900000Y-317500000D03*
X201295000Y-317500000D03*
X259715000Y-313690000D03*
X243205000Y-315595000D03*
X229616000Y-315595000D03*
X154305000Y-317500000D03*
X227965000Y-313690000D03*
X123190000Y-320040000D03*
X260985000Y-306705000D03*
X118110000Y-306705000D03*
X60960000Y-306705000D03*
X249555000Y-307340000D03*
X282575000Y-306705000D03*
X79375000Y-307340000D03*
X81280000Y-307340000D03*
X105410000Y-307340000D03*
X107315000Y-307340000D03*
X109220000Y-307975000D03*
X111125000Y-308610000D03*
X113919000Y-309880000D03*
X125095000Y-309880000D03*
X67945000Y-307340000D03*
X199390000Y-308610000D03*
X197485000Y-308610000D03*
X207010000Y-308610000D03*
X152400000Y-310515000D03*
X224790000Y-309245000D03*
X150495000Y-316865000D03*
X117475000Y-319405000D03*
X62865000Y-320040000D03*
X161925000Y-315595000D03*
X125730000Y-318770000D03*
X123825000Y-317500000D03*
X247650000Y-314325000D03*
X256540000Y-313690000D03*
X305435000Y-317500000D03*
D11*
X152400000Y-284480000D03*
X152400000Y-293370000D03*
X233045000Y-285750000D03*
X233045000Y-295275000D03*
X291465000Y-285750000D03*
X291465000Y-295275000D03*
D12*
X309880000Y-287655000D03*
D11*
X299720000Y-287655000D03*
X309880000Y-290195000D03*
X299720000Y-290195000D03*
D13*
X233045000Y-302895000D03*
X152400000Y-302895000D03*
X106680000Y-302895000D03*
X295910000Y-286385000D03*
X54610000Y-287655000D03*
X66040000Y-286385000D03*
X73660000Y-287655000D03*
X74930000Y-288925000D03*
X69215000Y-292735000D03*
X95250000Y-297815000D03*
X93980000Y-299720000D03*
X107950000Y-283845000D03*
X110490000Y-286385000D03*
X106680000Y-287655000D03*
X109855000Y-291465000D03*
X111125000Y-294640000D03*
X111125000Y-296545000D03*
X109855000Y-297815000D03*
X114300000Y-300355000D03*
X146685000Y-292735000D03*
X156210000Y-295275000D03*
X149225000Y-296545000D03*
X149225000Y-300355000D03*
X175260000Y-286385000D03*
X172085000Y-286385000D03*
X172720000Y-290195000D03*
X173990000Y-292735000D03*
X170815000Y-294005000D03*
X170815000Y-295910000D03*
X189230000Y-296545000D03*
X190500000Y-286385000D03*
X190500000Y-288925000D03*
X194945000Y-287655000D03*
X194945000Y-290195000D03*
X193040000Y-292100000D03*
X191770000Y-297815000D03*
X190500000Y-295275000D03*
X188595000Y-288925000D03*
X217170000Y-286385000D03*
X211455000Y-290195000D03*
X212725000Y-297815000D03*
X236220000Y-292100000D03*
X236220000Y-294005000D03*
X230505000Y-294005000D03*
X230505000Y-297815000D03*
X234950000Y-299085000D03*
X234950000Y-300990000D03*
X250190000Y-287655000D03*
X252095000Y-291465000D03*
X254000000Y-291465000D03*
X251460000Y-296545000D03*
X252095000Y-299085000D03*
X278130000Y-290195000D03*
X274955000Y-287655000D03*
X36195000Y-291465000D03*
X36195000Y-288925000D03*
X36195000Y-286385000D03*
D14*
X36195000Y-283845000D03*
D13*
X36195000Y-294005000D03*
X36195000Y-296545000D03*
X36195000Y-299085000D03*
X36195000Y-301625000D03*
X43815000Y-301625000D03*
X43815000Y-299085000D03*
X43815000Y-296545000D03*
X43815000Y-294005000D03*
X43815000Y-291465000D03*
X43815000Y-288925000D03*
X43815000Y-286385000D03*
X43815000Y-283845000D03*
X154940000Y-287655000D03*
D11*
X309880000Y-128905000D03*
X34290000Y-281622500D03*
X34290000Y-246062500D03*
X34290000Y-207962500D03*
X34290000Y-169862500D03*
X34290000Y-127635000D03*
D16*
X81280000Y-29845000D03*
X85344000Y-29845000D03*
D13*
X95250000Y-259715000D03*
X93980000Y-258445000D03*
X92710000Y-255270000D03*
X91440000Y-253365000D03*
X90170000Y-251460000D03*
X88900000Y-249555000D03*
X87630000Y-269875000D03*
D11*
X43815000Y-278765000D03*
X34290000Y-278765000D03*
X309880000Y-246062500D03*
X309880000Y-236537500D03*
X309880000Y-207962500D03*
X309880000Y-198437500D03*
X309880000Y-167322500D03*
X309880000Y-157797500D03*
X74295000Y-247015000D03*
X74295000Y-255905000D03*
X71755000Y-262255000D03*
X71755000Y-272415000D03*
X56515000Y-271145000D03*
D12*
X43815000Y-271145000D03*
X100330000Y-200660000D03*
D11*
X87630000Y-200660000D03*
D12*
X290830000Y-273050000D03*
D11*
X309880000Y-273050000D03*
X298450000Y-279400000D03*
X303530000Y-279400000D03*
X109220000Y-245110000D03*
X109220000Y-254635000D03*
X232410000Y-245110000D03*
X232410000Y-254635000D03*
D12*
X71755000Y-235585000D03*
D11*
X71755000Y-225425000D03*
D12*
X109220000Y-236855000D03*
D11*
X99060000Y-236855000D03*
D12*
X99060000Y-234315000D03*
D11*
X109220000Y-234315000D03*
D13*
X54610000Y-247015000D03*
D11*
X121920000Y-233045000D03*
D12*
X116840000Y-233045000D03*
D11*
X119380000Y-235585000D03*
X83185000Y-220345000D03*
D12*
X78105000Y-220345000D03*
D11*
X80645000Y-222885000D03*
X103505000Y-220345000D03*
D12*
X98425000Y-220345000D03*
D11*
X100965000Y-222885000D03*
X115570000Y-201295000D03*
D12*
X120650000Y-201295000D03*
D11*
X118110000Y-198755000D03*
X71755000Y-208280000D03*
X71755000Y-218440000D03*
X74295000Y-208280000D03*
X74295000Y-218440000D03*
X86995000Y-207010000D03*
X86995000Y-216535000D03*
X108585000Y-217170000D03*
X108585000Y-226060000D03*
X114935000Y-216535000D03*
X114935000Y-226060000D03*
X134366000Y-207010000D03*
X134366000Y-216535000D03*
X215265000Y-207010000D03*
X215265000Y-216535000D03*
X128270000Y-56515000D03*
X118745000Y-56515000D03*
X147320000Y-52070000D03*
X147320000Y-61595000D03*
X128270000Y-48895000D03*
X118745000Y-48895000D03*
X128270000Y-51435000D03*
X118745000Y-51435000D03*
X143510000Y-51435000D03*
X133985000Y-51435000D03*
X133985000Y-56515000D03*
X143510000Y-56515000D03*
X118745000Y-61595000D03*
X128270000Y-61595000D03*
X133985000Y-53975000D03*
X143510000Y-53975000D03*
X133985000Y-59055000D03*
X143510000Y-59055000D03*
X133985000Y-61595000D03*
X143510000Y-61595000D03*
X118745000Y-59055000D03*
X128270000Y-59055000D03*
X143510000Y-48895000D03*
X133985000Y-48895000D03*
X128270000Y-53975000D03*
X118745000Y-53975000D03*
D13*
X91440000Y-30480000D03*
X95250000Y-30480000D03*
X99060000Y-30480000D03*
X158496000Y-42545000D03*
X158496000Y-45085000D03*
X158496000Y-47625000D03*
X158496000Y-49530000D03*
X158496000Y-51435000D03*
X149860000Y-42545000D03*
X149860000Y-45085000D03*
X149860000Y-47625000D03*
X149860000Y-49530000D03*
X149860000Y-51435000D03*
X111125000Y-30480000D03*
X119380000Y-30480000D03*
X123190000Y-30480000D03*
X115570000Y-30480000D03*
X127635000Y-30480000D03*
X131445000Y-30480000D03*
X135255000Y-30480000D03*
X139065000Y-30480000D03*
X144780000Y-30480000D03*
X146685000Y-30480000D03*
D11*
X107315000Y-106680000D03*
X97155000Y-106680000D03*
X97155000Y-109855000D03*
X107315000Y-109855000D03*
X107315000Y-97155000D03*
X97155000Y-97155000D03*
X107315000Y-100330000D03*
X97155000Y-100330000D03*
X107315000Y-103505000D03*
X97155000Y-103505000D03*
X137795000Y-104140000D03*
X147955000Y-104140000D03*
X127635000Y-94615000D03*
X117475000Y-94615000D03*
X137795000Y-100965000D03*
X147955000Y-100965000D03*
X127635000Y-100965000D03*
X117475000Y-100965000D03*
X127635000Y-103505000D03*
X117475000Y-103505000D03*
X127635000Y-97790000D03*
X117475000Y-97790000D03*
X137795000Y-94615000D03*
X147955000Y-94615000D03*
X137795000Y-97790000D03*
X147955000Y-97790000D03*
X34290000Y-89535000D03*
D13*
X64135000Y-268605000D03*
X108585000Y-268605000D03*
X64770000Y-270510000D03*
X58420000Y-278130000D03*
X78105000Y-277495000D03*
X109220000Y-264795000D03*
X227330000Y-268605000D03*
X278130000Y-268605000D03*
X300990000Y-268605000D03*
X266700000Y-269240000D03*
X280670000Y-269875000D03*
X233680000Y-269875000D03*
X232410000Y-264795000D03*
X221615000Y-268605000D03*
X237490000Y-270510000D03*
X302895000Y-281940000D03*
X293370000Y-281940000D03*
X257175000Y-281305000D03*
X222250000Y-281305000D03*
X280035000Y-280670000D03*
X226060000Y-280670000D03*
X283845000Y-280670000D03*
X285750000Y-280670000D03*
X287655000Y-280670000D03*
X224155000Y-280670000D03*
X143510000Y-281940000D03*
X141605000Y-281940000D03*
X272415000Y-279400000D03*
X229235000Y-279400000D03*
X146685000Y-280670000D03*
X147955000Y-279400000D03*
X116840000Y-279400000D03*
X137795000Y-281305000D03*
X285496000Y-277495000D03*
X214630000Y-277495000D03*
X98425000Y-279400000D03*
X216535000Y-277495000D03*
X109855000Y-278765000D03*
X240665000Y-278130000D03*
X243205000Y-278130000D03*
X120650000Y-277495000D03*
X264795000Y-277495000D03*
X160020000Y-273050000D03*
X192405000Y-273050000D03*
X62865000Y-278765000D03*
X123190000Y-276860000D03*
X121285000Y-274320000D03*
X118745000Y-273685000D03*
X75565000Y-281305000D03*
X73660000Y-281305000D03*
X71755000Y-281305000D03*
X112395000Y-263525000D03*
X129032000Y-247015000D03*
X128778000Y-249555000D03*
X130556000Y-250825000D03*
X132080000Y-252095000D03*
X148590000Y-379095000D03*
X204470000Y-342265000D03*
X104775000Y-241300000D03*
X102870000Y-241300000D03*
X94615000Y-97155000D03*
X93345000Y-99060000D03*
X92075000Y-100965000D03*
X90805000Y-102870000D03*
X116840000Y-112395000D03*
X132080000Y-257175000D03*
X135255000Y-259715000D03*
X148590000Y-244475000D03*
X154940000Y-255905000D03*
X149860000Y-253365000D03*
X149860000Y-255905000D03*
X153670000Y-262255000D03*
X151765000Y-263525000D03*
X151765000Y-266065000D03*
X175895000Y-244475000D03*
X167640000Y-247015000D03*
X170815000Y-254635000D03*
X172085000Y-263525000D03*
X173990000Y-262255000D03*
X192405000Y-244475000D03*
X188595000Y-247015000D03*
X190500000Y-257175000D03*
X193675000Y-266065000D03*
X208280000Y-254635000D03*
X211455000Y-262255000D03*
X212725000Y-266065000D03*
X215900000Y-247015000D03*
X214630000Y-249555000D03*
X214630000Y-252095000D03*
X215900000Y-254635000D03*
X233680000Y-260985000D03*
X237490000Y-252095000D03*
X256540000Y-260985000D03*
X256540000Y-247015000D03*
X271780000Y-249555000D03*
X274955000Y-247015000D03*
X269240000Y-259080000D03*
X271780000Y-258445000D03*
X277495000Y-259080000D03*
X293370000Y-250825000D03*
X294640000Y-259715000D03*
X292100000Y-262255000D03*
X232410000Y-247650000D03*
X232410000Y-251460000D03*
X76835000Y-240665000D03*
X107950000Y-240665000D03*
X309880000Y-243205000D03*
X303530000Y-243205000D03*
X301625000Y-243205000D03*
X291465000Y-241935000D03*
X288925000Y-240665000D03*
X280670000Y-241300000D03*
X274955000Y-240665000D03*
X225425000Y-240665000D03*
X201295000Y-238760000D03*
X198755000Y-238125000D03*
X158115000Y-238760000D03*
X140335000Y-238760000D03*
X142875000Y-238125000D03*
X178435000Y-237490000D03*
X40005000Y-230505000D03*
X146050000Y-237490000D03*
X146050000Y-234950000D03*
X245745000Y-239395000D03*
X215900000Y-239395000D03*
X213995000Y-238125000D03*
X114935000Y-240030000D03*
X131445000Y-237490000D03*
X129540000Y-236855000D03*
X170815000Y-231140000D03*
X241300000Y-238125000D03*
X169545000Y-233680000D03*
X163195000Y-233680000D03*
X299720000Y-230505000D03*
X228600000Y-230505000D03*
X280670000Y-231140000D03*
X211455000Y-230505000D03*
X206375000Y-230505000D03*
X220980000Y-231140000D03*
X278130000Y-231775000D03*
X293370000Y-231140000D03*
X288925000Y-231775000D03*
X240665000Y-233045000D03*
X213995000Y-233045000D03*
X255270000Y-234315000D03*
X196215000Y-231775000D03*
X49530000Y-215265000D03*
X66040000Y-213995000D03*
X69215000Y-221615000D03*
X69215000Y-213995000D03*
X109220000Y-213995000D03*
X119380000Y-221615000D03*
X154940000Y-208915000D03*
X151130000Y-210185000D03*
X153035000Y-212725000D03*
X150495000Y-216535000D03*
X148590000Y-217805000D03*
X170180000Y-220345000D03*
X168275000Y-212725000D03*
X172720000Y-211455000D03*
X173990000Y-214630000D03*
X189230000Y-210185000D03*
X190500000Y-207645000D03*
X191770000Y-221615000D03*
X193675000Y-221615000D03*
X187325000Y-216535000D03*
X209550000Y-210185000D03*
X210820000Y-212090000D03*
X212090000Y-215265000D03*
X212725000Y-220345000D03*
X211455000Y-222885000D03*
X234950000Y-207645000D03*
X228600000Y-213995000D03*
X234950000Y-210185000D03*
X236220000Y-211455000D03*
X230505000Y-208915000D03*
X250825000Y-221615000D03*
X252730000Y-222885000D03*
X250825000Y-224155000D03*
X256540000Y-225425000D03*
X276225000Y-222885000D03*
X291465000Y-213995000D03*
X295275000Y-215265000D03*
X295275000Y-220345000D03*
X80645000Y-233045000D03*
D11*
X43815000Y-204470000D03*
X34290000Y-204470000D03*
X56515000Y-202184000D03*
X56515000Y-193294000D03*
X80010000Y-200660000D03*
X72390000Y-200660000D03*
D14*
X42545000Y-200025000D03*
D13*
X45085000Y-200025000D03*
D11*
X34925000Y-194945000D03*
X45085000Y-194945000D03*
X69215000Y-193040000D03*
X79375000Y-193040000D03*
X114935000Y-196850000D03*
X104775000Y-196850000D03*
X115570000Y-193675000D03*
X105410000Y-193675000D03*
D12*
X97155000Y-164465000D03*
D11*
X84455000Y-164465000D03*
D12*
X97155000Y-196215000D03*
D11*
X86995000Y-196215000D03*
D12*
X125222000Y-201295000D03*
D11*
X144272000Y-201295000D03*
X125095000Y-185420000D03*
X133985000Y-185420000D03*
D12*
X54610000Y-154940000D03*
D11*
X35560000Y-154940000D03*
X121920000Y-155575000D03*
D12*
X102870000Y-155575000D03*
D11*
X133985000Y-171450000D03*
X133985000Y-180975000D03*
X215265000Y-168910000D03*
X215265000Y-178435000D03*
X122555000Y-184785000D03*
D12*
X117475000Y-184785000D03*
D11*
X120015000Y-187325000D03*
X67945000Y-172720000D03*
X67945000Y-182880000D03*
X70231000Y-172720000D03*
X70231000Y-182880000D03*
X149860000Y-183515000D03*
X149860000Y-173355000D03*
X87630000Y-173990000D03*
X87630000Y-184150000D03*
X43815000Y-167005000D03*
X34290000Y-167005000D03*
X66040000Y-154940000D03*
X58420000Y-154940000D03*
D12*
X123190000Y-165100000D03*
D11*
X135890000Y-165100000D03*
X123825000Y-159385000D03*
X133350000Y-159385000D03*
D12*
X68580000Y-160020000D03*
D11*
X78740000Y-160020000D03*
D12*
X120650000Y-160020000D03*
D11*
X110490000Y-160020000D03*
X60325000Y-163195000D03*
D12*
X65405000Y-163195000D03*
D11*
X62865000Y-160655000D03*
X46355000Y-163195000D03*
X56515000Y-163195000D03*
X68580000Y-165100000D03*
X78740000Y-165100000D03*
X78740000Y-162560000D03*
X68580000Y-162560000D03*
X104775000Y-166370000D03*
X114935000Y-166370000D03*
X97155000Y-160020000D03*
X106680000Y-160020000D03*
X34925000Y-163195000D03*
X40005000Y-163195000D03*
X135890000Y-157480000D03*
X140970000Y-157480000D03*
X46990000Y-130810000D03*
X46990000Y-140335000D03*
X50165000Y-132080000D03*
X50165000Y-140970000D03*
X55880000Y-145415000D03*
X64770000Y-145415000D03*
X113665000Y-130810000D03*
X113665000Y-140335000D03*
X130810000Y-141605000D03*
X130810000Y-150495000D03*
X142875000Y-135255000D03*
X150495000Y-135255000D03*
X211455000Y-132715000D03*
X211455000Y-142240000D03*
X299720000Y-126365000D03*
X309245000Y-126365000D03*
X149860000Y-146050000D03*
D12*
X144780000Y-146050000D03*
D11*
X147320000Y-148590000D03*
X138430000Y-134620000D03*
D12*
X133350000Y-134620000D03*
D11*
X135890000Y-137160000D03*
X36195000Y-148590000D03*
X46355000Y-148590000D03*
X36195000Y-146050000D03*
X46355000Y-146050000D03*
X36195000Y-143510000D03*
X46355000Y-143510000D03*
X55245000Y-142875000D03*
X65405000Y-142875000D03*
X140970000Y-139700000D03*
X130810000Y-139700000D03*
X130810000Y-132080000D03*
X140970000Y-132080000D03*
X143510000Y-140335000D03*
X153670000Y-140335000D03*
X281305000Y-141605000D03*
X281305000Y-131445000D03*
X239395000Y-143510000D03*
X239395000Y-133350000D03*
D13*
X143637000Y-191135000D03*
X120650000Y-205105000D03*
X167005000Y-203200000D03*
X220345000Y-203200000D03*
X266700000Y-192405000D03*
X264795000Y-193675000D03*
X262890000Y-194310000D03*
X260985000Y-195580000D03*
X248920000Y-196215000D03*
X247015000Y-196215000D03*
X245110000Y-196850000D03*
X243205000Y-197485000D03*
X240030000Y-198120000D03*
X133350000Y-192405000D03*
X147066000Y-193040000D03*
X139700000Y-193040000D03*
X137541000Y-197485000D03*
X280035000Y-192405000D03*
X47625000Y-205105000D03*
X72771000Y-198374000D03*
X53975000Y-202565000D03*
X114935000Y-205105000D03*
X69215000Y-203200000D03*
X73660000Y-195580000D03*
X100330000Y-193675000D03*
X83820000Y-194310000D03*
X106045000Y-201295000D03*
X145796000Y-203200000D03*
X163195000Y-203200000D03*
X165100000Y-203200000D03*
X227965000Y-203200000D03*
X229870000Y-203200000D03*
X285750000Y-205740000D03*
X307975000Y-205105000D03*
X306070000Y-205740000D03*
X239395000Y-201930000D03*
X234950000Y-201295000D03*
X280035000Y-203835000D03*
X286385000Y-201930000D03*
X290576000Y-200660000D03*
X198755000Y-201295000D03*
X301625000Y-192405000D03*
X281940000Y-192405000D03*
X151130000Y-196215000D03*
X149225000Y-196850000D03*
X153035000Y-196850000D03*
X155575000Y-198120000D03*
X157480000Y-198755000D03*
X160020000Y-199390000D03*
X228600000Y-198755000D03*
X226695000Y-198755000D03*
X169545000Y-200025000D03*
X70866000Y-186055000D03*
X53340000Y-172720000D03*
X52070000Y-178435000D03*
X115570000Y-183515000D03*
X107950000Y-175895000D03*
X114300000Y-186690000D03*
X106680000Y-183515000D03*
X175260000Y-172085000D03*
X170815000Y-175895000D03*
X176530000Y-175895000D03*
X176530000Y-184785000D03*
X173990000Y-183515000D03*
X172720000Y-186055000D03*
X188595000Y-173355000D03*
X189865000Y-170815000D03*
X193040000Y-184785000D03*
X208280000Y-180975000D03*
X252730000Y-170815000D03*
X254000000Y-186055000D03*
X268605000Y-173355000D03*
X277495000Y-178435000D03*
X269875000Y-183515000D03*
X231140000Y-172085000D03*
X268605000Y-180975000D03*
X271780000Y-177165000D03*
X292100000Y-177165000D03*
X294005000Y-177165000D03*
X273685000Y-183515000D03*
X293370000Y-179705000D03*
X292100000Y-180975000D03*
X294640000Y-180975000D03*
X292100000Y-182880000D03*
X288925000Y-173355000D03*
X309245000Y-170815000D03*
X89535000Y-105410000D03*
X88900000Y-108585000D03*
X87630000Y-132715000D03*
X184785000Y-159766000D03*
X182880000Y-160528000D03*
X180975000Y-161290000D03*
X179070000Y-161925000D03*
X158750000Y-165100000D03*
X160782000Y-164465000D03*
X162941000Y-163576000D03*
X165100000Y-162814000D03*
X298450000Y-164465000D03*
X306070000Y-164465000D03*
X304800000Y-162560000D03*
X299720000Y-161290000D03*
X272415000Y-161925000D03*
X277495000Y-162560000D03*
X276225000Y-160020000D03*
X273685000Y-158115000D03*
X275590000Y-156845000D03*
X281305000Y-144780000D03*
X294005000Y-156845000D03*
X295275000Y-160020000D03*
X213360000Y-157353000D03*
X194310000Y-158877000D03*
X150495000Y-167005000D03*
X257810000Y-157353000D03*
X254635000Y-154432000D03*
X208280000Y-154305000D03*
X279400000Y-156845000D03*
X193040000Y-155575000D03*
X198628000Y-157480000D03*
X146685000Y-167005000D03*
X124460000Y-154305000D03*
X126365000Y-154940000D03*
X128905000Y-155575000D03*
X165735000Y-154305000D03*
X163830000Y-154940000D03*
X161290000Y-155575000D03*
X144145000Y-167005000D03*
X117475000Y-165735000D03*
X106680000Y-164465000D03*
X84455000Y-153035000D03*
X74930000Y-154305000D03*
X97790000Y-154305000D03*
X100965000Y-154305000D03*
X82931000Y-156210000D03*
X261620000Y-142875000D03*
X224155000Y-142875000D03*
X168910000Y-132080000D03*
X154940000Y-136525000D03*
X240030000Y-149860000D03*
X135890000Y-130175000D03*
X152146000Y-132715000D03*
X114935000Y-149225000D03*
X129540000Y-147955000D03*
X107188000Y-132461000D03*
X108458000Y-133985000D03*
X109728000Y-136525000D03*
X112395000Y-147955000D03*
X54610000Y-135255000D03*
X103505000Y-126365000D03*
X74295000Y-145415000D03*
X50165000Y-150495000D03*
X52705000Y-140970000D03*
X64770000Y-127635000D03*
X171450000Y-126365000D03*
X113030000Y-133604000D03*
X84455000Y-126746000D03*
X105410000Y-114935000D03*
X101600000Y-117475000D03*
X103505000Y-116205000D03*
X99695000Y-118745000D03*
X84455000Y-116205000D03*
D11*
X299593000Y-121285000D03*
X305181000Y-121285000D03*
X307975000Y-121285000D03*
X302387000Y-121285000D03*
D13*
X297307000Y-126873000D03*
X293370000Y-121920000D03*
X291465000Y-120650000D03*
X288925000Y-119380000D03*
X278130000Y-116205000D03*
X295275000Y-123190000D03*
X278130000Y-120650000D03*
X274320000Y-124460000D03*
X270510000Y-126365000D03*
X274320000Y-121920000D03*
X276225000Y-123190000D03*
X272415000Y-125730000D03*
X280670000Y-118745000D03*
D11*
X267335000Y-121285000D03*
X264541000Y-121285000D03*
X261747000Y-121285000D03*
X258953000Y-121285000D03*
D13*
X255905000Y-126365000D03*
X254635000Y-124460000D03*
X251460000Y-121920000D03*
X246380000Y-120650000D03*
X249555000Y-121285000D03*
X239395000Y-117475000D03*
X237490000Y-116205000D03*
X233045000Y-120650000D03*
X235585000Y-123190000D03*
X233680000Y-124460000D03*
X231775000Y-125730000D03*
X229235000Y-126365000D03*
X201930000Y-126365000D03*
X203835000Y-125095000D03*
X205740000Y-124460000D03*
X209550000Y-123825000D03*
X211455000Y-122555000D03*
X173990000Y-126365000D03*
D12*
X52705000Y-125095000D03*
D11*
X40005000Y-125095000D03*
X34925000Y-120015000D03*
X44450000Y-120015000D03*
X81915000Y-123190000D03*
X81915000Y-115570000D03*
X121285000Y-124460000D03*
D12*
X133985000Y-124460000D03*
D11*
X94615000Y-93980000D03*
D12*
X89535000Y-93980000D03*
D11*
X92075000Y-96520000D03*
X128270000Y-116840000D03*
X123190000Y-116840000D03*
X131445000Y-99695000D03*
X131445000Y-94615000D03*
X169545000Y-124460000D03*
X164465000Y-124460000D03*
X128270000Y-108585000D03*
X123190000Y-108585000D03*
X128270000Y-120650000D03*
X123190000Y-120650000D03*
X86995000Y-85725000D03*
X92075000Y-85725000D03*
X111379000Y-98552000D03*
X111379000Y-93472000D03*
X71120000Y-92710000D03*
X71120000Y-102235000D03*
X67310000Y-108585000D03*
X67310000Y-98425000D03*
D13*
X48641000Y-113665000D03*
X86741000Y-117475000D03*
X85090000Y-121285000D03*
X46355000Y-95885000D03*
X48260000Y-98425000D03*
X47625000Y-107315000D03*
X52070000Y-107950000D03*
X50800000Y-102870000D03*
X104775000Y-93345000D03*
X97155000Y-92075000D03*
X85979000Y-104775000D03*
X88265000Y-97155000D03*
X70485000Y-106045000D03*
X291465000Y-116205000D03*
D11*
X291465000Y-85090000D03*
X207645000Y-111125000D03*
X217805000Y-111125000D03*
X53975000Y-110490000D03*
X53975000Y-100965000D03*
D13*
X61087000Y-142875000D03*
X151765000Y-88900000D03*
X76835000Y-88900000D03*
X154305000Y-82550000D03*
X100965000Y-45720000D03*
X109220000Y-45720000D03*
D11*
X267335000Y-111760000D03*
X307975000Y-111760000D03*
D13*
X109601000Y-85090000D03*
D16*
X100330000Y-66040000D03*
X100330000Y-81280000D03*
X104775000Y-66040000D03*
X104775000Y-81280000D03*
X109220000Y-66040000D03*
X109220000Y-81280000D03*
X117475000Y-66040000D03*
X117475000Y-81280000D03*
X121920000Y-66040000D03*
X121920000Y-81280000D03*
X126365000Y-66040000D03*
X126365000Y-81280000D03*
X130810000Y-66040000D03*
X130810000Y-81280000D03*
X147955000Y-66040000D03*
X147955000Y-81280000D03*
D11*
X94615000Y-86995000D03*
X104775000Y-86995000D03*
X107315000Y-86995000D03*
X117475000Y-86995000D03*
D13*
X97790000Y-67310000D03*
X111379000Y-64135000D03*
X115570000Y-64135000D03*
D16*
X135255000Y-66040000D03*
X139700000Y-66040000D03*
D15*
X44450000Y-26670000D03*
D11*
X46990000Y-50165000D03*
X44450000Y-50165000D03*
X41910000Y-50165000D03*
X41910000Y-46990000D03*
X44450000Y-46990000D03*
X46990000Y-46990000D03*
X93980000Y-54610000D03*
X93980000Y-52070000D03*
X93980000Y-49530000D03*
X34290000Y-52070000D03*
X34290000Y-42545000D03*
X34290000Y-54610000D03*
X34290000Y-64135000D03*
X92710000Y-64770000D03*
X92710000Y-74295000D03*
X72390000Y-84455000D03*
D12*
X67310000Y-84455000D03*
D11*
X69850000Y-86995000D03*
D12*
X71120000Y-80010000D03*
D11*
X71120000Y-60960000D03*
X85725000Y-78105000D03*
X75565000Y-78105000D03*
X85725000Y-71755000D03*
X75565000Y-71755000D03*
X85725000Y-68580000D03*
X75565000Y-68580000D03*
X75565000Y-81280000D03*
X85725000Y-81280000D03*
X75565000Y-63500000D03*
X85725000Y-63500000D03*
X59690000Y-66675000D03*
X62230000Y-66675000D03*
X64770000Y-66675000D03*
X43815000Y-86995000D03*
X36195000Y-86995000D03*
X35560000Y-78105000D03*
X43180000Y-78105000D03*
X62230000Y-78740000D03*
X54610000Y-78740000D03*
X45720000Y-82550000D03*
X35560000Y-82550000D03*
X48895000Y-78105000D03*
X48895000Y-88265000D03*
X64135000Y-88265000D03*
X53975000Y-88265000D03*
X53975000Y-82550000D03*
X64135000Y-82550000D03*
X64135000Y-75565000D03*
X53975000Y-75565000D03*
D12*
X160020000Y-85090000D03*
D11*
X170180000Y-85090000D03*
D12*
X160020000Y-80010000D03*
D11*
X170180000Y-80010000D03*
D12*
X170180000Y-74930000D03*
D11*
X160020000Y-74930000D03*
D12*
X160020000Y-69850000D03*
D11*
X170180000Y-69850000D03*
D13*
X83820000Y-86360000D03*
X62230000Y-86360000D03*
X114300000Y-74295000D03*
X85090000Y-74295000D03*
X73025000Y-71755000D03*
X62230000Y-73660000D03*
D11*
X264541000Y-111125000D03*
X258953000Y-111760000D03*
X264795000Y-107950000D03*
D13*
X247015000Y-88265000D03*
X247015000Y-90805000D03*
X247015000Y-93345000D03*
X247015000Y-95885000D03*
X247015000Y-98425000D03*
X247015000Y-100965000D03*
X247015000Y-103505000D03*
X247015000Y-106045000D03*
X247015000Y-108585000D03*
X247015000Y-111125000D03*
X254635000Y-111125000D03*
X254635000Y-108585000D03*
X254635000Y-106045000D03*
X254635000Y-103505000D03*
X254635000Y-100965000D03*
X254635000Y-98425000D03*
X254635000Y-95885000D03*
X254635000Y-93345000D03*
X254635000Y-90805000D03*
X254635000Y-88265000D03*
D11*
X264795000Y-97155000D03*
X259715000Y-107315000D03*
X262255000Y-107950000D03*
X261747000Y-111125000D03*
X269113000Y-97155000D03*
X269113000Y-106680000D03*
X262255000Y-97155000D03*
X259715000Y-97155000D03*
X262255000Y-92837000D03*
X264795000Y-93345000D03*
D16*
X160020000Y-107950000D03*
D23*
X198120000Y-107950000D03*
X160020000Y-94615000D03*
D16*
X198120000Y-94615000D03*
D11*
X160655000Y-62865000D03*
X170180000Y-62865000D03*
X160655000Y-58420000D03*
X170180000Y-58420000D03*
X213360000Y-60325000D03*
X203835000Y-60325000D03*
X241935000Y-89535000D03*
X232410000Y-89535000D03*
X273685000Y-89535000D03*
X283210000Y-89535000D03*
X203200000Y-93345000D03*
D12*
X203200000Y-112395000D03*
X204470000Y-67945000D03*
D11*
X204470000Y-86995000D03*
D12*
X198755000Y-44450000D03*
D11*
X198755000Y-25400000D03*
X36195000Y-337185000D03*
X46355000Y-337185000D03*
X36195000Y-334645000D03*
X46355000Y-334645000D03*
X36195000Y-332105000D03*
X46355000Y-332105000D03*
X37465000Y-329565000D03*
X47625000Y-329565000D03*
X37465000Y-327025000D03*
X47625000Y-327025000D03*
X37465000Y-324485000D03*
X47625000Y-324485000D03*
X37465000Y-321945000D03*
X47625000Y-321945000D03*
X36195000Y-339725000D03*
X46355000Y-339725000D03*
X48895000Y-481965000D03*
X38735000Y-481965000D03*
X48895000Y-479425000D03*
X38735000Y-479425000D03*
X48895000Y-476885000D03*
X38735000Y-476885000D03*
X48895000Y-474345000D03*
X38735000Y-474345000D03*
X64135000Y-481965000D03*
X53975000Y-481965000D03*
X64135000Y-474345000D03*
X53975000Y-474345000D03*
X64135000Y-476885000D03*
X53975000Y-476885000D03*
X64135000Y-479425000D03*
X53975000Y-479425000D03*
X272415000Y-492125000D03*
X282575000Y-492125000D03*
X272415000Y-489585000D03*
X282575000Y-489585000D03*
X282575000Y-487045000D03*
X272415000Y-487045000D03*
X272415000Y-484505000D03*
X282575000Y-484505000D03*
X282575000Y-481965000D03*
X272415000Y-481965000D03*
X272415000Y-479425000D03*
X282575000Y-479425000D03*
X282575000Y-476885000D03*
X272415000Y-476885000D03*
X282575000Y-474345000D03*
X272415000Y-474345000D03*
D12*
X208915000Y-48260000D03*
D11*
X208915000Y-25400000D03*
X249555000Y-35560000D03*
X249555000Y-30480000D03*
X292354000Y-33020000D03*
X292354000Y-27940000D03*
X289433000Y-27305000D03*
X252095000Y-28575000D03*
X309245000Y-65405000D03*
X299720000Y-65405000D03*
X302387000Y-106680000D03*
X305181000Y-107315000D03*
X302387000Y-111125000D03*
D13*
X288290000Y-88265000D03*
X288290000Y-90805000D03*
X288290000Y-93345000D03*
X288290000Y-95885000D03*
X288290000Y-98425000D03*
X288290000Y-100965000D03*
X288290000Y-103505000D03*
X288290000Y-106045000D03*
X288290000Y-108585000D03*
X288290000Y-111125000D03*
X295910000Y-111125000D03*
X295910000Y-108585000D03*
X295910000Y-106045000D03*
X295910000Y-103505000D03*
X295910000Y-100965000D03*
X295910000Y-98425000D03*
X295910000Y-95885000D03*
X295910000Y-93345000D03*
X295910000Y-90805000D03*
X295910000Y-88265000D03*
D24*
X198755000Y-69215000D03*
X198755000Y-66675000D03*
X198755000Y-64135000D03*
X198755000Y-56515000D03*
X198755000Y-53975000D03*
X198755000Y-51435000D03*
X198755000Y-83185000D03*
X198755000Y-80645000D03*
X198755000Y-78105000D03*
D15*
X178435000Y-80645000D03*
X178435000Y-66675000D03*
X178435000Y-53975000D03*
D11*
X217805000Y-89535000D03*
X208280000Y-89535000D03*
D12*
X207645000Y-93345000D03*
D11*
X217805000Y-93345000D03*
D12*
X213360000Y-56515000D03*
D11*
X203200000Y-56515000D03*
D12*
X207645000Y-104775000D03*
D11*
X217805000Y-104775000D03*
X226060000Y-98425000D03*
D12*
X220980000Y-98425000D03*
D11*
X223520000Y-100965000D03*
X219710000Y-49530000D03*
D12*
X219710000Y-44450000D03*
D11*
X217170000Y-46990000D03*
X213995000Y-83185000D03*
D12*
X213995000Y-78105000D03*
D11*
X211455000Y-80645000D03*
X207645000Y-97155000D03*
X217805000Y-97155000D03*
X213360000Y-52705000D03*
X203200000Y-52705000D03*
X219710000Y-53975000D03*
X219710000Y-64135000D03*
X214630000Y-74295000D03*
X214630000Y-64135000D03*
X217170000Y-56515000D03*
X217170000Y-66675000D03*
X210185000Y-107950000D03*
X216535000Y-107950000D03*
X244475000Y-36830000D03*
X240665000Y-40640000D03*
X236855000Y-36830000D03*
X285750000Y-37465000D03*
X281940000Y-41275000D03*
X278130000Y-37465000D03*
X224790000Y-111125000D03*
X224790000Y-104775000D03*
X227965000Y-101600000D03*
X227965000Y-111125000D03*
X226060000Y-89535000D03*
X226060000Y-79375000D03*
X237490000Y-40640000D03*
X227330000Y-40640000D03*
X221615000Y-67310000D03*
X221615000Y-77470000D03*
X234315000Y-67310000D03*
X224155000Y-67310000D03*
X227330000Y-38100000D03*
X217170000Y-38100000D03*
X224155000Y-46355000D03*
X234315000Y-46355000D03*
X217170000Y-35560000D03*
X227330000Y-35560000D03*
X220345000Y-79375000D03*
X220345000Y-89535000D03*
D13*
X266700000Y-56515000D03*
D14*
X266700000Y-53975000D03*
D13*
X266700000Y-59055000D03*
X266700000Y-61595000D03*
X274320000Y-61595000D03*
X274320000Y-59055000D03*
X274320000Y-56515000D03*
X274320000Y-53975000D03*
D11*
X290195000Y-50165000D03*
X290195000Y-56515000D03*
X242951000Y-67945000D03*
X249301000Y-67945000D03*
X233680000Y-64770000D03*
X224155000Y-64770000D03*
X224155000Y-50165000D03*
X233680000Y-50165000D03*
X276860000Y-67310000D03*
X267335000Y-67310000D03*
X276225000Y-50800000D03*
X266700000Y-50800000D03*
D13*
X224155000Y-56515000D03*
D14*
X224155000Y-53975000D03*
D13*
X224155000Y-59055000D03*
X224155000Y-61595000D03*
X231775000Y-61595000D03*
X231775000Y-59055000D03*
X231775000Y-56515000D03*
X231775000Y-53975000D03*
X225425000Y-69850000D03*
X217805000Y-69850000D03*
D11*
X276860000Y-64770000D03*
X266700000Y-64770000D03*
X245110000Y-64770000D03*
X251460000Y-64770000D03*
X247650000Y-83185000D03*
X241300000Y-83185000D03*
X251460000Y-80645000D03*
X241300000Y-80645000D03*
X263525000Y-64770000D03*
X254000000Y-64770000D03*
X252095000Y-50800000D03*
X261620000Y-50800000D03*
X248920000Y-45085000D03*
X248920000Y-38735000D03*
X274320000Y-38100000D03*
X274320000Y-48260000D03*
X255270000Y-48260000D03*
X265430000Y-48260000D03*
X264795000Y-67310000D03*
X264795000Y-77470000D03*
X288290000Y-83185000D03*
X281940000Y-83185000D03*
X291465000Y-59055000D03*
X291465000Y-65405000D03*
X297815000Y-50800000D03*
X307340000Y-50800000D03*
X290195000Y-45085000D03*
X290195000Y-38735000D03*
X292100000Y-80010000D03*
X281940000Y-80010000D03*
X307340000Y-46355000D03*
X297180000Y-46355000D03*
X285115000Y-66040000D03*
X285115000Y-76200000D03*
X229870000Y-74295000D03*
X227330000Y-72136000D03*
X309245000Y-48895000D03*
X249555000Y-84455000D03*
X238760000Y-69850000D03*
X269240000Y-69850000D03*
X269240000Y-59055000D03*
X271145000Y-48260000D03*
X254000000Y-72136000D03*
X267335000Y-72136000D03*
X271145000Y-74295000D03*
X256540000Y-67945000D03*
X256540000Y-74295000D03*
X252730000Y-48260000D03*
X305181000Y-111125000D03*
X299593000Y-111760000D03*
X307975000Y-107315000D03*
X307975000Y-97155000D03*
X305181000Y-97155000D03*
X302387000Y-97155000D03*
X307975000Y-93345000D03*
X305181000Y-93345000D03*
X307467000Y-83185000D03*
X304800000Y-83820000D03*
X302133000Y-84455000D03*
X295910000Y-33020000D03*
X292735000Y-47625000D03*
X255270000Y-33020000D03*
X259080000Y-38100000D03*
X271145000Y-38100000D03*
X299720000Y-37465000D03*
X309245000Y-38735000D03*
X294005000Y-37465000D03*
X299720000Y-29845000D03*
X252095000Y-38100000D03*
X259080000Y-29845000D03*
X229870000Y-67310000D03*
D13*
X240665000Y-76073000D03*
X238760000Y-80645000D03*
X243840000Y-78994000D03*
X247015000Y-77724000D03*
X265430000Y-80645000D03*
X264795000Y-83185000D03*
D11*
X262255000Y-83185000D03*
X260350000Y-84455000D03*
D13*
X280035000Y-76835000D03*
M02*
