G04 #@! TF.GenerationSoftware,KiCad,Pcbnew,(5.1.5)-3*
G04 #@! TF.CreationDate,2021-01-08T05:23:37-07:00*
G04 #@! TF.ProjectId,Asteroids_PCB,41737465-726f-4696-9473-5f5043422e6b,rev?*
G04 #@! TF.SameCoordinates,Original*
G04 #@! TF.FileFunction,Profile,NP*
%FSLAX46Y46*%
G04 Gerber Fmt 4.6, Leading zero omitted, Abs format (unit mm)*
G04 Created by KiCad (PCBNEW (5.1.5)-3) date 2021-01-08 05:23:37*
%MOMM*%
%LPD*%
G04 APERTURE LIST*
%ADD10C,0.002540*%
G04 APERTURE END LIST*
D10*
X317500000Y-422910000D02*
X317500000Y-431165000D01*
X309880000Y-431165000D02*
G75*
G03X308610000Y-432435000I0J-1270000D01*
G01*
X317500000Y-431165000D02*
X309880000Y-431165000D01*
X308610000Y-442595000D02*
X308610000Y-432435000D01*
X308610000Y-442595000D02*
G75*
G03X309880000Y-443865000I1270000J0D01*
G01*
X317500000Y-443865000D02*
X309880000Y-443865000D01*
X317500000Y-502285000D02*
X317500000Y-443865000D01*
X26670000Y-502285000D02*
X317500000Y-502285000D01*
X26670000Y-286385000D02*
X26670000Y-502285000D01*
X26670000Y-167005000D02*
X26670000Y-286385000D01*
X26670000Y-104775000D02*
X26670000Y-167005000D01*
X26670000Y-19685000D02*
X26670000Y-104775000D01*
X308610000Y-422910000D02*
X317500000Y-422910000D01*
X308610000Y-421640000D02*
X308610000Y-422910000D01*
X317500000Y-421640000D02*
X308610000Y-421640000D01*
X317500000Y-365125000D02*
X317500000Y-421640000D01*
X309880000Y-365125000D02*
X317500000Y-365125000D01*
X308610000Y-363855000D02*
G75*
G03X309880000Y-365125000I1270000J0D01*
G01*
X308610000Y-353695000D02*
X308610000Y-363855000D01*
X309880000Y-352425000D02*
G75*
G03X308610000Y-353695000I0J-1270000D01*
G01*
X317500000Y-352425000D02*
X309880000Y-352425000D01*
X317500000Y-19685000D02*
X317500000Y-352425000D01*
X180340000Y-19685000D02*
X317500000Y-19685000D01*
X180340000Y-27305000D02*
X180340000Y-19685000D01*
X179070000Y-28575000D02*
G75*
G03X180340000Y-27305000I0J1270000D01*
G01*
X168910000Y-28575000D02*
X179070000Y-28575000D01*
X167640000Y-27305000D02*
G75*
G03X168910000Y-28575000I1270000J0D01*
G01*
X167640000Y-19685000D02*
X167640000Y-27305000D01*
X91440000Y-19685000D02*
X167640000Y-19685000D01*
X91440000Y-28575000D02*
X91440000Y-19685000D01*
X90170000Y-28575000D02*
X91440000Y-28575000D01*
X90170000Y-19685000D02*
X90170000Y-28575000D01*
X77470000Y-19685000D02*
X90170000Y-19685000D01*
X77470000Y-27305000D02*
X77470000Y-19685000D01*
X76200000Y-28575000D02*
G75*
G03X77470000Y-27305000I0J1270000D01*
G01*
X66040000Y-28575000D02*
X76200000Y-28575000D01*
X64770000Y-27305000D02*
G75*
G03X66040000Y-28575000I1270000J0D01*
G01*
X64770000Y-19685000D02*
X64770000Y-27305000D01*
X26670000Y-19685000D02*
X64770000Y-19685000D01*
M02*
